<?xml version="1.0" encoding="UTF-8"?>
<svg width="80px" height="19px" viewBox="0 0 80 19" version="1.1" xmlns="http://www.w3.org/2000/svg" xmlns:xlink="http://www.w3.org/1999/xlink">
    <!-- Generator: Sketch 52.6 (67491) - http://www.bohemiancoding.com/sketch -->
    <title>阿里云 copy</title>
    <desc>Created with Sketch.</desc>
    <g id="Page-1" stroke="none" stroke-width="1" fill="none" fill-rule="evenodd">
        <g id="阿里云-copy">
            <g id="分组">
                <path d="M44.3341264,16.7869831 C47.0048744,16.7137025 47.943262,14.8084068 47.943262,13.1962407 L47.943262,3.30335932 L48.3041755,3.30335932 L48.6650891,1.83774655 L40.7971959,1.83774655 L41.1581094,3.30335932 L46.4996268,3.30335932 L46.4996268,13.0496723 C46.4996268,14.4420031 45.4890701,15.3946588 43.9732297,15.3946588 L44.3341433,16.7869895 L44.3341264,16.7869831 Z" id="路径" fill="#000000"></path>
                <path d="M44.6229976,13.4160825 C44.9839112,13.0496788 45.1282749,12.5367153 45.1282749,11.657348 L45.1282749,4.62241017 L40.8694962,4.62241017 L40.8694962,13.9290395 L43.251521,13.9290395 C43.8289823,13.9290395 44.3342596,13.7824783 44.6229892,13.416076 L44.6229976,13.4160825 Z M42.385345,12.3168885 L42.385345,6.08802938 L43.6846312,6.08802938 L43.6846312,11.5108011 C43.6846312,12.0970467 43.4680835,12.3168885 42.9628062,12.3168885 L42.385345,12.3168885 Z M34.8783505,1.69117175 L34.8783505,16.7137096 L36.3220026,16.7137096 L36.3220026,3.30335932 L38.1265662,3.30335932 L37.0438277,7.99331073 C37.4769231,8.35971446 38.2709321,9.31236158 38.2709321,10.9978226 C38.270932,12.6832772 37.3325593,13.2695141 37.0438277,13.4160825 L37.0438277,14.9549751 C37.8378366,14.8816946 39.8589479,13.7824862 39.8589479,11.071096 C39.8589479,9.4589235 39.2814867,8.28642599 38.7762094,7.55362712 L40.0754956,1.69117175 L34.8783505,1.69117175 Z M51.4803489,15.2481119 L51.1916109,16.7137246 L64.3288543,16.7137246 L63.9679408,15.2481119 L58.4820724,15.2481119 L58.4820724,13.3428155 L63.5348454,13.3428155 L63.1739318,11.8772027 L58.4820576,11.8772027 L58.4820576,9.97190633 L61.8746455,9.97190633 C63.4626614,9.97190633 64.3288459,9.16581898 64.3288459,7.48037299 L64.3288543,1.61791763 L51.1916109,1.61791763 L51.1916109,9.89863288 L56.9662236,9.89863288 L56.9662236,11.7306472 L52.2743495,11.7306472 L51.9134359,13.19626 L56.9662088,13.19626 L56.9662088,15.1748363 L51.4803405,15.1748363 L51.4803489,15.2481119 Z M58.4820513,6.67428136 L61.9468147,6.67428136 L61.5859011,5.20866859 L58.4820576,5.20866859 L58.4820513,3.3033722 L62.8130119,3.3033722 L62.8130119,7.48036655 C62.8130119,8.21317186 62.5242823,8.50629571 61.946821,8.50629571 L58.4820513,8.50629571 L58.4820576,6.67428136 L58.4820513,6.67428136 Z M52.7796352,8.50629571 L52.7796352,3.30336576 L57.0384203,3.30336576 L57.038414,5.13538011 L53.9345704,5.13538011 L53.5736569,6.60099288 L57.0384203,6.60099288 L57.0384203,8.50629571 L52.7796352,8.50629571 Z M78.5488131,1.69119966 L68.2266984,1.69119966 L67.8657848,3.3033722 L78.9818937,3.3033722 L78.5488131,1.69119966 Z M67.6492519,16.6404426 L67.5770694,16.7870039 L77.6826364,16.7870039 C78.2600977,16.7870039 78.6931931,16.6404426 78.9819227,16.2740404 C79.2706523,15.8343568 79.1984704,15.3213933 79.0541052,15.0282694 C78.90974,14.2954641 78.3322802,11.6573688 78.1879144,11.2909587 L78.1879144,11.2176781 L76.6720804,11.2176781 L76.7442629,11.3642394 C76.8164454,11.7306432 77.4660879,14.4420247 77.6104537,15.321392 L69.5260128,15.321392 C69.8869264,13.5626575 70.5365695,10.6314406 70.8974809,9.16582134 L79.9924849,9.16582134 L79.6315713,7.70020858 L67.2161762,7.70020858 L66.8552626,9.16582134 L69.3816596,9.16582134 C69.0929301,10.4848722 68.1545552,14.2221829 67.6492779,16.6404428 L67.6492519,16.6404426 Z" id="形状" fill="#000000" fill-rule="nonzero"></path>
                <path d="M5.42779804,14.588565 C4.7781549,14.4420037 4.34505948,13.9290395 4.34505948,13.1962342 L4.34505948,5.79488621 C4.41724198,5.13536079 4.85033677,4.62239729 5.42779804,4.47583537 L12.2129527,3.0102226 L12.9347777,0.0790056497 L5.06688448,0.0790056497 C2.25176421,0.00572511864 0.0141115517,2.27742373 0.0141115517,5.06209379 L0.0141115517,13.8557661 C0.0141115517,16.6404362 2.32396088,18.9854011 5.06688448,18.9854011 L12.9347777,18.9854011 L12.2129527,16.0541842 L5.42779804,14.5885714 L5.42779804,14.588565 Z M25.2058155,0.00573220339 L17.2657256,0.00573220339 L17.9875506,2.93694915 L24.7727053,4.40256192 C25.4223484,4.5491232 25.8554438,5.06208734 25.8554438,5.72161277 L25.8554438,13.1229608 C25.7832613,13.7824862 25.3501665,14.2954497 24.7727053,14.4420116 L17.9875506,15.9076244 L17.2657256,18.8388414 L25.2058155,18.8388414 C27.9487602,18.8388414 30.2585884,16.5671498 30.2585884,13.7092063 L30.2585884,4.91553401 C30.1864059,2.27743232 27.9487391,0.00574079096 25.2058155,0.00574079096 L25.2058155,0.00573220339 Z" id="形状" fill="#3D3D3D" fill-rule="nonzero"></path>
                <polygon id="路径" fill="#3D3D3D" points="12.2129527 9.09251977 17.9875654 9.09251977 17.9875654 9.82532508 12.2129527 9.82532508"></polygon>
            </g>
        </g>
    </g>
</svg>