<?xml version="1.0" encoding="UTF-8"?>
<svg width="35px" height="22px" viewBox="0 0 35 22" version="1.1" xmlns="http://www.w3.org/2000/svg" xmlns:xlink="http://www.w3.org/1999/xlink">
    <!-- Generator: Sketch 52.6 (67491) - http://www.bohemiancoding.com/sketch -->
    <title>分组 23 copy</title>
    <desc>Created with Sketch.</desc>
    <g id="Page-1" stroke="none" stroke-width="1" fill="none" fill-rule="evenodd">
        <g id="分组-23-copy" transform="translate(0.000000, -7.000000)" fill-rule="nonzero">
            <rect id="aws" fill="#FFFFFF" opacity="0" x="0" y="0" width="35" height="35"></rect>
            <path d="M20.2266291,28.8135914 C19.6743029,28.8812014 19.2305635,28.9092555 18.2373849,28.9525705 C17.7742455,28.9727692 17.5715173,28.9824533 17.3049188,28.9982648 C13.2771246,29.0487261 9.40922901,27.9982258 5.65511374,25.8944739 C3.71921491,24.8064014 1.92641015,23.4315786 0.270115159,21.7746355 C-0.240573605,21.2512378 0.0176480677,20.4150526 0.669995849,20.5741546 C0.820804948,20.6097711 0.926969946,20.6649029 1.13645988,20.7960018 C1.15998533,20.8107295 1.15998533,20.8107295 1.18423249,20.825832 C4.82435173,23.1183244 8.77474176,24.5893233 13.0450652,25.2657187 C15.1336082,25.5952031 17.1492786,25.7124484 19.1270783,25.606778 C23.0788844,25.4030349 26.8705733,24.4630562 30.4929576,22.7847741 C31.0460054,22.5278719 31.5289872,22.6294041 31.7546644,23.0337771 C31.9626213,23.4063984 31.8603456,23.9068122 31.5115186,24.1767548 C31.3844267,24.2751309 31.3844267,24.2751309 31.2569875,24.3743597 L31.2337859,24.3924289 C30.6048669,24.8822264 30.3140926,25.0979431 29.9385431,25.3376308 C27.0158,27.2283223 23.7754799,28.3734083 20.2266291,28.8135914 Z M30.4445182,22.0910335 C30.2468228,22.106428 30.0427162,22.1260564 29.7742846,22.1546942 C29.6950169,22.1631509 29.1987624,22.217484 29.0446809,22.2337248 C28.9823563,22.2402706 28.9823563,22.2402706 28.9204552,22.2466631 C28.8804148,22.2513333 28.8804148,22.2513333 28.8366353,22.2571501 C28.654635,22.2813758 28.5713309,22.2863712 28.4593855,22.2671373 C28.1717753,22.222501 27.9888767,22.0357148 27.9818845,21.7698458 C27.9772736,21.5945246 28.0589162,21.4092625 28.1678097,21.3124727 C28.3895266,21.1162094 28.5915665,20.9648356 28.799027,20.8485104 C30.0715762,20.1324614 31.4820371,19.8940223 33.1139638,20.0417792 C33.4638042,20.0694199 33.8249937,20.1493181 34.2777718,20.2859578 C34.7860173,20.4423995 34.9781443,20.7332792 34.9955354,21.3192967 C35.0336818,22.3346143 34.8269687,23.3273513 34.391252,24.5019634 C34.0162977,25.524313 33.4983578,26.3825408 32.8097831,27.0792495 C32.7712219,27.1187791 32.7712219,27.1187791 32.7246528,27.1679156 C32.4303402,27.4758598 32.1857918,27.5839178 31.8672686,27.3406754 C31.6118414,27.1366381 31.6091671,26.8786228 31.7395835,26.5785503 C31.7555796,26.5424075 31.7555796,26.5424075 31.770606,26.5097222 C31.8060263,26.432752 31.8176583,26.405106 31.8252848,26.3784181 C31.9128025,26.0766508 31.9913795,25.8193788 32.1503613,25.3082688 L32.1630798,25.2673825 C32.4846714,24.233582 32.6198369,23.7708245 32.7572063,23.1895945 C32.9586547,22.3437714 32.7950581,22.1222219 31.9428405,22.0721595 C31.429455,22.0424626 30.9688324,22.0502052 30.4445182,22.0910335 Z" id="aws" fill="#FD9902"></path>
            <path d="M17.7883797,13.6793973 L17.7862027,13.688256 C17.6369938,14.2957899 17.5513822,14.6442884 17.4617496,15.0084009 C17.3177134,15.5935158 17.1658702,16.2084332 16.9810157,16.954741 C16.8454426,17.4916235 16.5756433,17.6988345 16.0058239,17.7072209 L15.03448,17.7071826 C14.52227,17.698574 14.2661323,17.5199403 14.1219082,17.0484816 C13.7910538,16.0153862 13.3982928,14.7699247 12.9295762,13.2705269 C12.9002637,13.1767483 12.9002637,13.1767483 12.870957,13.0829513 C12.643033,12.3534029 12.4081547,11.5992674 12.1152701,10.6572088 C12.0637153,10.4913837 11.5704184,8.90398271 11.4425068,8.49285155 C11.2714343,7.94376302 11.2486749,7.67886565 11.44363,7.47932278 C11.6106992,7.30832197 11.7209854,7.29939618 12.3271037,7.31596191 C12.4334704,7.31876423 12.5414034,7.31930286 12.6874046,7.31832805 C12.7481652,7.31787732 12.7481652,7.31787732 12.8093931,7.31733286 C12.9326433,7.31623757 12.9326433,7.31623757 13.0636589,7.31591735 C13.5271085,7.32477553 13.8004716,7.52975434 13.9241774,7.96904625 C13.9388077,8.02021954 13.9388077,8.02021954 13.9532692,8.07110234 C13.9609745,8.09827964 13.9609745,8.09827964 13.9686682,8.12551136 C14.0795354,8.51827359 14.1899526,8.93207438 14.4375394,9.88226409 C14.5437005,10.2896895 15.1987426,12.8135025 15.5782502,14.2744118 C15.7542516,13.549492 15.9291382,12.8256848 16.2552566,11.4741058 C16.645531,9.85663604 16.8192741,9.13800036 17.0374172,8.24107879 C17.2177182,7.49411524 17.5486897,7.30932326 18.4362126,7.30932326 L18.9502927,7.30935033 C19.5398295,7.31767897 19.7795928,7.49479458 19.92103,8.04630181 C20.0661512,8.59800772 20.1838541,9.08404243 20.7565743,11.4746217 L20.7678471,11.5216727 C21.082775,12.8360422 21.3065937,13.7574338 21.4598835,14.361248 C21.478063,14.293963 21.4989936,14.216039 21.523757,14.1235058 C21.6179164,13.7716594 22.6280955,9.96775877 23.1148227,8.13725853 C23.2859949,7.49366557 23.52531,7.30932326 24.1966368,7.30932326 L25.054184,7.30936745 C25.5881811,7.31900702 25.8162247,7.58697945 25.6883995,8.0949511 C25.6768643,8.13934127 25.6768643,8.13934127 25.6655398,8.18224962 C25.6604611,8.2013535 25.6604611,8.2013535 25.6553427,8.22042054 C25.5828772,8.48966489 25.5058202,8.7360722 25.1271263,9.91204695 C24.9807101,10.3665327 24.9807101,10.3665327 24.794883,10.9431615 C24.5872396,11.5876698 24.488533,11.8941991 24.331748,12.3815348 C23.9061047,13.704564 23.4470419,15.1346276 22.9115796,16.806546 C22.6680151,17.5647741 22.4899438,17.6941318 21.6789689,17.6941318 L20.9673081,17.6941318 C20.3521788,17.6941318 20.1221105,17.5254954 19.9731607,16.9527159 C19.8561683,16.5230641 19.6351592,15.647146 19.1002456,13.5063365 L19.0988476,13.5007415 C18.799288,12.3018534 18.5987363,11.501044 18.4617483,10.9596963 C18.1862837,12.0650519 18.0022269,12.80924 17.7883797,13.6793973 Z M8.50079514,16.8032545 C8.36810297,16.9173482 8.2620223,17.0028589 8.15184469,17.0819898 C6.89386374,17.9738232 5.49539122,18.2016153 4.04138544,17.7406299 C2.97770014,17.406842 2.29761223,16.6371518 2.09001874,15.5530767 C1.88040324,14.4606881 2.02674574,13.5480486 2.63582591,12.7651124 C3.27368178,11.9425527 4.16194385,11.5196852 5.37640134,11.3561301 C6.21627584,11.2465852 6.9191324,11.3142382 8.27271121,11.5610439 C8.47746328,11.5980051 8.32932625,11.7140432 8.32932625,11.5200456 C8.32974592,11.4041137 8.32974592,11.4041137 8.33098518,11.2898108 C8.33190687,11.2046404 8.33190687,11.2046404 8.33247616,11.1204564 C8.33482918,10.6234856 8.30095888,10.3243675 8.1851831,10.0271739 C8.03482028,9.63819275 7.78126078,9.39625582 7.39304494,9.27899232 C6.54601515,9.01854335 5.66546885,9.07255519 4.58645899,9.39171559 C4.44719998,9.43164168 4.31340029,9.4777129 4.09888941,9.5571723 C4.05722054,9.5726299 4.05722054,9.5726299 4.01526566,9.58823324 C3.80753523,9.66547559 3.70594736,9.70199091 3.58302729,9.74192756 C3.04498055,9.91987754 2.74178616,9.74022844 2.68434896,9.18966269 C2.65562666,8.90967973 2.67449566,8.60986776 2.73633097,8.31619066 C2.78085239,8.12089442 2.96010802,7.91412218 3.15009468,7.82152846 C4.12536497,7.3390905 5.12135829,7.07383935 6.136069,7.04763724 C7.20025667,7.01934553 7.77479685,7.05651183 8.41637418,7.25525096 C9.76570713,7.65943789 10.5271579,8.59307172 10.7290555,9.99990739 C10.7720872,10.310315 10.7929902,11.0652702 10.7984405,12.1567713 C10.8011298,12.6953414 10.7997995,13.2607594 10.7958349,13.858027 C10.7948014,14.0137159 10.7918619,14.3855535 10.7918475,14.4088759 C10.7855959,14.9939075 10.9159135,15.5353089 11.1855865,16.0488335 C11.4955583,16.6368173 11.4237448,16.8980492 10.8553596,17.2647034 L10.4298228,17.5412226 C9.90583649,17.8732284 9.48759503,17.8075436 9.12482309,17.3192008 C9.02644845,17.1861863 8.93141071,17.0450641 8.81552323,16.8629546 C8.79290271,16.827408 8.7377176,16.7394323 8.67997271,16.6473459 C8.6061606,16.7116241 8.52594371,16.7816308 8.50079514,16.8032545 Z M8.34507423,12.8807767 C8.04802712,12.8440904 7.32680648,12.7478953 7.27286996,12.7411199 C6.96403055,12.7023245 6.76665739,12.6858216 6.56695889,12.6852754 C6.31816428,12.6845949 6.07045563,12.7099361 5.70856331,12.7712874 C4.71383947,12.9353793 4.14629283,13.4905474 4.04733051,14.4255426 C3.92939403,15.5094756 4.49584019,16.3377271 5.60378035,16.4300966 C6.27613324,16.4870886 6.9091327,16.3700631 7.49918679,16.0754584 C8.29105742,15.6819363 8.75640949,15.0702904 8.84348514,14.2427033 C8.85778367,14.1103001 8.86038769,14.007411 8.85987749,13.7806209 C8.8595384,13.6298931 8.86031718,13.5639553 8.86464114,13.4838709 C8.88642405,13.1443296 8.68913729,12.9254898 8.34507423,12.8807767 Z M31.8285193,17.6361138 C30.4353832,18.1806034 28.5367275,18.0943454 26.8870421,17.5089033 C26.0282622,17.2093788 25.7043126,16.5860671 25.9430365,15.7097175 C26.0508852,15.3417621 26.3360908,15.1742823 26.7021921,15.2932466 C26.6481862,15.2761065 27.282767,15.5162316 27.6080658,15.6167369 C28.4144175,15.8658697 29.1984732,15.9856452 29.9258096,15.9146419 C30.3708957,15.8711921 30.7769292,15.75602 31.1374268,15.5619221 C31.6792681,15.2673584 31.6692004,14.3075514 31.0837392,14.0616211 C30.7698598,13.9338119 30.4945839,13.8323275 29.9430007,13.6365855 C29.7101252,13.5540004 29.6022057,13.515575 29.4758028,13.4699392 C29.3390474,13.4205658 29.206468,13.3760745 28.9910473,13.3061545 C28.9517184,13.2933976 28.9517184,13.2933976 28.9122861,13.2806212 C28.3709446,13.1052058 28.1235049,13.0163284 27.8279815,12.8779028 C26.5632471,12.282979 25.9458728,11.2528836 26.0613356,9.8952213 C26.1590069,8.75271013 26.8356624,7.92454693 27.9638636,7.44245972 C29.4528814,6.80303949 31.0294032,6.87381236 32.7480629,7.54394797 C33.4043816,7.80151964 33.7046419,8.70968423 33.3746688,9.32759259 C33.2179884,9.6250161 32.9652036,9.68257511 32.657885,9.59752179 C32.6096239,9.58358312 32.6096239,9.58358312 32.5668745,9.57010993 C32.5503461,9.56487943 32.5503461,9.56487943 32.5407032,9.5617626 C32.4325948,9.5305929 32.3239617,9.49706264 32.1766782,9.45000895 C32.1169185,9.43087705 32.1169185,9.43087705 32.0574746,9.4117716 C31.5971207,9.26383214 31.3870553,9.20364306 31.1287115,9.15534617 C30.5357665,9.04347549 29.9350172,9.0512628 29.3522041,9.17954364 C28.7276469,9.32087545 28.500342,9.60781543 28.5227891,10.2150236 C28.5320164,10.4668732 28.6586003,10.6507988 28.896616,10.7773572 C29.3137693,11.0020034 29.7918052,11.1867524 30.5306246,11.4271364 C30.6636811,11.4704279 31.1267952,11.6185507 31.1296318,11.6194634 C31.5530691,11.7557014 31.8317211,11.8512513 32.0953269,11.9543889 C33.1326733,12.3543403 33.7960239,13.0808693 33.9512672,14.08517 C34.2122974,15.7219049 33.4132883,17.012383 31.8285193,17.6361138 Z" id="aws" fill="#252F3F"></path>
        </g>
    </g>
</svg>