<?xml version="1.0" encoding="UTF-8"?>
<svg width="80px" height="23px" viewBox="0 0 80 23" version="1.1" xmlns="http://www.w3.org/2000/svg" xmlns:xlink="http://www.w3.org/1999/xlink">
    <!-- Generator: Sketch 52.6 (67491) - http://www.bohemiancoding.com/sketch -->
    <title>MicrosoftAzure Copy</title>
    <desc>Created with Sketch.</desc>
    <g id="Page-1" stroke="none" stroke-width="1" fill="none" fill-rule="evenodd">
        <g id="MicrosoftAzure-Copy" fill="#000000" fill-rule="nonzero">
            <path d="M46.2110881,16.9624755 L44.5428155,16.9624755 L43.1724484,13.2124653 L37.8101403,13.2124653 L36.5589358,16.9624755 L34.8906632,16.9624755 L39.7167288,3.58747113 L41.2658388,3.58747113 L46.2110881,16.9624755 Z M42.7553786,11.7749823 L40.7296126,6.08747792 C40.6700315,5.7749783 40.5508691,5.46247868 40.4912873,5.14997906 L40.4317062,5.14997906 L40.2529627,6.08747792 L38.2272021,11.7749823 L42.7553786,11.7749823 Z M54.2545386,7.83749251 L48.8922305,15.6499953 L54.2545386,15.6499953 L54.2545386,16.8999962 L46.7473072,16.8999962 L46.7473072,16.4624963 L52.1096153,8.71249489 L47.2239672,8.71249489 L47.2239672,7.46249395 L54.2545386,7.46249395 L54.2545386,7.83749497 L54.2545386,7.83749251 Z M63.4896157,16.9625001 L62.0596684,16.9625001 L62.0596684,15.4625009 L62.0000873,15.4625009 C61.4638565,16.5875015 60.3913949,17.2125008 59.19978,17.2125008 C57.0548591,17.2125008 55.9228126,15.8375019 55.9228126,13.1500082 L55.9228126,7.46250379 L57.3527599,7.46250379 L57.3527599,12.962504 C57.3527599,14.9625045 58.0677335,15.9624974 59.5572633,15.9624974 C60.2126568,15.9624974 60.8680479,15.7124967 61.285116,15.1499964 C61.7617643,14.5249971 62.0000897,13.7749976 62.0000897,13.0249955 L62.0000897,7.52499535 L63.4300369,7.52499535 L63.489618,16.9624853 L63.4896157,16.9625001 Z M71.1160121,8.89999171 C70.7585241,8.64999103 70.4010385,8.58749209 69.9839703,8.58749209 C69.3285768,8.58749209 68.7327659,8.96249311 68.4348604,9.52499095 C68.0177922,10.2749905 67.7794669,11.1499904 67.8390494,11.9624914 L67.8390494,16.8375022 L66.4091021,16.8375022 L66.4091021,7.33751083 L67.8390494,7.33751083 L67.8390494,9.27500994 L67.8986305,9.27500994 C68.077374,8.71250965 68.3752788,8.15000935 68.792347,7.71250939 C69.4477404,7.15000909 70.2818767,6.96250981 71.116013,7.27500943 L71.116013,8.90000893 L71.1160121,8.89999171 Z M79.9340351,12.5249991 L73.4992654,12.5249991 C73.4396843,13.399999 73.7375907,14.2749989 74.3334017,14.9624996 C74.9292126,15.5249999 75.7037688,15.8999984 76.4783226,15.8374995 C77.4912017,15.8374995 78.5040832,15.4624985 79.2786299,14.7750003 L79.2786299,16.2125005 C78.325331,16.8374997 77.2528693,17.2125008 76.1208275,17.1499994 C74.9887858,17.2124993 73.856744,16.7124994 73.0821902,15.8374995 C72.307634,14.7750003 71.8905659,13.5249994 72.0097285,12.2124921 C72.0097285,11.3374922 72.1884721,10.3999933 72.5459594,9.58748251 C72.9034474,8.83748293 73.3800957,8.21248369 74.0950693,7.77498373 C74.7504628,7.33748377 75.4654364,7.14998449 76.2399902,7.14998449 C77.2528693,7.08748457 78.2657508,7.52498551 78.980715,8.33748403 C79.6956887,9.27498289 80.0531767,10.5249838 79.9935942,11.7124858 L79.9340131,12.5249868 L79.9340351,12.5249991 Z M78.4445053,11.2749982 C78.5040864,10.5249986 78.2657618,9.83749794 77.8486944,9.21249871 C77.4316262,8.71249981 76.8358152,8.46249913 76.1804218,8.46249913 C75.5250283,8.46249913 74.8696372,8.71249981 74.452569,9.21249871 C73.9759207,9.774999 73.6184327,10.4624996 73.5588526,11.2124992 L78.4445006,11.2749991 L78.4445053,11.2749982 Z M6.49432881,23 L28.2414738,23 L16.5039785,1.68749007 L12.9290986,11.9999996 L19.7809224,20.5624946 L6.49432881,23 Z M15.5506819,0 L7.14973636,7.37499445 L0,20.4374918 L6.49435226,20.4374918 L6.49435226,20.4999917 L15.5506819,0 Z" id="形状"></path>
        </g>
    </g>
</svg>