<?xml version="1.0" encoding="UTF-8"?>
<svg width="177px" height="28px" viewBox="0 0 177 28" version="1.1" xmlns="http://www.w3.org/2000/svg" xmlns:xlink="http://www.w3.org/1999/xlink">
    <!-- Generator: Sketch 52.6 (67491) - http://www.bohemiancoding.com/sketch -->
    <title>cloud-logo</title>
    <desc>Created with Sketch.</desc>
    <g id="Page-1" stroke="none" stroke-width="1" fill="none" fill-rule="evenodd">
        <g id="首页" transform="translate(-512.000000, -2196.000000)">
            <rect fill="#FFFFFF" x="0" y="0" width="1440" height="4054"></rect>
            <rect id="矩形-copy-18" stroke="#F5F7FC" fill-rule="nonzero" x="486.5" y="2180.5" width="227" height="59" rx="4"></rect>
            <g id="cloud-logo" transform="translate(512.000000, 2196.000000)">
                <path d="M20.85,7.41 L21.85,7.41 L24.7,4.56 L24.84,3.35 C21.5207195,0.420285245 16.9239369,-0.587799792 12.6832551,0.68399778 C8.44257327,1.95579535 5.15920783,5.32716855 4,9.6 C4.31750276,9.46986151 4.66921446,9.44875881 5,9.54 L10.7,8.6 C10.7,8.6 10.99,8.12 11.14,8.15 C13.6755028,5.36536669 17.9425338,5.04084429 20.87,7.41 L20.85,7.41 Z" id="路径" fill="#EA4335"></path>
                <path d="M28.76,9.6 C28.1049134,7.18763302 26.7599089,5.01894352 24.89,3.36 L20.89,7.36 C22.5790647,8.74012497 23.5411792,10.8191771 23.5,13 L23.5,13.71 C25.4661337,13.71 27.06,15.3038663 27.06,17.27 C27.06,19.2361337 25.4661337,20.83 23.5,20.83 L16.38,20.83 L15.67,21.55 L15.67,25.82 L16.38,26.53 L23.5,26.53 C27.5823399,26.561783 31.2038479,23.9163624 32.4151182,20.0177302 C33.6263884,16.1190979 32.1416027,11.8871974 28.76,9.6 Z" id="路径" fill="#4285F4"></path>
                <path d="M9.25,26.49 L16.37,26.49 L16.37,20.79 L9.25,20.79 C8.74273225,20.7898879 8.24141303,20.6807572 7.78,20.47 L6.78,20.78 L3.91,23.63 L3.66,24.63 C5.26943185,25.845307 7.23327855,26.4987515 9.25,26.49 Z" id="路径" fill="#34A853"></path>
                <path d="M9.25,8 C5.295083,8.02362503 1.79172214,10.5564433 0.529535678,14.3046177 C-0.732650788,18.0527922 0.524982496,22.1888609 3.66,24.6 L7.79,20.47 C6.34703215,19.8180715 5.50807443,18.2914532 5.73129932,16.7238634 C5.9545242,15.1562737 7.18627368,13.9245242 8.75386343,13.7012993 C10.3214532,13.4780744 11.8480715,14.3170322 12.5,15.76 L16.63,11.63 C14.8727872,9.33277236 12.1422215,7.98968922 9.25,8 Z" id="路径" fill="#FBBC05"></path>
                <path d="M51.79,22.51 C49.313053,22.5415567 46.9300567,21.563084 45.19,19.8 C43.3940424,18.1106894 42.3891646,15.7454175 42.42,13.28 C42.390398,10.8148258 43.3950737,8.45002948 45.19,6.76 C46.9216298,4.97854881 49.3056952,3.98157601 51.79,4 C54.1562625,3.96846371 56.4363739,4.88699199 58.12,6.55 L56.34,8.36 C55.1210172,7.18195322 53.4850149,6.53474353 51.79,6.56 C50.0122055,6.53816484 48.3069337,7.2638124 47.09,8.56 C45.8259875,9.81399448 45.1288454,11.5297587 45.16,13.31 C45.1451741,15.069512 45.841058,16.760546 47.09,18 C49.6650466,20.5661863 53.8153566,20.6149613 56.45,18.11 C57.2343979,17.2509938 57.7156276,16.1585673 57.82,15 L51.82,15 L51.82,12.44 L60.31,12.44 C60.3934255,12.9555739 60.426914,13.4779941 60.41,14 C60.5166973,16.1832689 59.7253852,18.3151142 58.22,19.9 C56.5448557,21.6440732 54.2068147,22.593107 51.79,22.51 Z M71.53,20.81 C69.1626494,23.0792653 65.4273506,23.0792653 63.06,20.81 C61.9133951,19.6982575 61.2857974,18.1564712 61.33,16.56 C61.2870335,14.9637533 61.9144366,13.4224451 63.06,12.31 C65.4294069,10.0458572 69.1605931,10.0458572 71.53,12.31 C72.6755634,13.4224451 73.3029665,14.9637533 73.26,16.56 C73.3015984,18.1579789 72.6702807,19.6999905 71.52,20.81 L71.53,20.81 Z M64.93,19.14 C65.542582,19.7941894 66.3987743,20.1654176 67.295,20.1654176 C68.1912257,20.1654176 69.047418,19.7941894 69.66,19.14 C70.3275883,18.4500245 70.688195,17.519659 70.66,16.56 C70.6897723,15.597105 70.3291324,14.6630476 69.66,13.97 C69.0394923,13.322708 68.1816698,12.9567246 67.285,12.9567246 C66.3883302,12.9567246 65.5305077,13.322708 64.91,13.97 C64.2408676,14.6630476 63.8802277,15.597105 63.91,16.56 C63.8844673,17.5211011 64.2487586,18.4516671 64.92,19.14 L64.93,19.14 Z M84.55,20.81 C82.1826494,23.0792653 78.4473506,23.0792653 76.08,20.81 C74.9333951,19.6982575 74.3057974,18.1564712 74.35,16.56 C74.3070335,14.9637533 74.9344366,13.4224451 76.08,12.31 C78.4473506,10.0407347 82.1826494,10.0407347 84.55,12.31 C85.6955634,13.4224451 86.3229665,14.9637533 86.28,16.56 C86.3242026,18.1564712 85.6966049,19.6982575 84.55,20.81 Z M77.95,19.14 C78.562582,19.7941894 79.4187743,20.1654176 80.315,20.1654176 C81.2112257,20.1654176 82.067418,19.7941894 82.68,19.14 C83.3475883,18.4500245 83.708195,17.519659 83.68,16.56 C83.7097723,15.597105 83.3491324,14.6630476 82.68,13.97 C82.0594923,13.322708 81.2016698,12.9567246 80.305,12.9567246 C79.4083302,12.9567246 78.5505077,13.322708 77.93,13.97 C77.2608676,14.6630476 76.9002277,15.597105 76.93,16.56 C76.9044673,17.5211011 77.2687586,18.4516671 77.94,19.14 L77.95,19.14 Z M93.11,27.85 C91.9114084,27.8881188 90.7360059,27.5139667 89.78,26.79 C88.9311695,26.1518813 88.2626701,25.3041964 87.84,24.33 L90.12,23.38 C90.3681291,23.9621953 90.7563057,24.4740387 91.25,24.87 C91.7784278,25.2959752 92.4415345,25.5193748 93.12,25.5 C93.9905679,25.5529585 94.8410852,25.2244325 95.45,24.6 C96.052471,23.8732707 96.3499564,22.9413888 96.28,22 L96.28,21.14 L96.19,21.14 C95.417374,22.0576564 94.2576817,22.5578432 93.06,22.49 C91.542071,22.4945876 90.0915186,21.8635973 89.06,20.75 C87.9412374,19.6457841 87.3233137,18.1316903 87.35,16.56 C87.3220988,14.9792649 87.9395808,13.4554205 89.06,12.34 C90.0890281,11.2216833 91.5402893,10.5867565 93.06,10.59 C93.6961095,10.5888863 94.3245429,10.7289176 94.9,11 C95.3978165,11.2173975 95.8416577,11.541743 96.2,11.95 L96.29,11.95 L96.29,11 L98.77,11 L98.77,21.65 C98.9019392,23.3526918 98.3268453,25.03457 97.18,26.3 C96.0880423,27.3446567 94.620232,27.9036508 93.11,27.85 Z M93.29,20.17 C94.1544915,20.1889994 94.9826564,19.8225547 95.55,19.17 C96.1669975,18.4629422 96.492282,17.5478564 96.46,16.61 C96.4970404,15.6563158 96.1719524,14.7239205 95.55,14 C94.9835083,13.3462921 94.1547719,12.9795946 93.29,13 C92.4025768,12.9817765 91.5501707,13.3460526 90.95,14 C90.2885173,14.6979061 89.9291575,15.6286479 89.95,16.59 C89.9294575,17.5423933 90.289343,18.4637002 90.95,19.15 C91.5473273,19.8102641 92.3997141,20.1818173 93.29,20.17 Z M103.18,4.67 L103.18,22.15 L100.57,22.15 L100.57,4.67 L103.18,4.67 Z M110.34,22.51 C108.759864,22.5506195 107.234269,21.9309595 106.13,20.8 C105.009848,19.6777032 104.398984,18.1451207 104.44,16.56 C104.38025,14.9712898 104.968575,13.4264869 106.07,12.28 C107.108737,11.184984 108.561009,10.5786606 110.07,10.61 C110.756241,10.6027526 111.436759,10.7354536 112.07,11 C112.640406,11.230228 113.160192,11.5699572 113.6,12 C113.977646,12.3645645 114.313088,12.7704493 114.6,13.21 C114.832064,13.5811189 115.02956,13.9727631 115.19,14.38 L115.46,15.06 L107.46,18.35 C107.95527,19.4879485 109.100096,20.203465 110.34,20.15 C111.538802,20.1532661 112.651265,19.5267937 113.27,18.5 L115.27,19.85 C114.759603,20.580213 114.106444,21.1993534 113.35,21.67 C112.450414,22.2383589 111.403894,22.5304112 110.34,22.51 Z M107,16.38 L112.32,14.17 C112.156086,13.7803259 111.862989,13.4589791 111.49,13.26 C111.072353,13.0241519 110.599593,12.9033738 110.12,12.91 C109.30617,12.931079 108.533539,13.2724741 107.97,13.86 C107.287185,14.5134082 106.93152,15.4374029 107,16.38 Z" id="形状" fill="#5F6368" fill-rule="nonzero"></path>
                <path d="M129.13,22.51 C126.887114,22.5487171 124.725387,21.6713381 123.143916,20.080431 C121.562445,18.4895239 120.697941,16.3226159 120.75,14.08 C120.697941,11.8373841 121.562445,9.67047614 123.143916,8.07956904 C124.725387,6.48866194 126.887114,5.61128289 129.13,5.65 C131.405989,5.57883862 133.589848,6.55107927 135.06,8.29 L133.62,9.69 C132.539409,8.33085318 130.874919,7.5692006 129.14,7.64 C127.476149,7.60251436 125.869005,8.24537195 124.69,9.42 C123.463615,10.6532159 122.807554,12.3423026 122.88,14.08 C122.807554,15.8176974 123.463615,17.5067841 124.69,18.74 C125.869005,19.9146281 127.476149,20.5574856 129.14,20.52 C131.075955,20.5416947 132.916375,19.6803783 134.14,18.18 L135.58,19.62 C134.826032,20.5215851 133.879474,21.2426099 132.81,21.73 C131.657199,22.2622289 130.399593,22.5287867 129.13,22.51 Z" id="路径" fill="#5F6368"></path>
                <polygon id="路径" fill="#5F6368" points="139.45 22.15 137.38 22.15 137.38 6 139.45 6"></polygon>
                <path d="M142.83,12.43 C145.087861,10.1876637 148.732139,10.1876637 150.99,12.43 C152.061308,13.5611019 152.637194,15.0728024 152.59,16.63 C152.637194,18.1871976 152.061308,19.6988981 150.99,20.83 C148.732139,23.0723363 145.087861,23.0723363 142.83,20.83 C141.758692,19.6988981 141.182806,18.1871976 141.23,16.63 C141.182806,15.0728024 141.758692,13.5611019 142.83,12.43 Z M144.37,19.53 C145.029166,20.2266149 145.945952,20.6212764 146.905,20.6212764 C147.864048,20.6212764 148.780834,20.2266149 149.44,19.53 C150.170855,18.7457664 150.556341,17.700992 150.51,16.63 C150.556341,15.559008 150.170855,14.5142336 149.44,13.73 C148.780834,13.0333851 147.864048,12.6387236 146.905,12.6387236 C145.945952,12.6387236 145.029166,13.0333851 144.37,13.73 C143.639145,14.5142336 143.253659,15.559008 143.3,16.63 C143.259058,17.698995 143.648027,18.7398453 144.38,19.52 L144.37,19.53 Z" id="形状" fill="#5F6368" fill-rule="nonzero"></path>
                <path d="M164.06,22.15 L162.06,22.15 L162.06,20.62 L162,20.62 C161.644042,21.2011055 161.140222,21.6773188 160.54,22 C159.917155,22.3609773 159.209889,22.5507317 158.49,22.55 C157.305924,22.6310003 156.149648,22.1670168 155.35,21.29 C154.592458,20.3318481 154.211846,19.1295409 154.28,17.91 L154.28,11.11 L156.35,11.11 L156.35,17.53 C156.35,19.59 157.26,20.62 159.08,20.62 C159.900463,20.6455821 160.682711,20.2730832 161.18,19.62 C161.716533,18.9400355 162.002566,18.0960608 161.99,17.23 L161.99,11.11 L164.06,11.11 L164.06,22.15 Z" id="路径" fill="#5F6368"></path>
                <path d="M171.09,22.51 C169.668899,22.5147177 168.31693,21.8971967 167.39,20.82 C166.353242,19.6749263 165.798051,18.174118 165.84,16.63 C165.798051,15.085882 166.353242,13.5850737 167.39,12.44 C168.31693,11.3628033 169.668899,10.7452823 171.09,10.75 C171.876703,10.73758 172.653888,10.9232792 173.35,11.29 C173.961695,11.5978137 174.479676,12.0639969 174.85,12.64 L174.94,12.64 L174.85,11.11 L174.85,6 L176.92,6 L176.92,22.15 L174.92,22.15 L174.92,20.62 L174.83,20.62 C174.459676,21.1960031 173.941695,21.6621863 173.33,21.97 C172.639855,22.3334697 171.869954,22.5190708 171.09,22.51 Z M171.43,20.62 C172.376481,20.6337809 173.283309,20.2404579 173.92,19.54 C174.623186,18.7393312 174.98248,17.6937842 174.92,16.63 C174.98248,15.5662158 174.623186,14.5206688 173.92,13.72 C173.279453,13.0160194 172.371782,12.6147308 171.42,12.6147308 C170.468218,12.6147308 169.560547,13.0160194 168.92,13.72 C168.214518,14.5153595 167.854693,15.5588514 167.92,16.62 C167.854693,17.6811486 168.214518,18.7246405 168.92,19.52 C169.55767,20.2331572 170.473441,20.6344911 171.43,20.62 Z" id="形状" fill="#5F6368" fill-rule="nonzero"></path>
            </g>
        </g>
    </g>
</svg>