<?xml version="1.0" encoding="UTF-8"?>
<svg width="32px" height="32px" viewBox="0 0 32 32" version="1.1" xmlns="http://www.w3.org/2000/svg" xmlns:xlink="http://www.w3.org/1999/xlink">
    <!-- Generator: Sketch 52.6 (67491) - http://www.bohemiancoding.com/sketch -->
    <title>华为LOGO2(1) Copy</title>
    <desc>Created with Sketch.</desc>
    <defs>
        <linearGradient x1="50%" y1="-2.48949813e-15%" x2="50%" y2="100%" id="linearGradient-1">
            <stop stop-color="#FF8308" offset="0%"></stop>
            <stop stop-color="#FD4F00" offset="100%"></stop>
        </linearGradient>
    </defs>
    <g id="Page-1" stroke="none" stroke-width="1" fill="none" fill-rule="evenodd">
        <g id="华为LOGO2(1)-Copy" fill="url(#linearGradient-1)" fill-rule="nonzero">
            <path d="M1.36148986,28.8958046 L3.93666335,28.8958046 L3.93666335,26.8189876 L5.09611646,26.8189876 L5.09611646,31.9464251 L3.93666335,31.9464251 L3.93666335,29.8034272 L1.36148986,29.8034272 L1.36148986,31.9464251 L0.202036754,31.9464251 L0.202036754,26.8189876 L1.36148986,26.8189876 L1.36148986,28.8958046 Z M7.19625794,29.8885168 C7.19625794,30.7961395 7.4806521,31.1743155 8.43696652,31.1743155 C9.39328094,31.1743155 9.67142468,30.7961395 9.67142468,29.8885168 L9.67142468,26.8189876 L10.8308778,26.8189876 L10.8308778,29.91688 C10.8308778,30.5723853 10.7527475,31.0230451 10.5089811,31.2940713 C10.0558256,31.7951546 9.39640616,32 8.44009173,32 C7.4806521,32 6.81498225,31.7920032 6.36182672,31.2940713 C6.10868467,31.0167422 6.04618046,30.5660823 6.04618046,29.91688 L6.04618046,26.8189876 L7.19625794,26.8189876 L7.19625794,29.8885168 Z M14.6123825,26.8189876 L16.9594157,31.9464251 L15.6718289,31.9464251 L15.1655448,30.7268072 L12.7747587,30.7268072 L12.2841007,31.9464251 L11.0590182,31.9464251 L13.3904252,26.8189876 L14.6123825,26.8189876 Z M13.149784,29.8128816 L14.7905195,29.8128816 L13.9560883,27.8432145 L13.149784,29.8128816 Z M17.484451,26.8189876 L18.7564117,30.7614733 L19.8283589,26.8189876 L21.1940759,26.8189876 L22.4285341,30.7614733 L23.6161141,26.8189876 L24.8036941,26.8189876 L23.1004544,31.9464251 L21.6816088,31.9464251 L20.5096548,28.1205436 L19.4814606,31.9464251 L18.0719906,31.9464251 L16.2406172,26.8189876 L17.484451,26.8189876 Z M26.3631742,28.9021075 L29.566515,28.9021075 L29.566515,29.7971243 L26.3569237,29.7971243 C26.3631742,30.7205042 26.7538255,31.0545598 27.666387,31.0545598 L29.566515,31.0545598 L29.566515,31.9464251 L27.6132584,31.9464251 C26.9475885,31.9464251 26.4319288,31.8960016 25.8975178,31.4957652 C25.3318547,31.0766201 25.0537109,30.402206 25.0537109,29.4756746 C25.0537109,27.6635809 25.8756413,26.8189876 27.6445105,26.8189876 L29.5696402,26.8189876 L29.5696402,27.7108529 L27.6695122,27.7108529 C26.8319557,27.7108529 26.4100523,28.0984834 26.3631742,28.9021075 Z M30.5884588,31.9464251 L30.5884588,26.8189876 L31.7979153,26.8189876 L31.7979153,31.9464251 L30.5884588,31.9464251 Z M13.7748261,18.9718338 C13.7748261,18.9718338 13.8310799,18.9277132 13.802953,18.852078 C10.0433247,10.5668702 4.89922819,4.28599567 4.89922819,4.28599567 C4.89922819,4.28599567 2.10216476,6.96474296 2.29905302,9.64664172 C2.40531018,11.6761867 3.92103729,12.8800473 3.92103729,12.8800473 C6.36182672,15.278314 12.2715998,18.3068741 13.6435673,18.993894 C13.6623185,19.000197 13.7341984,19.0222572 13.7748261,18.9718338 Z M12.8622646,21.0202876 C12.837263,20.9320465 12.7372562,20.9320465 12.7372562,20.9320465 L12.7372562,20.928895 L2.89909345,21.2755564 C3.96479024,23.1948001 5.7617863,24.6822927 7.63378741,24.2253299 C8.92449936,23.9007288 11.8496964,21.8428206 12.8153865,21.1463463 L12.8122613,21.1431948 C12.8872663,21.077014 12.8622646,21.0202876 12.8622646,21.0202876 Z M13.0122747,20.1315738 C13.0591529,20.0527871 12.9747722,19.9834548 12.9747722,19.9834548 C8.65573126,17.0431357 0.280167017,12.5302344 0.280167017,12.5302344 C-0.479259143,14.9064408 0.545809913,16.822533 0.545809913,16.822533 C1.61150671,19.0978925 3.64914398,19.7849123 3.64914398,19.7849123 C4.58983235,20.1756943 5.53052072,20.200906 5.53052072,20.200906 C5.67740562,20.2292693 11.3809148,20.2040575 12.9091428,20.1977546 C12.9747722,20.1977546 13.0122747,20.1315738 13.0122747,20.1315738 Z M13.6623185,0.0031514674 C13.2341647,0.0409690762 12.0778368,0.305692338 12.0778368,0.305692338 C9.47453642,0.983257829 8.85886994,3.36891865 8.85886994,3.36891865 C8.38383794,4.86901714 8.87137079,6.51408312 8.87137079,6.51408312 C9.74330453,10.4029939 14.0185925,16.7941698 14.9405296,18.1366949 C15.0061591,18.2028757 15.0561624,18.177664 15.0561624,18.177664 C15.1561692,18.1493008 15.1467935,18.0547567 15.1467935,18.0547567 C16.5656391,3.78491235 13.6623185,0.0031514674 13.6623185,0.0031514674 Z M16.9219131,18.1745125 C17.0156694,18.2123301 17.0656728,18.1177861 17.0656728,18.1177861 C18.0094864,16.7405948 22.2628979,10.3840851 23.1285813,6.51093165 C23.1285813,6.51093165 23.5973628,4.63580855 23.1442073,3.36576719 C23.1442073,3.36576719 22.5004139,0.945440221 19.8939884,0.305692338 C19.8939884,0.305692338 19.1439378,0.113452826 18.3438839,0 C18.3438839,0 15.4280625,3.78491235 16.8469081,18.0642111 L16.8500333,18.0642111 C16.8562837,18.1556037 16.9219131,18.1745125 16.9219131,18.1745125 Z M19.250195,20.9383494 C19.250195,20.9383494 19.1626891,20.9509553 19.1408126,21.0139846 C19.1408126,21.0139846 19.1189361,21.1022257 19.1783151,21.1463463 C20.1190035,21.8270632 22.9754459,23.8408509 24.3505386,24.2316329 C24.3505386,24.2316329 26.89446,25.1045893 29.1039838,21.2787079 L19.250195,20.9383494 Z M31.7166598,12.5113256 C31.7166598,12.5113256 23.3535964,17.0368328 19.0314302,19.9771519 C19.0314302,19.9771519 18.9533,20.0275753 18.9814269,20.1221194 C18.9814269,20.1221194 19.0220546,20.1977546 19.0814336,20.1977546 C20.6284128,20.200906 26.4881826,20.207209 26.6350675,20.1788458 C26.6350675,20.1788458 27.3913684,20.1473311 28.3289316,19.7849123 C28.3289316,19.7849123 30.413447,19.1168013 31.4947699,16.7311404 C31.4978951,16.7311404 32.4635851,14.7835336 31.7166598,12.5113256 Z M18.240752,18.9718338 C18.240752,18.9718338 18.3095066,19.0222572 18.3720108,18.9812882 C19.7814808,18.2753595 25.6443757,15.2657081 28.0757895,12.8800473 C28.0757895,12.8800473 29.6133931,11.6352176 29.6946486,9.63403585 C29.8727856,6.85759307 27.1007239,4.28599567 27.1007239,4.28599567 C27.1007239,4.28599567 21.9722534,10.5479614 18.2126251,18.8142604 L18.2157503,18.8142604 C18.2157503,18.8111089 18.1719973,18.9088044 18.240752,18.9718338 Z" id="形状"></path>
        </g>
    </g>
</svg>