<?xml version="1.0" standalone="no"?><!DOCTYPE svg PUBLIC "-//W3C//DTD SVG 1.1//EN" "http://www.w3.org/Graphics/SVG/1.1/DTD/svg11.dtd"><svg t="1626341299697" class="icon" viewBox="0 0 3426 1024" version="1.1" xmlns="http://www.w3.org/2000/svg" p-id="1460" width="214.125" height="64" xmlns:xlink="http://www.w3.org/1999/xlink"><defs><style type="text/css"></style></defs><path d="M409.403 515.584l362.181 0.433-62.228 188.337-50.806-45.686 34.698-113.664H467.889c-1.26 13.312-29.066 95.114-35.013 105.157-5.907 10.004-70.577 48.837-87.118 53.13l63.409-187.55 0.275-0.157z m2438.105 256.118h347.53c13.587 0 24.694 8.113 24.694 18.078 0 10.003-11.107 18.117-24.694 18.117h-347.53c-13.588 0-24.694-8.114-24.694-18.117 0-9.965 11.106-18.117 24.694-18.117z m93.144-229.848h267.54a18.59 18.59 0 0 1 18.905 18.077 18.59 18.59 0 0 1-18.905 18.117h-267.54a18.668 18.668 0 0 1-19.022-18.117 18.668 18.668 0 0 1 19.022-18.077z m101.613-199.917h358.675c14.021 0 25.482 8.192 25.482 18.117 0 10.004-11.46 18.117-25.482 18.117h-358.636c-14.02 0-25.482-8.113-25.482-18.117 0-9.925 11.422-18.117 25.482-18.117z m71.168-176.719h252.849a18.117 18.117 0 0 1 0 36.234h-252.534a18.078 18.078 0 1 1 0-36.234h-0.315zM2136.3 834.402c48.562 4.096 76.525 49.546 62.464 101.495-14.1 51.987-64.906 90.9-113.506 86.764-48.561-4.096-76.524-49.428-62.425-101.415 14.1-51.949 64.906-90.86 113.467-86.844z m-11.421 42.142c-26.821-2.206-54.863 19.26-62.622 47.931-7.759 28.672 7.64 53.878 34.422 56.123 26.782 2.284 54.863-19.22 62.7-48.01 7.878-28.75-7.68-53.76-34.46-56.044z m-948.776-41.118c48.562 4.096 76.525 49.546 62.425 101.495-14.1 51.987-64.985 90.9-113.27 86.764-48.286-4.096-76.524-49.428-62.425-101.415 14.1-51.949 64.906-90.86 113.467-86.844h-0.197z m-11.5 42.378c-26.86-2.205-54.863 19.22-62.621 47.931-7.799 28.672 7.6 53.84 34.382 56.045 26.782 2.205 54.902-19.18 62.74-47.931 7.877-28.751-7.68-53.8-34.5-56.045z m1106.235 48.443h517.632l29.932-71.443h-514.126l-33.398 71.443z m428.347-803.052h-146.59l-30.72 72.704h521.492l28.672-72.034-148.519-0.63 33.595-107.363h-220.672l-37.533 107.362h0.275z m-948.224 0.906l-145.21-1.024-34.147 73.177 523.264 0.787 30.483-72.783H1975.06l36.312-107.913-222.247 0.984-38.203 106.772zM235.481 256.63l90.19 0.393-50.806 154.585h210.55l92.83-280.773-37.297-1.26 87.118-124.85H420.667L235.52 256.67z m1426.55 546.382l182.823 1.693 212.716-547.84h-178.727l-216.812 546.186v-0.078z m948.539-0.67l182.744 1.694 214.45-547.289-182.075 0.788-215.12 544.807z m-245.839-9.058c0-16.7 148.401-528.463 153.64-536.419h178.609l-152.458 546.58-179.988 0.67v-10.831h0.197z m-952.005 11.343l154.23-547.053 183.454-0.67-154.27 546.974-183.414 0.67v0.079z m-686.71-608.65l64.748-190.7 223.705-0.512-47.931 139.894 215.473-40.763-33.831 80.069-205.234 39.07-43.559 116.42h204.997l-33.87 74.988-420.628 0.434 49.703-142.888-145.566 26.27 30.13-76.603 141.863-25.68z m1484.682-14.651l-51.79 0.787-29.933 71.365h58.053L2083.13 572.101l-73.255 14.572-23.434 74.398 64.197-8.271c-1.97 21.937-43.599 142.809-54.705 168.29-24.261 56.557-136.901 33.438-191.804 33.438h-450.126l-32.02 72.074h667.963c25.364-50.57 61.952-122.329 128.551-122.329h10.752c30.602 0 54.784 21.937 81.645 28.593l75.736-225.24 58.723-10.83 22.961-75.068-55.335 8.192 94.917-276.598 55.571 0.945 30.13-73.177-62.622-0.55L2486.43 4.883l-215.631-0.394-59.825 176.68-0.276 0.157z m-941.214 0.67h-61.125l-54.587 71.167h89.285c-0.551 26.94-51.24 153.68-61.834 189.755-9.058 31.114-22.213 61.047-31.822 93.972-18.196 62.385-26.034 30.484-78.967 50.019l-27.254 74.515 64.118-8.586c-2.599 29.657-55.69 201.65-96.492 201.65H878.474l-7.247 0.472-120.123-108.898 2.639-2.915h149.976l3.545 1.26 100.037-300.031H221.617L121.502 742.873h149.976c-6.695 17.84-92.396 53.68-112.797 66.284-59.471 36.588-58.093 45.292-134.46 45.017L0 926.444c63.173 0 254.11 14.06 296.802-10.437 63.882-36.982 131.545-78.375 196.884-112.482l128.079 122.92h407.276c30.208-43.875 59.235-122.33 135.68-122.33h7.286c34.895 0 56.478 20.875 75.934 45.805l3.938 1.457 87.986-243.003 64.59-9.373 28.042-80.503-67.899 12.013 93.145-277.19 58.447-0.944 30.877-71.05-63.488-0.867L1543.483 1.3h-207.636L1331.91 0l-62.425 181.957z" fill="#F16622" p-id="1461"></path></svg>