<?xml version="1.0" standalone="no"?><!DOCTYPE svg PUBLIC "-//W3C//DTD SVG 1.1//EN" "http://www.w3.org/Graphics/SVG/1.1/DTD/svg11.dtd"><svg t="1565702567207" class="icon" viewBox="0 0 1024 1024" version="1.1" xmlns="http://www.w3.org/2000/svg" p-id="16336" xmlns:xlink="http://www.w3.org/1999/xlink" width="200" height="200"><defs><style type="text/css"></style></defs><path d="M796.444444 113.777778H227.555556c-62.577778 0-113.777778 51.2-113.777778 113.777778v568.888888c0 62.577778 51.2 113.777778 113.777778 113.777778h568.888888c62.577778 0 113.777778-51.2 113.777778-113.777778V227.555556c0-62.577778-51.2-113.777778-113.777778-113.777778z m56.888889 682.666666c0 34.133333-22.755556 56.888889-56.888889 56.888889H227.555556c-34.133333 0-56.888889-22.755556-56.888889-56.888889V227.555556c0-34.133333 22.755556-56.888889 56.888889-56.888889h568.888888c34.133333 0 56.888889 22.755556 56.888889 56.888889v568.888888z" p-id="16337"></path><path d="M227.555556 398.222222h56.888888v227.555556H227.555556zM386.844444 398.222222H318.577778v227.555556h56.888889V534.755556c17.066667 0 39.822222 0 62.577777-5.688889 28.444444-11.377778 34.133333-39.822222 34.133334-62.577778 0-22.755556-5.688889-39.822222-17.066667-51.2C438.044444 398.222222 409.6 398.222222 386.844444 398.222222z m17.066667 96.711111h-28.444444v-56.888889h28.444444c11.377778 5.688889 11.377778 17.066667 11.377778 28.444445 0 5.688889 0 22.755556-11.377778 28.444444zM597.333333 534.755556L568.888889 398.222222H494.933333v227.555556h51.2l-5.688889-176.355556 39.822223 176.355556h39.822222l45.511111-176.355556-5.688889 176.355556h51.2V398.222222h-79.644444zM739.555556 398.222222h56.888888v227.555556h-56.888888z" p-id="16338"></path></svg>