<?xml version="1.0" encoding="UTF-8"?>
<svg width="88px" height="16px" viewBox="0 0 88 16" version="1.1" xmlns="http://www.w3.org/2000/svg" xmlns:xlink="http://www.w3.org/1999/xlink">
    <!-- Generator: Sketch 52.6 (67491) - http://www.bohemiancoding.com/sketch -->
    <title>openstack copy</title>
    <desc>Created with Sketch.</desc>
    <g id="Page-1" stroke="none" stroke-width="1" fill="none" fill-rule="evenodd">
        <g id="openstack-copy" fill="#F2321B" fill-rule="nonzero">
            <path d="M14.4853377,0 L1.48360069,0 C0.665372433,0 0,0.681635003 0,1.51986183 L0,5.10305124 L3.60559926,5.10305124 L3.60559926,4.51352907 C3.60559926,4.06217617 3.96526004,3.69372481 4.40584449,3.69372481 L11.5630939,3.69372481 C12.0036783,3.69372481 12.3633391,4.06217617 12.3633391,4.51352907 L12.3633391,5.10305124 L15.9690273,5.10305124 L15.9689384,1.51065055 C15.9779299,0.681635003 15.303566,0 14.4853377,0 Z M12.3723306,11.4864709 C12.3723306,11.9378238 12.0126699,12.3062752 11.5720854,12.3062752 L4.41483601,12.3062752 C3.97425156,12.3062752 3.61459078,11.9378238 3.61459078,11.4864709 L3.61459078,10.8969488 L0.00899151936,10.8969488 L0.00899151936,14.4801382 C0.00899151936,15.318365 0.674363952,16 1.49259221,16 L14.4943292,16 C15.3125575,16 15.9779299,15.318365 15.9779299,14.4801382 L15.9779299,10.8969488 L12.3723306,10.8969488 L12.3723306,11.4864709 Z M3.60559926,6.15313759 L0,6.15313759 L0,9.84686241 L3.60559926,9.84686241 L3.60559926,6.15313759 Z M15.9779299,6.15313759 L12.3723306,6.15313759 L12.3723306,9.84686241 L15.9779299,9.84686241 L15.9779299,6.15313759 Z M15.9779299,6.15313759 L86.9839583,11.8917674 C86.5613569,11.8917674 86.2196792,11.5417386 86.2196792,11.1088083 C86.2196792,10.675878 86.5613569,10.3258492 86.9839583,10.3258492 C87.4065597,10.3258492 87.7482375,10.675878 87.7482375,11.1088083 C87.7482375,11.5417386 87.4065597,11.8917674 86.9839583,11.8917674 L15.9779299,6.15313759 Z M88,11.1088083 C88,10.5284974 87.5414325,10.0771445 86.9929498,10.0771445 C86.4264841,10.0771445 85.9858997,10.54692 85.9858997,11.1088083 C85.9858997,11.6891192 86.4444672,12.1404721 86.9929498,12.1404721 C87.5414325,12.1404721 88,11.6799079 88,11.1088083 Z M87.1547972,10.9245826 C87.1547972,11.0166955 87.1008481,11.0811744 86.9929498,11.0811744 L86.8311025,11.0811744 L86.8311025,10.7772021 L86.9839583,10.7772021 C87.0918565,10.7679908 87.1547972,10.8140472 87.1547972,10.9245826 Z M87.3705936,10.9153713 C87.3705936,10.8048359 87.3436191,10.7219344 87.2806785,10.675878 C87.2177378,10.611399 87.1188311,10.5745538 87.0109329,10.5745538 L86.6422806,10.5745538 L86.6422806,11.587795 L86.840094,11.587795 L86.840094,11.2561888 L86.9749668,11.2561888 L87.1637887,11.587795 L87.3975682,11.587795 L87.1907633,11.2101324 C87.28967,11.1732873 87.3705936,11.0719632 87.3705936,10.9153713 Z M21.3099009,8.04145078 L21.3099009,7.94933794 C21.3099009,6.40184226 22.0921631,5.25964306 23.2970267,5.25964306 C24.4749157,5.25964306 25.3201185,6.42026482 25.3201185,7.96776051 L25.3201185,8.05987334 C25.3201185,9.60736903 24.5378563,10.7679908 23.3329927,10.7679908 C22.1551037,10.7679908 21.3099009,9.58894646 21.3099009,8.04145078 Z M27.0464902,8.07829591 L27.0464902,7.93091537 C27.0464902,5.47150259 25.4729744,3.68451353 23.3240012,3.68451353 C21.1660366,3.68451353 19.5745377,5.50834773 19.5745377,7.94933794 L19.5745377,8.09671848 C19.5745377,10.5561313 21.1480535,12.333909 23.2970267,12.333909 C25.4549913,12.3154865 27.0464902,10.5192861 27.0464902,8.07829591 Z M29.7169715,8.06908463 L29.7169715,7.92170409 C29.7169715,6.29130685 30.6071319,5.25964306 31.6411566,5.25964306 C32.6751814,5.25964306 33.5203842,6.27288428 33.5203842,7.93091537 L33.5203842,8.07829591 C33.5203842,9.736327 32.6931644,10.7403569 31.6411566,10.7403569 C30.6071319,10.7403569 29.7169715,9.69948187 29.7169715,8.06908463 Z M35.2737305,8.10592976 L35.2737305,7.89407024 C35.2737305,5.09383995 33.7451722,3.69372481 32.1266987,3.69372481 C30.9667927,3.69372481 30.2654542,4.3845711 29.7529376,5.17674151 L29.7529376,3.84110535 L28.0175743,3.84110535 L28.0175743,14.507772 L29.7529376,14.507772 L29.7529376,10.8877375 C30.2474711,11.6246402 30.9488096,12.3062752 32.1266987,12.3062752 C33.7631552,12.3062752 35.2737305,10.8877375 35.2737305,8.10592976 Z M39.6705834,5.17674151 C40.6776336,5.17674151 41.2620824,6.13471503 41.3519975,7.44271733 L37.9262287,7.44271733 C38.0431184,6.04260219 38.7264739,5.17674151 39.6705834,5.17674151 Z M42.7546746,11.0259067 L41.8465311,9.92976396 C41.30704,10.4640184 40.7495658,10.8048359 39.9852866,10.8048359 C38.9332788,10.8048359 38.088076,10.0587219 37.9352202,8.65860679 L43.0154286,8.65860679 C43.0334117,8.40990213 43.0334117,8.15198618 43.0334117,8.04145078 C43.0334117,5.54519286 41.8735057,3.67530225 39.6615919,3.67530225 C37.6744661,3.67530225 36.2088485,5.46229131 36.2088485,7.94933794 L36.2088485,8.07829591 C36.2088485,10.6850892 37.827322,12.3154865 39.9133544,12.3154865 C41.1272096,12.3154865 42.01737,11.8272884 42.7546746,11.0259067 Z M48.1136201,3.69372481 C47.0166547,3.69372481 46.3512823,4.3293034 45.9017063,5.07541739 L45.9017063,3.85031664 L44.1663431,3.85031664 L44.1663431,12.1588946 L45.9017063,12.1588946 L45.9017063,7.12953368 C45.9017063,5.98733448 46.5221212,5.2964882 47.4302646,5.2964882 C48.3473996,5.2964882 48.8778993,5.93206678 48.8778993,7.10189983 L48.8778993,12.1681059 L50.6132625,12.1681059 L50.6132625,6.59527922 C50.5952795,4.81750144 49.669153,3.69372481 48.1136201,3.69372481 Z M57.5726985,9.78238342 L57.5726985,9.76396085 C57.5726985,8.46516983 56.6195974,7.87564767 55.3787678,7.2861255 C54.4256667,6.84398388 53.7872688,6.56764537 53.7872688,6.01496834 L53.7872688,5.98733448 C53.7872688,5.53598158 54.1649126,5.17674151 54.812302,5.17674151 C55.4506999,5.17674151 56.1340554,5.48992516 56.7364872,5.91364421 L57.4648002,4.6148532 C56.7005211,4.0437536 55.729437,3.72135866 54.8392766,3.72135866 C53.3287013,3.72135866 52.1687953,4.66090961 52.1687953,6.15313759 L52.1687953,6.18077145 C52.1687953,7.54404145 53.1758455,8.10592976 54.3807091,8.64018423 C55.3517932,9.06390328 55.972208,9.33103051 55.972208,9.92976396 L55.972208,9.94818653 C55.972208,10.4640184 55.5585981,10.8601036 54.8392766,10.8601036 C54.119955,10.8601036 53.3466844,10.5008636 52.6093798,9.88370754 L51.800143,11.1548647 C52.7352611,11.9562464 53.8502095,12.3154865 54.812302,12.3154865 C56.3588434,12.3062752 57.5726985,11.4127807 57.5726985,9.78238342 Z M62.913661,11.91019 L62.913661,10.4548071 C62.6259324,10.611399 62.3112292,10.6850892 61.978543,10.6850892 C61.4210688,10.6850892 61.1063656,10.417962 61.1063656,9.77317214 L61.1063656,5.36096718 L62.9226525,5.36096718 L62.9226525,3.84110535 L61.1063656,3.84110535 L61.1063656,1.5935521 L59.3710024,1.5935521 L59.3710024,3.84110535 L58.4808419,3.84110535 L58.759579,5.36096718 L59.3620108,5.36096718 L59.3620108,10.1324122 C59.3620108,11.7443869 60.2701543,12.2694301 61.4570348,12.2694301 C62.0594666,12.2694301 62.5180341,12.1312608 62.913661,11.91019 Z M68.6862164,9.34945308 C68.6862164,10.289004 67.9219373,10.9798503 66.9238786,10.9614277 C66.1775825,10.9430052 65.6021253,10.4732297 65.6021253,9.64421416 L65.6021253,9.61658031 C65.6021253,8.74150835 66.186574,8.21646517 67.1756412,8.21646517 C67.7600899,8.21646517 68.2726065,8.34542314 68.6682334,8.51122625 L68.6682334,9.3402418 L68.6862164,9.3402418 L68.6862164,9.34945308 Z M69.5314192,4.59643063 C69.0099111,4.0437536 68.2006744,3.74899252 67.1486666,3.74899252 C66.0696843,3.74899252 65.251456,4.01611975 64.4781853,4.40299367 L64.9727189,5.81232009 C65.5122101,5.56361543 66.1506079,5.30569948 66.9328701,5.30569948 C68.0298355,5.30569948 68.6772249,5.88601036 68.6772249,7.00057571 L68.6772249,7.34139321 C68.1197507,7.14795625 67.5802595,7.00978699 66.8159804,7.00978699 C65.0986002,7.00978699 63.9386942,7.88485895 63.9386942,9.67184801 L63.9386942,9.75474957 C63.9386942,11.3667242 65.0716256,12.2970639 66.4203535,12.2970639 C67.4723613,12.2970639 68.2006744,11.8272884 68.6682334,11.1272309 L68.6682334,12.1312608 L70.3676305,12.1312608 L70.3676305,6.98215314 C70.340656,5.95970063 70.0709104,5.14910766 69.5314192,4.59643063 Z M77.6957188,11.0627519 L76.7516093,9.88370754 C76.2750588,10.3719056 75.7985082,10.7311457 75.0971697,10.7311457 C73.9192807,10.7311457 73.0920609,9.65342545 73.0920609,8.04145078 L73.0920609,7.95854922 C73.0920609,6.39263097 73.9192807,5.28727691 75.0522121,5.28727691 C75.7805252,5.28727691 76.2570757,5.66493955 76.6886686,6.11629246 L77.6597527,4.81750144 C76.9853888,4.12665515 76.2211096,3.69372481 75.0612036,3.69372481 C72.9302135,3.69372481 71.3566977,5.48071387 71.3566977,7.95854922 L71.3566977,8.11514105 C71.3566977,10.5929764 72.885256,12.333909 74.998263,12.333909 C76.2390927,12.3154865 77.0573209,11.7996546 77.6957188,11.0627519 Z M82.9827322,7.82959125 L81.7688771,9.1652274 L83.3963421,12.1404721 L85.4014509,12.1404721 L82.9827322,7.82959125 Z M82.9827322,7.82959125 L83.2704608,3.84110535 L80.5010729,7.48877375 L80.5010729,0.829015544 L78.7657096,0.829015544 L78.7657096,12.1404721 L80.5010729,12.1404721 L80.5010729,9.74553828 L85.3205272,3.84110535 L83.2704608,3.84110535 L82.9827322,7.82959125 Z" id="形状"></path>
        </g>
    </g>
</svg>