<?xml version="1.0" encoding="UTF-8"?>
<svg width="80px" height="20px" viewBox="0 0 80 20" version="1.1" xmlns="http://www.w3.org/2000/svg" xmlns:xlink="http://www.w3.org/1999/xlink">
    <!-- Generator: Sketch 52.6 (67491) - http://www.bohemiancoding.com/sketch -->
    <title>腾讯云 copy 2</title>
    <desc>Created with Sketch.</desc>
    <g id="Page-1" stroke="none" stroke-width="1" fill="none" fill-rule="evenodd">
        <g id="腾讯云-copy-2" fill-rule="nonzero">
            <path d="M62.0645174,1.84453282 L52.7418433,1.84453282 L52.7418433,3.29027323 L55.581225,3.29027323 L55.581225,8.57469438 L52.2212846,8.57469438 L52.2212846,10.0204348 L55.581225,10.0204348 L55.581225,18.6948772 L57.1428903,18.6948772 L57.1428903,10.0204348 L60.6921229,10.0204348 L60.6921229,18.3957484 L63.5315047,18.3957484 L63.5315047,16.950008 L62.3011017,16.950008 L62.3011017,1.8445216 L62.0644854,1.8445216 L62.0645174,1.84453282 Z M57.0482656,8.37529391 L57.0482656,3.29028445 L60.6921549,3.29028445 L60.6921549,8.5747056 L57.1429223,8.5747056 L57.1429223,8.37529323 L57.0482758,8.37529323 L57.0482656,8.37529391 Z M36.1314119,14.656796 L43.5611648,14.656796 L43.5611648,16.1025364 L36.1314119,16.1025364 L36.1314119,14.656796 Z M31.0205034,12.0145742 C31.0205034,14.5570789 30.9258569,16.6509129 30.4053008,18.2960763 C30.4053008,18.3957826 30.4053008,18.3957826 30.4999473,18.3957826 L31.8723205,18.3957826 C32.3928748,15.9529725 32.3928748,14.0087028 32.3928748,12.5629736 L34.2858024,12.5629736 L34.2858024,16.9500534 L33.0080753,16.9500534 C32.9134288,16.9500534 32.9134288,16.9500534 32.9134288,17.0497597 L33.3393371,18.3459402 L35.752817,18.3459402 L35.752817,1.84457187 L31.1151494,1.84457187 L31.0205029,12.0146132 L31.0205034,12.0145742 Z M32.4875226,11.316631 L32.4875226,8.02632681 L34.3804502,8.02632681 L34.3804502,11.56589 L32.4875226,11.56589 L32.4875226,11.3166243 L32.4875226,11.316631 Z M34.3804502,3.29027098 L34.3804502,6.68029225 L32.4875226,6.68029225 L32.4875226,3.29027098 L34.3804502,3.29027098 Z M44.0817086,7.72719804 L45.8799901,7.72719804 L45.8799901,6.38116348 L40.5324718,6.38116348 C40.6271182,5.93248605 40.7217645,5.38410052 41.0530261,5.08498297 L45.643376,5.08498297 L45.643376,3.78880246 L44.412973,3.78880246 C44.5076195,3.04100524 44.9335274,2.04394452 44.9335274,2.04394452 C44.9335274,1.94423822 44.9335274,1.94423822 44.8388809,1.94423822 L43.7031239,1.94423822 L43.1825695,3.83865606 L41.5262582,3.83865606 C41.6209046,3.09085884 41.7155509,2.19350396 41.9521665,1.39584596 C41.9521665,1.29613966 41.9521665,1.29613966 41.85752,1.29613966 L40.627117,1.29613966 C40.5324705,2.29320263 40.4378242,3.1905575 40.1065626,3.93836146 L39.1600977,3.93836146 L38.6395433,2.04394362 L37.5037863,2.04394362 C37.4091399,2.04394362 37.4091399,2.04394362 37.4091399,2.14364992 C37.4091399,2.24335621 37.5984326,3.14071288 37.9296943,3.88850786 L36.6992912,3.88850786 L36.6992912,5.18468837 L39.6333297,5.18468837 C39.5386832,5.63336581 39.444037,6.18175134 39.1127753,6.48086888 L36.2733935,6.48086888 L36.2733935,7.77704939 L38.4502636,7.77704939 C37.5037987,9.0732299 36.651982,9.67146723 36.2733935,9.97058702 L36.2733935,11.4163274 C36.2733935,11.5160337 36.36804,11.5160337 36.4626863,11.4163274 C36.8885946,11.3166211 37.4091512,10.8679441 37.6930893,10.4192645 L42.8039978,10.4192645 L42.8039978,12.4133881 L38.828842,12.4133881 L38.9234885,11.2169135 C38.9234885,11.1172072 38.9234885,11.1172072 38.828842,11.1172072 L37.598439,11.1172072 L37.5037925,13.5600173 C37.5037925,13.6597236 37.5037925,13.6597236 37.598439,13.6597236 L44.5076333,13.6597236 L44.5076333,17.1992868 L41.4789381,17.1992868 C41.3842916,17.1992868 41.3842916,17.1992868 41.3842916,17.2989931 L41.8102,18.5951736 L46.2112577,18.5951736 L46.2112577,12.4133886 L44.5549463,12.4133886 L44.5549463,9.7711668 C45.1701489,10.3195501 45.7853494,10.8679356 46.4478739,11.0673473 C46.5425204,11.1670536 46.6371667,11.1670536 46.6371667,11.0673473 L46.6371667,9.6216069 C45.832672,9.47204768 44.9335312,8.92366372 44.0817124,7.72718906 L44.0817086,7.72719804 Z M42.4253972,7.72719804 C42.61469,8.27558132 43.0405998,8.82396685 43.4665081,9.17293844 L38.9707937,9.17293844 C39.396702,8.72426101 39.5859962,8.17587548 40.0119046,7.72719804 L42.4253844,7.72719804 L42.4253972,7.72719804 Z M53.5936748,13.659724 L51.0855383,15.6538477 L51.0855383,6.38117022 L47.7255978,6.38117022 L47.7255978,8.02632232 L49.6185254,8.02632232 L49.6185254,16.9500237 C49.097971,17.3987012 48.6720606,17.498407 48.6720606,17.498407 L49.6185254,18.6948817 L53.6883166,15.5042721 L53.5936701,13.6597061 C53.8776083,13.6597061 53.7829629,13.5599998 53.5936701,13.6597061 L53.5936748,13.659724 Z M49.8078112,4.9354343 L51.2748304,4.9354343 C51.4641232,4.9354343 51.4641232,4.83572801 51.4641232,4.83572801 L49.3819013,1.44570674 L47.820236,1.44570674 L47.7255895,1.54541303 C47.820236,1.64511933 49.8078114,4.9354343 49.8078114,4.9354343 L49.8078112,4.9354343 Z M66.5602169,2.19351788 L78.2490532,2.19351788 L78.2490532,3.83866998 L66.5602169,3.83866998 L66.5602169,2.19351788 Z M70.8193003,9.77118475 L80,9.77118475 L80,8.12603265 L64.8565666,8.12603265 L64.8565666,9.77118475 L69.0210145,9.77118475 C68.0745496,12.2139949 66.086976,18.1464984 65.9923193,18.2462155 C65.9923193,18.3459218 65.9923193,18.3459218 66.0869658,18.3459218 L79.1481646,18.3459218 C79.2428111,18.3459218 79.2428111,18.2462155 79.2428111,18.2462155 L77.3498835,12.8620773 L75.7882182,12.8620773 C75.6935717,12.8620773 75.6935717,12.9617836 75.6935717,12.9617836 C75.6935717,13.0614898 77.0659449,16.8004755 77.0659449,16.8004755 L68.5004392,16.8004755 L70.8192837,9.77119642 L70.8193003,9.77118475 Z" id="形状" fill="#000000"></path>
            <path d="M24.3479628,9.0233965 L24.347977,9.02340099 C26.6194874,11.4661887 26.6194874,15.5042923 24.2060075,17.9471024 C23.0229371,19.043869 21.6978816,19.5922541 20.3255084,19.6919604 C19.7103059,19.7916667 19.0951033,19.7916667 18.2432866,19.7916667 L6.83839916,19.7916667 C6.31784477,19.7916667 5.70264218,19.7916667 5.18208779,19.6919604 C5.18208779,19.6919604 14.173489,10.4691369 14.5993973,10.0204595 C15.1199517,9.37236809 15.7351543,8.92369066 16.1610626,8.47501322 C17.3441331,7.5776561 18.5745425,7.02927282 20.0415617,7.02927282 C21.7451908,7.02927282 23.3068519,7.82692184 24.3479628,9.0233965 Z M22.5497034,16.2022288 L22.5496813,16.20224 C24.0167014,14.7564884 24.0167014,12.2139881 22.502358,10.8181018 C21.7925136,10.1700104 20.940697,9.72133295 19.899586,9.72133295 C19.1897417,9.72133295 18.337925,9.8210388 17.2968141,10.8181018 C16.7762597,11.2667792 16.2557038,11.8151641 16.0664111,12.0145764 C15.8771189,12.2139881 13.5582958,14.5570812 10.8608671,17.2989976 L19.8522747,17.2989976 C21.3193004,17.2989976 22.1237951,16.6509062 22.5497034,16.2022288 Z" id="合并形状" fill="#069EFB"></path>
            <path d="M9.67777029,8.37530513 C8.54201332,7.47795025 7.35892586,7.07912462 6.03388102,7.07912462 C4.37756966,7.07912462 2.8158937,7.82692184 1.72747999,9.07324831 C-0.591364446,11.615753 -0.591364446,15.5541621 1.82212648,18.0966668 C2.86323739,19.0937298 3.90434831,19.6421131 5.18206691,19.7418189 L7.59554676,17.2990088 L6.22317357,17.2990088 C4.85080038,17.1993025 4.04630355,16.7506255 3.52574489,16.20224 C2.05872565,14.6567937 2.05872565,12.2638534 3.43109841,10.7184071 C4.14094705,9.97060991 4.99276372,9.62163832 6.03387037,9.62163832 C6.64907295,9.62163832 7.59553568,9.72134462 8.54200693,10.7184071 C8.96791526,11.1670846 10.1036722,12.0145876 10.5295806,12.4632651 L10.6242271,12.4632651 L12.1858924,10.818113 L12.1858924,10.7184067 C11.4760437,9.92075766 10.3402867,8.9236947 9.6777558,8.37531366 L9.67777029,8.37530513 Z" id="路径" fill="#0AC4D8"></path>
            <path d="M20.6567413,5.63339723 C19.5209843,2.29324572 16.4922934,0 13.0376962,0 C8.96790503,-3.18943234e-16 5.7026,3.19060957 5.08740594,7.17884348 C5.41866821,7.17884348 5.70260852,7.07913719 6.12851686,7.07913719 C6.55442519,7.07913719 7.07498171,7.17884348 7.50089004,7.17884348 C8.02144444,4.43692706 10.3402718,2.44278766 13.0377005,2.44278766 C15.3565449,2.44278766 17.3441015,3.88852806 18.2432444,5.98235087 C18.2432444,5.98235087 18.3378909,6.08205716 18.3378909,5.98235087 C19.0950615,5.83279165 19.9468803,5.63337928 20.6567353,5.63337928 C20.6567353,5.73308557 20.6567353,5.73308557 20.6567353,5.63337928 L20.6567413,5.63339723 Z" id="路径" fill="#2858F7"></path>
        </g>
    </g>
</svg>