<?xml version="1.0" encoding="UTF-8"?>
<svg width="76px" height="22px" viewBox="0 0 76 22" version="1.1" xmlns="http://www.w3.org/2000/svg" xmlns:xlink="http://www.w3.org/1999/xlink">
    <!-- Generator: Sketch 52.6 (67491) - http://www.bohemiancoding.com/sketch -->
    <title>ucloud copy</title>
    <desc>Created with Sketch.</desc>
    <g id="Page-1" stroke="none" stroke-width="1" fill="none" fill-rule="evenodd">
        <g id="ucloud-copy" fill="#3562F0" fill-rule="nonzero">
            <path d="M28.0405238,7.13529511 L28.0410451,10.4043322 L26.7041854,10.4046003 C26.0581678,10.4046897 25.5189201,10.4843132 25.0861,10.6437393 C24.6535398,10.8031653 24.2658949,11.0627681 23.9236894,11.421387 C23.2713299,12.1059177 22.9453637,12.9496961 22.945542,13.9528089 C22.9457158,14.8962236 23.2590808,15.7065839 23.8856379,16.3844137 C24.2538224,16.7828888 24.6624048,17.0637605 25.1112978,17.2263146 C25.5602783,17.3890469 26.1432198,17.4703685 26.8601351,17.4701895 L28.0420978,17.4700107 L28.0426191,20.7387771 L26.2598141,20.7389559 C24.658148,20.7393133 23.3437015,20.4240363 22.3166442,19.7932182 C21.0246957,18.9892076 20.1137878,17.8334604 19.5837591,16.3252632 C19.312442,15.5612886 19.1766539,14.7806935 19.1764799,13.9833801 C19.1763061,12.9403231 19.4021863,11.9271064 19.8541203,10.9437474 C20.1964159,10.1930879 20.6485232,9.5350965 21.210269,8.97022663 C22.0304741,8.1528119 23.0058427,7.61787665 24.1359411,7.36524272 C24.8011584,7.2123402 25.5537768,7.13575533 26.3933532,7.13566626 L28.0405417,7.13530864 L28.0405238,7.13529511 Z M32.8557691,7.13449081 L32.8574198,17.4691738 L37.3625146,17.4685483 L37.3630359,20.737044 L29.2248368,20.7384738 L29.2226649,7.13506805 L32.8557691,7.13444252 L32.8557691,7.13449081 Z M44.4436242,6.86362783 C45.6123768,6.86344907 46.7106807,7.12215821 47.7375682,7.64029225 C49.1263857,8.34439329 50.1212156,9.41390836 50.7221428,10.8488279 C51.1033591,11.7654413 51.2940543,12.8151964 51.2942275,13.9981108 C51.294575,16.0110432 50.6651514,17.685637 49.4058684,19.0212722 C48.1595272,20.3434151 46.5510948,21.0048009 44.5812418,21.0050716 C42.617476,21.0053397 40.9962664,20.3748745 39.7174347,19.1122515 C38.3605899,17.7706255 37.6823458,16.0633183 37.6819977,13.9902512 C37.6818239,12.7081399 37.9592221,11.5222826 38.5146268,10.432391 C39.13432,9.20970707 40.0611259,8.27272853 41.2946899,7.62126327 C42.2247084,7.13637275 43.2741789,6.88374057 44.4436361,6.86363307 L44.4436242,6.86362783 Z M44.4631715,9.99280763 C43.4685199,9.99298639 42.7063453,10.3686741 42.1769195,11.1193337 C41.6925806,11.8103878 41.4503674,12.7373645 41.4505414,13.9002631 C41.4506283,15.122589 41.7321101,16.1092577 42.2940299,16.8596492 C42.8046924,17.5373873 43.5440132,17.8760796 44.5131274,17.8758962 C45.5593038,17.8758069 46.3407587,17.4670544 46.8572376,16.6498152 C47.3029164,15.9384754 47.5256692,15.0516254 47.5253219,13.9887273 C47.5252351,12.693211 47.2279418,11.6897402 46.633618,10.9791183 C46.1035817,10.3346236 45.380069,10.0058546 44.4631673,9.99280763 L44.4631715,9.99280763 Z M63.0357802,7.12948337 L63.0377784,20.7328891 L56.8562222,20.7339615 C55.6614058,20.7276166 54.7892455,20.5350366 54.240361,20.1564001 C53.6656699,19.7777636 53.2504806,19.2767006 52.9951575,18.651862 C52.7400864,18.0273849 52.6124648,17.2004984 52.6122907,16.170663 L52.6109007,7.13133037 L56.2440983,7.13070484 L56.2454015,15.751138 C56.2454884,16.4555071 56.3426169,16.9172502 56.5363523,17.136638 C56.729827,17.3558485 57.1403205,17.4653197 57.7666137,17.4652307 L59.4040728,17.4649626 L59.4024221,7.13027955 L63.0357896,7.12956467 L63.0357802,7.12948337 Z M64.6247625,7.12921527 L68.9941558,7.12850039 C70.8673096,7.12823229 72.3785335,7.60972659 73.5285235,8.57306974 C74.4198794,9.31693777 75.0821456,10.2435591 75.5149657,11.352925 C75.8380615,12.1900001 75.9998259,13.0604069 75.9999999,13.96379 C76.0002605,15.6779787 75.4515458,17.1764388 74.3537708,18.4589867 C73.5784811,19.3559337 72.7230016,19.9674547 71.7864714,20.2930083 C70.9597503,20.5854083 69.978044,20.7316083 68.8411708,20.7317865 L64.6267678,20.7325014 L64.6255515,12.3613924 L68.2586558,12.3608562 L68.2594377,17.5330794 C68.9501092,17.5130618 69.4927469,17.4430005 69.8868194,17.3237886 C70.2808061,17.2038615 70.6491646,16.9976988 70.9913719,16.7054769 C71.3724142,16.3865358 71.6743117,15.9760863 71.8971519,15.4743919 C72.1198173,14.9727901 72.2310205,14.4561712 72.230933,13.9249055 C72.2308462,13.3930984 72.1163424,12.8767485 71.8867264,12.3750611 C71.6574577,11.8736384 71.3458308,11.4600633 70.9516734,11.1345097 C70.6287517,10.8687406 70.2620436,10.6795564 69.8522488,10.5665108 C69.4415813,10.4536434 68.9075514,10.3974332 68.2485028,10.3976123 L64.6252128,10.3982378 L64.6247783,7.12920068 L64.6247625,7.12921527 Z M17.0345061,1.41285409 L17.036678,15.4605896 C17.0371124,17.7794091 15.8663548,18.9944081 15.1145294,19.7409571 C13.6781943,21.1673009 11.6250306,21.9995458 9.17770101,21.9999999 C6.74080542,22.0003574 4.48903908,20.8522093 3.53113147,19.9545375 C2.67443961,19.1519573 1.3677188,17.799879 1.36728582,15.2728323 L1.36589578,6.85570098 L3.10378114,6.85534355 L3.09978481,5.04106707 L4.85252737,5.04839493 L4.85226674,3.27897934 L6.60683461,3.26414486 L6.60874593,15.2571174 C6.60891972,16.4957912 8.26166506,17.1150933 9.20063187,17.1149099 C10.1078892,17.1147311 11.8009482,16.4348479 11.8106776,15.3191384 L11.7986886,1.4136618 L17.0345031,1.41285759 L17.0345061,1.41285409 Z M1.43495122,5.11235309 L2.57381958,5.11235309 L2.57381958,6.26872816 L1.43495122,6.26872816 L1.43495122,5.11235309 Z M3.16875297,3.33195151 L4.30753643,3.33195151 L4.30753643,4.48823925 L3.16875297,4.48823925 L3.16875297,3.33195151 Z M4.92123235,1.48568644 L6.06010071,1.48568644 L6.06010071,2.64197418 L4.92123235,2.64197418 L4.92123235,1.48568644 Z M3.27691341,1.70391364 L4.2656561,1.70391364 L4.2656561,2.70774249 L3.27691341,2.70774249 L3.27691341,1.70391364 Z M1.52833936,3.49959778 L2.51708204,3.49959778 L2.51708204,4.50351396 L1.52833936,4.50351396 L1.52833936,3.49959778 Z M0,3.61139281 L0.79170984,3.61139281 L0.79170984,4.41513531 L0,4.41513531 L0,3.61139281 Z M1.74492343,1.77522297 L2.53663327,1.77522297 L2.53663327,2.57896547 L1.74492343,2.57896547 L1.74492343,1.77522297 Z M3.48011752,0 L4.27174076,0 L4.27174076,0.803742503 L3.48011752,0.803742503 L3.48011752,0 Z M3.48011752,0 L4.27174076,0 L4.27174076,0.803742503 L3.48011752,0.803742503 L3.48011752,0 Z M0.0784460373,1.89729138 L0.695706832,1.89729138 L0.695706832,2.5239133 L0.0784460373,2.5239133 L0.0784460373,1.89729138 Z M1.84326114,0.0916866683 L2.46060853,0.0916866683 L2.46060853,0.718308588 L1.84326114,0.718308588 L1.84326114,0.0916866683 Z M0.176877137,0.173186938 L0.579464917,0.173186938 L0.579464917,0.581849762 L0.176877137,0.581849762 L0.176877137,0.173186938 Z" id="形状"></path>
        </g>
    </g>
</svg>