<?xml version="1.0" encoding="UTF-8"?>
<svg width="84px" height="13px" viewBox="0 0 84 13" version="1.1" xmlns="http://www.w3.org/2000/svg" xmlns:xlink="http://www.w3.org/1999/xlink">
    <!-- Generator: Sketch 52.6 (67491) - http://www.bohemiancoding.com/sketch -->
    <title>icon-vmware copy</title>
    <desc>Created with Sketch.</desc>
    <g id="Page-1" stroke="none" stroke-width="1" fill="none" fill-rule="evenodd">
        <g id="icon-vmware-copy" fill="#000000" fill-rule="nonzero">
            <path d="M32.6796215,3.40457809 C32.6796215,3.40457809 32.2657956,0.123804686 28.4776961,0.0309511715 C28.4776961,0.0309511715 26.2812402,-0.247604294 24.2757707,1.70228904 C24.2757707,1.70228904 23.1934581,0.0309511715 20.6468441,0.0309511715 C18.1320555,0.0309511715 16.604085,1.67133787 16.604085,1.67133787 C16.604085,1.67133787 15.4262739,0 13.1661449,0 C10.9060224,0 9.85553783,1.45467967 9.34621869,2.35225095 L6.67226381,8.57333487 L3.42532326,1.08327831 C3.42532326,1.08327831 2.72500323,-0.371401363 1.13336752,0.123808495 C-0.521936016,0.649969524 0.114720096,2.35225476 0.146553358,2.44510827 L4.6667983,11.9160144 C4.6667983,11.9160144 5.1442894,12.9373866 6.6404214,12.9373866 C8.13655863,12.9373866 8.55039104,11.9160144 8.99604366,11.2041464 C9.4417015,10.4922808 12.8159699,3.21887106 12.8159699,3.21887106 C12.8159699,3.21887107 13.5162899,2.87841325 13.7709521,3.49742653 L13.7709521,11.327946 C13.7709521,11.327946 13.993781,12.9373815 15.4262556,12.9373815 C16.8587263,12.9373815 17.3362253,12.0398128 17.4953785,11.327946 C17.6545422,10.6160805 17.4953785,4.64260718 17.4953785,4.64260718 C17.4953785,4.64260716 17.7500407,3.09507399 19.5008349,3.09507399 C21.2516382,3.09507399 21.3789713,4.73546069 21.3789713,4.73546069 L21.3789713,11.2660436 C21.3789713,11.2660436 21.4744695,12.9064303 23.2889409,12.9064303 C25.1034108,12.9064303 25.1034108,11.2969948 25.1034108,11.2969948 L25.1034108,4.70450952 C25.1034108,4.70450952 25.2625745,3.09507399 27.1407004,3.09507399 C27.1407004,3.09507399 28.6686709,3.002222 29.0188368,4.73546069 L29.0188368,11.3588971 C29.0188368,11.3588971 29.273499,12.9064303 30.8969731,12.9064303 C32.5204434,12.9064303 32.6159432,11.6065065 32.6796097,11.2350925 C32.7432752,10.8636847 32.6796097,3.40457301 32.6796097,3.40457301 L32.6796215,3.40457809 Z M38.6005039,9.90420986 L35.3535633,0.835668936 C35.3535633,0.835668936 35.0670692,-0.030949902 34.112087,0.278556735 C34.112087,0.278556735 33.4117669,0.495211128 33.5709306,1.36182997 L37.6136897,12.318367 C37.6136897,12.318367 37.8046867,12.844528 38.5050067,12.844528 C38.5050067,12.844528 39.0779963,12.93738 39.4599889,12.318367 L42.7069294,3.28077721 L45.7947037,11.7922097 C45.7947037,11.7922097 46.1766963,12.875483 46.9406816,12.875483 C47.7046668,12.875483 48.0866594,11.8541108 48.1503259,11.6993575 C48.2139914,11.5446042 51.9384189,1.45468475 51.9384189,1.45468475 C51.9384189,1.45468474 52.2567463,0.711869328 51.524593,0.402362691 C50.7924397,0.0619048822 50.3149486,0.588067181 50.1876221,0.990424794 C50.0284584,1.39278368 46.9406816,9.87325868 46.9406816,9.87325868 L43.693741,0.773766593 C43.693741,0.773766593 43.4072469,0.216654392 42.7069268,0.247605564 C42.0066068,0.278556228 41.7837779,0.89756874 41.6882794,1.23802655 C41.5927812,1.57848436 38.6005052,9.90421493 38.6005052,9.90421493 L38.6005039,9.90420986 Z M56.4268698,11.4826942 C54.867066,11.3588916 53.1799292,9.71850283 54.0394142,8.07811612 C54.898898,6.43772942 56.9680222,6.40677825 58.2731729,6.4686806 C59.5783144,6.53058192 61.2972806,6.99484162 61.2972806,6.99484162 C61.6474412,11.2969783 58.0185068,11.60649 56.4268698,11.4826853 L56.4268698,11.4826942 Z M59.8648099,0.557108393 C56.5223695,-0.154757127 54.134914,0.928516103 53.8484277,1.05231952 C53.5619336,1.17612217 53.2117729,1.67133279 53.5619336,2.19749382 C53.9120942,2.72365485 54.580581,2.41414822 54.580581,2.41414822 C56.5542041,1.64038162 59.0371594,1.73323387 60.3104769,2.75460603 C61.5837865,3.77597818 61.2336258,5.66396537 61.2336258,5.66396537 C58.5278377,5.01400219 57.2545333,5.10685317 57.2545333,5.10685317 C53.3709405,5.10685317 51.9384698,7.27339709 52.0021363,9.25424668 C52.0658018,11.2660347 54.166759,13.2778355 57.09538,12.9683238 C60.0239879,12.6588172 61.3291386,10.832731 61.3291386,10.832731 C61.3291386,10.832731 61.2973059,11.9779053 61.3291386,12.0398064 C61.3609714,12.1326584 61.3291386,12.8445229 62.1567891,12.8445229 C62.9844396,12.8445229 63.0799381,12.0707563 63.0799381,12.0707563 L63.0799381,4.61165093 C62.8889411,1.26897518 59.8648308,0.557110932 59.8648308,0.557110932 L59.8648099,0.557108393 Z M65.3400396,1.05231952 L65.3400396,12.0707589 C65.3400396,12.0707589 65.4673706,12.8445254 66.2950218,12.8445254 C67.1226723,12.8445255 67.2181708,12.10171 67.2181708,12.039809 L67.2181708,6.6234428 C67.2181708,6.6234428 67.6319967,2.50700046 71.7065825,2.10464793 C71.7065825,2.10464793 72.4387358,2.07369726 72.4387358,1.23802909 C72.4387358,0.402361421 71.7384157,0.247608103 71.5155868,0.216656931 C71.2927579,0.216656931 68.8734652,0.340459586 67.1863414,3.21886979 L67.1863414,1.0213747 C67.1863414,1.0213747 67.122676,0.247608103 66.2313592,0.247608103 C65.3400422,0.247608103 65.3400422,1.0523246 65.3400422,1.0523246 L65.3400396,1.05231952 Z M74.189543,5.88062611 C74.189543,5.88062611 74.5078704,1.70228143 78.3596351,1.70228143 C81.893062,1.70228143 82.1795613,5.88062611 82.1795613,5.88062611 L74.189543,5.88062611 Z M78.2004688,0.247601755 C78.2004688,0.247601755 74.1577097,-0.123805956 72.6297392,4.64259194 C72.6297392,4.64259194 72.0567497,7.2115011 72.8207362,9.16138682 C72.8207362,9.16138682 74.1258778,12.7207081 78.3914658,12.9064151 C78.3914658,12.9064151 81.5429065,13.1849706 83.3892096,10.8636759 C83.3892096,10.8636759 83.6120386,10.5232181 83.3573769,10.0899093 C83.1027147,9.65660048 82.5297264,9.65660048 82.1795658,9.90420478 C81.8294051,10.1518103 80.8744242,11.4826891 78.4551393,11.3898356 C76.1631836,11.2969836 74.3168805,9.50183955 74.253214,7.27339328 L83.2937038,7.27339328 C83.2937038,7.27339328 83.9303586,7.27339328 83.9940239,6.56152776 C84.0576893,5.84966224 83.7075297,0.247590329 78.2004615,0.247590329 L78.2004688,0.247601755 Z" id="形状"></path>
        </g>
    </g>
</svg>