<?xml version="1.0" standalone="no"?><!DOCTYPE svg PUBLIC "-//W3C//DTD SVG 1.1//EN" "http://www.w3.org/Graphics/SVG/1.1/DTD/svg11.dtd"><svg t="1565701560881" class="icon" viewBox="0 0 3072 1024" version="1.1" xmlns="http://www.w3.org/2000/svg" p-id="8527" xmlns:xlink="http://www.w3.org/1999/xlink" width="600" height="200"><defs><style type="text/css"></style></defs><path d="M0 976.091429c20.736-35.328 41.691429-70.546286 62.208-105.984 127.378286-219.867429 254.646857-439.808 381.915429-659.748572 2.377143-4.096 4.498286-8.338286 7.826285-14.482286h-72.886857c3.291429-6.253714 5.339429-10.496 7.68-14.628571 32.475429-56.100571 64.987429-112.237714 97.426286-168.374857 2.413714-4.169143 4.388571-8.594286 6.582857-12.873143h74.678857c36.571429 62.976 73.289143 125.805714 109.312 189.074286 2.230857 3.949714 0.731429 11.849143-1.828571 16.347428-47.616 83.053714-95.634286 165.888-143.616 248.758857l-181.613715 313.965715c-2.194286 3.803429-4.169143 7.68-7.424 13.677714h72.667429c-2.852571 5.741714-4.388571 9.289143-6.290286 12.580571-33.316571 57.709714-66.889143 115.273143-99.876571 173.165715-4.571429 8.009143-9.728 10.642286-18.834286 10.605714-91.136-0.329143-182.235429-0.219429-273.371428-0.182857-4.827429 0-9.691429 0.475429-14.555429 0.731428v-2.669714z m376.795429 0.694857l8.740571-15.286857c32.438857-56.137143 65.097143-112.201143 97.170286-168.557715 4.534857-7.936 9.508571-10.788571 18.724571-10.752 91.099429 0.365714 182.235429 0.219429 273.334857 0.219429h17.481143c-13.056-22.381714-24.612571-42.971429-37.229714-62.866286-1.645714-2.633143-8.813714-2.450286-13.421714-2.486857-90.697143-0.146286-181.394286-0.109714-272.054858-0.146286h-16.713142l263.899428-456.228571 150.418286 261.12c-21.650286 0-40.923429 0.731429-60.086857-0.292572-11.337143-0.585143-17.664 3.181714-22.820572 13.129143-8.777143 17.188571-19.053714 33.609143-29.622857 51.931429 5.302857 0.256 9.033143 0.621714 12.8 0.621714 42.642286 0.036571 85.321143-0.219429 128 0.365714 4.937143 0.073143 12.068571 3.510857 14.409143 7.533715 72.886857 125.037714 145.334857 250.331429 217.782857 375.588571 0.914286 1.536 1.462857 3.218286 2.706286 6.107429H376.795429z m955.501714-360.228572h142.701714c9.435429 0 13.641143-5.010286 13.531429-14.08v-22.893714h67.913143c0 26.331429 0.987429 52.553143-0.402286 78.665143-0.621714 11.702857-9.874286 19.492571-22.016 21.796571a101.302857 101.302857 0 0 1-18.468572 2.084572c-89.782857 0.146286-179.565714 0.109714-269.312 0.073143-3.437714 0-6.912-0.365714-10.971428-0.585143-1.426286-26.038857-2.194286-49.188571 15.177143-72.521143 55.844571-75.190857 108.726857-152.502857 163.035428-228.790857 11.958857-16.822857 25.124571-32.841143 38.326857-49.993143h-42.093714c-27.099429 0-54.235429-0.073143-81.334857 0-17.517714 0.036571-20.114286 2.56-20.443429 19.602286-0.109714 5.632 0 11.227429 0 17.408h-69.339428c0-24.795429-1.243429-49.005714 0.365714-72.996572 1.243429-18.029714 11.154286-26.221714 29.293714-28.891428 6.107429-0.877714 12.397714-0.731429 18.614858-0.731429l246.674285-0.036571h15.286857c0.950857 25.892571 2.121143 48.603429-14.921142 71.606857-56.173714 75.995429-109.494857 154.112-164.169143 231.204571-11.702857 16.530286-24.576 32.256-37.449143 49.115429z m529.334857-238.628571h-68.242286c-0.365714-2.377143-1.024-4.790857-1.097143-7.277714-0.585143-22.930286-7.533714-32.512-29.769142-38.985143-21.650286-6.363429-43.154286-5.778286-63.378286 4.937143-28.598857 15.104-32.402286 48.054857-6.290286 66.852571 17.371429 12.507429 38.034286 20.48 57.124572 30.683429 26.112 13.933714 53.906286 25.6 77.714285 42.678857 38.546286 27.648 51.017143 67.657143 41.947429 113.517714-8.886857 44.909714-36.937143 74.313143-79.835429 89.490286-67.510857 23.881143-152.100571 0.475429-200.045714-55.588572l40.813714-50.761143c20.955429 12.909714 40.009143 26.441143 60.672 36.937143 20.662857 10.496 43.52 12.324571 66.194286 5.851429 19.382857-5.558857 32.585143-17.737143 36.315429-38.070857 3.584-19.456-5.851429-33.865143-21.321143-43.52-17.554286-11.044571-36.681143-19.529143-54.710857-29.805715-27.611429-15.689143-57.673143-28.708571-81.700572-48.713142-56.868571-47.506286-49.590857-131.766857 12.288-173.129143 49.298286-32.987429 128.585143-33.499429 178.358857-1.170286 23.296 15.104 36.096 35.766857 35.035429 64.036571-0.365714 10.459429-0.073143 20.955429-0.073143 32.036572zM3072 382.573714l-93.44 136.265143c11.885714 20.736 25.965714 42.386286 37.083429 65.462857 11.410286 23.698286 23.259429 43.739429 55.954285 32.768v63.488c-23.881143 0-47.323429 0.585143-70.729143-0.182857-15.104-0.512-23.222857-11.593143-29.696-23.625143-14.262857-26.404571-28.269714-52.918857-42.386285-79.36-14.116571-26.514286-18.505143-28.818286-51.529143-25.490285v129.170285H2801.737143V356.425143c0-27.684571 0-27.684571-27.721143-28.233143-2.194286-0.036571-4.352-0.256-7.387429-0.475429V265.801143c28.489143 0 56.393143-1.170286 84.187429 0.402286 19.492571 1.097143 25.6 10.605714 25.709714 34.523428 0.292571 53.321143 0.109714 106.678857 0.109715 160.036572v25.673142c32.585143 6.034286 43.52 1.499429 59.721142-23.478857 15.616-24.137143 31.049143-48.274286 46.994286-72.192 2.340571-3.510857 7.021714-7.716571 10.715429-7.826285 24.795429-0.694857 49.590857-0.365714 77.933714-0.365715zM2316.946286 545.28c-30.427429-0.548571-60.891429-0.109714-89.234286 13.458286-17.700571 8.448-25.014857 23.478857-21.796571 40.996571 2.889143 15.835429 16.347429 27.648 34.377142 30.171429 43.300571 6.070857 84.004571-38.180571 76.653715-84.626286z m0.256-50.578286c0.402286-51.382857-35.84-75.556571-80.969143-57.526857-10.861714 4.352-12.178286 6.875429-15.616 30.756572h-66.084572c-7.753143-47.908571 3.291429-70.509714 46.08-83.858286a205.641143 205.641143 0 0 1 115.748572-1.974857c48.64 12.982857 74.678857 48.822857 75.776 103.606857 0.731429 36.571429 0.219429 73.142857 0.256 109.714286 0.036571 22.564571 0.987429 23.515429 24.246857 23.698285h11.556571v64.146286c-27.574857-1.206857-55.478857-0.402286-82.724571-4.278857-19.748571-2.779429-22.528-21.028571-22.418286-41.142857-16.749714 25.526857-36.937143 42.605714-64.914285 48.201143-37.814857 7.606857-72.521143 1.28-101.705143-25.234286-34.596571-31.414857-43.410286-106.386286 19.894857-140.214857 34.121143-18.212571 71.241143-23.734857 109.129143-25.819429 10.459429-0.585143 20.992-0.073143 31.744-0.073143z m400.64 90.404572c8.777143 14.445714 17.298286 29.366857 26.697143 43.666285 4.754286 7.168 0.182857 10.386286-4.022858 14.189715-32.475429 29.44-70.692571 44.434286-114.651428 46.08-74.422857 2.779429-137.837714-38.619429-158.866286-106.130286-34.377143-110.372571 44.397714-221.988571 178.834286-205.312 17.334857 2.121143 34.742857 7.68 50.724571 14.774857 23.771429 10.496 37.010286 29.44 35.766857 56.576-0.438857 9.142857-0.109714 18.395429-0.109714 28.525714h-64.146286c-5.778286-32.438857-15.798857-40.155429-50.029714-38.765714-52.443429 2.121143-90.038857 48.932571-83.2 103.643429 8.704 70.070857 79.981714 102.985143 146.249143 67.145143 12.361143-6.692571 23.552-15.542857 36.754286-24.393143z m-631.259429-143.36H2018.998857v61.366857c0 18.980571-0.073143 37.888 0 56.868571 0.182857 38.729143 20.150857 58.697143 59.026286 59.062857 3.949714 0.073143 7.862857 0 13.714286 0v62.902858c-72.777143 21.504-145.408-29.220571-147.090286-102.253715-1.060571-45.312-0.219429-90.697143-0.219429-137.398857h-38.473143V382.537143c9.801143 0 19.382857-0.512 28.891429 0.146286 8.96 0.585143 11.446857-2.998857 11.264-11.483429-0.475429-22.820571-0.146286-45.641143-0.146286-69.339429h72.521143v80.310858h68.096v59.574857z m192.731429 485.193143c-1.097143-5.961143-1.609143-12.141714-3.437715-17.92-5.010286-15.872-17.334857-25.051429-32.109714-24.685715-14.994286 0.365714-28.525714 9.874286-31.378286 25.526857a91.794286 91.794286 0 0 0 0.658286 36.096 30.646857 30.646857 0 0 0 31.597714 24.905143c14.665143-0.219429 26.697143-9.691429 31.488-25.6 1.755429-5.851429 2.121143-12.068571 3.145143-18.285714z m-69.339429 40.594285v55.698286l-14.884571 0.804571v-70.656c0-16.274286 0.329143-32.548571-0.109715-48.822857-0.219429-7.789714 4.461714-19.017143-10.825142-19.090285-1.097143 0-2.157714-6.363429-3.254858-9.837715 19.894857-4.827429 27.538286-1.609143 28.818286 10.642286 8.704-4.498286 17.408-11.081143 27.172572-13.568 22.564571-5.851429 42.532571 5.266286 51.675428 26.587429 10.386286 24.32 5.668571 55.588571-10.788571 71.643428-18.139429 17.627429-42.422857 17.078857-67.803429-3.437714z m-478.829714-109.714285c-9.142857 2.011429-14.555429 2.194286-15.213714-7.314286-0.182857-2.340571-5.046857-6.107429-7.862858-6.217143-15.469714-0.621714-30.976-0.292571-47.469714-0.292571v54.747428h55.734857v13.385143h-56.649143c0 16.969143-0.548571 32.292571 0.475429 47.542857 0.219429 3.035429 6.363429 7.753143 10.093714 8.082286 11.922286 1.060571 23.990857-0.036571 35.949715 0.548571 10.532571 0.512 18.944-0.475429 17.152-14.518857h12.653714c0 6.546286 1.060571 13.202286-0.402286 19.273143-0.804571 3.218286-5.924571 7.570286-9.216 7.68-23.515429 0.658286-47.067429 0.731429-70.582857 0.256-10.386286-0.219429-10.861714-8.594286-10.861714-16.457143v-104.448-14.994286l-13.568-2.011428-0.768-12.178286c30.244571 0 59.501714-1.243429 88.576 0.475429 17.188571 0.987429 9.654857 16.128 11.958857 26.477714z m918.454857 57.782857c-2.413714-21.394286-13.348571-31.707429-31.158857-32.256-13.677714-0.402286-35.913143 15.104-33.828572 32.292571h64.987429z m14.445714 12.617143h-81.92c0.438857 16.969143 6.765714 29.476571 20.662857 37.12 18.541714 10.203429 35.949714 5.632 53.211429-6.765715l6.509714 8.374857c-0.804571 1.828571-0.914286 2.889143-1.499428 3.328-22.125714 16.932571-50.505143 18.176-71.753143 3.145143-20.297143-14.409143-28.086857-42.020571-19.017143-67.547428a51.638857 51.638857 0 0 1 60.452571-33.426286c23.442286 4.973714 36.388571 25.6 33.353143 55.771429z m-672.146285-12.763429h65.170285c-1.024-19.565714-11.52-30.976-28.635428-31.926857-18.139429-1.024-33.243429 11.776-36.534857 31.926857z m79.36 12.617143h-80.384c-0.512 38.765714 32.621714 52.48 74.130285 31.049143l5.632 9.216c-23.661714 20.041143-55.771429 20.553143-77.421714 1.938285-20.772571-17.883429-25.051429-52.370286-9.435429-76.068571a52.662857 52.662857 0 0 1 62.208-19.602286c19.492571 7.899429 29.915429 29.184 25.307429 53.467429z m-191.597715 51.821714c-29.147429 3.181714-31.561143 1.206857-31.597714-21.796571 0-13.202286 0.146286-26.441143 0-39.643429-0.292571-21.101714-4.644571-29.696-16.201143-32.548571-15.725714-3.84-35.108571 4.498286-42.276571 20.150857a80.091429 80.091429 0 0 0-6.070857 27.867428c-0.987429 15.286857-0.256 30.72-0.256 46.738286h-14.884572c0-26.88-0.256-53.211429 0.109714-79.579428 0.146286-9.398857-0.109714-17.334857-13.056-15.104v-11.117715c22.235429-3.547429 25.709714-1.28 27.830858 15.433143 11.337143-5.924571 22.747429-14.811429 35.547428-17.92 25.161143-6.180571 41.837714 7.497143 43.081143 32.987429 0.804571 17.115429 0.365714 34.340571 0.512 51.529143 0.036571 5.851429-0.256 11.300571 8.411429 12.141714 2.669714 0.219429 4.827429 5.705143 8.850285 10.861714z m658.322286-81.554286c-7.643429 2.230857-11.556571 1.755429-14.994286-6.217142-5.12-11.776-33.170286-11.154286-39.204571 0.292571-4.425143 8.484571-1.389714 15.725714 6.802286 20.004571 9.398857 4.900571 19.382857 8.740571 28.928 13.275429 18.468571 8.740571 25.417143 19.894857 21.942857 34.633143-3.035429 12.873143-17.92 22.893714-34.998857 23.552-16.932571 0.658286-30.939429-5.339429-42.788572-18.797714l4.388572-6.107429c14.116571 4.352 26.148571 9.472 38.692571 11.483429 9.033143 1.462857 17.554286-2.998857 19.821714-13.568 2.121143-10.020571-4.900571-14.262857-12.251428-17.92-11.117714-5.485714-22.564571-10.24-33.462857-16.054858a24.685714 24.685714 0 0 1-13.824-26.331428c1.353143-12.068571 8.850286-19.894857 19.931428-21.942857 11.008-2.011429 22.820571-2.304 33.901714-0.731429 12.434286 1.828571 19.163429 10.24 17.115429 24.429714zM1951.817143 969.728v10.496c-1.316571 0.621714-2.048 1.316571-2.852572 1.316571-25.526857 0.731429-38.034286-10.130286-39.862857-35.108571-0.731429-10.057143-0.512-20.224-0.585143-30.354286-0.109714-9.581714 0-19.2 0-29.110857l-13.092571-1.792c-5.741714-13.165714 5.302857-11.190857 12.8-12.873143l1.206857-27.830857h13.421714v27.245714c9.691429 1.462857 18.139429 2.56 26.404572 4.388572 0.621714 0.146286 0.109714 5.522286 0.109714 9.252571l-25.965714 1.170286c0 20.48-0.804571 40.155429 0.256 59.794286 0.841143 15.213714 8.045714 20.48 28.16 23.405714z m391.789714 11.008l-15.140571 0.694857c0-27.721143-0.292571-54.893714 0.146285-82.029714 0.146286-9.069714-1.536-14.921143-15.140571-16.054857 2.706286-3.291429 4.937143-8.996571 8.118857-9.581715 15.762286-2.816 20.297143 1.938286 21.942857 21.357715 5.485714-5.778286 10.020571-12.361143 16.201143-16.420572 5.851429-3.84 13.494857-5.083429 22.454857-8.192l0.950857 14.701715c-28.269714 7.168-38.070857 18.834286-39.387428 47.616-0.731429 15.725714-0.146286 31.561143-0.146286 47.908571z m-218.843428 0h-14.994286c0-26.916571-0.256-53.284571 0.109714-79.616 0.109714-9.362286 0.036571-17.481143-13.056-15.140571v-11.154286c22.381714-3.584 24.868571-1.828571 28.818286 19.894857 14.848-19.382857 20.626286-22.674286 38.070857-20.845714v11.227428c-28.928 8.521143-37.741714 19.602286-38.875429 49.956572-0.548571 14.921143-0.073143 29.842286-0.073142 45.714285z m319.744-0.146286c-28.269714 1.755429-29.622857 0.475429-29.659429-24.576 0-18.944-0.365714-37.851429 0.109714-56.795428 0.256-9.106286-1.974857-14.701714-13.238857-13.165715a205.824 205.824 0 0 1-2.084571-2.925714c2.706286-3.291429 5.193143-8.96 8.192-9.289143 8.96-0.877714 20.187429-2.413714 21.467428 11.044572 0.987429 10.934857 0.365714 22.016 0.365715 32.987428 0.036571 11.885714-0.036571 23.771429 0.036571 35.657143 0.036571 7.204571-2.194286 15.725714 10.166857 15.725714 1.389714 0 2.779429 6.656 4.644572 11.337143z m-16.201143-149.942857v17.846857l-13.129143 0.585143v-17.810286l13.129143-0.585142z" fill="#56606F" p-id="8528"></path></svg>