<?xml version="1.0" encoding="UTF-8"?>
<svg width="724px" height="374px" viewBox="0 0 724 374" version="1.1" xmlns="http://www.w3.org/2000/svg" xmlns:xlink="http://www.w3.org/1999/xlink">
    <!-- Generator: Sketch 52.6 (67491) - http://www.bohemiancoding.com/sketch -->
    <title>分组 40</title>
    <desc>Created with Sketch.</desc>
    <defs>
        <filter x="-19.3%" y="-32.0%" width="138.6%" height="164.0%" filterUnits="objectBoundingBox" id="filter-1">
            <feOffset dx="0" dy="2" in="SourceAlpha" result="shadowOffsetOuter1"></feOffset>
            <feGaussianBlur stdDeviation="3" in="shadowOffsetOuter1" result="shadowBlurOuter1"></feGaussianBlur>
            <feColorMatrix values="0 0 0 0 0   0 0 0 0 0.478   0 0 0 0 1  0 0 0 1 0" type="matrix" in="shadowBlurOuter1" result="shadowMatrixOuter1"></feColorMatrix>
            <feMerge>
                <feMergeNode in="shadowMatrixOuter1"></feMergeNode>
                <feMergeNode in="SourceGraphic"></feMergeNode>
            </feMerge>
        </filter>
        <polygon id="path-2" points="0.0944988692 0.0350194023 61.8153097 0.0350194023 61.8153097 50 0.0944988692 50"></polygon>
        <polygon id="path-4" points="0 0.0349665477 58.9412612 0.0349665477 58.9412612 50 0 50"></polygon>
    </defs>
    <g id="Page-1" stroke="none" stroke-width="1" fill="none" fill-rule="evenodd">
        <g id="分组-40" transform="translate(0.000000, -56.000000)">
            <path d="M286.894982,129.978574 C339.100953,120.592186 375.379494,116.297129 395.730605,117.093402 C475.05458,120.197091 412.769666,220.015803 521.648734,147.073826 C533.371569,139.220279 545.218941,148.446735 557.190849,174.753195 C557.01212,180.944172 558.529184,181.603052 561.742041,176.729836 C566.561326,169.420011 599.054674,138.779793 600.941397,168.042851 C602.199212,187.551556 585.137886,205.934408 549.757419,223.191405 C565.954684,214.43375 579.910207,212.579564 591.623989,217.628847 C609.194663,225.202772 615.344353,253.095981 591.623989,253.095981 C567.903626,253.095981 545.732351,237.965494 549.757419,251.8495 C553.782488,265.733506 608.928399,262.971874 615.344353,283.133063 C621.760307,303.294251 608.928399,336.099362 587.235667,328.179091 C565.542935,320.25882 584.601393,302.507433 549.757419,305.33943 C538.651448,306.242085 461.327283,363.098938 405.859454,360.815677 C374.867158,359.539919 358.166475,287.289922 345.616789,303.315492 C318.333693,338.155183 251.639735,399.487119 193.714065,355.956241 C135.788395,312.425364 190.357859,285.391167 188.705375,278.009149 C185.87122,265.348334 186.578009,264.906478 174.974941,248.603532 C163.371873,232.300585 168.919054,208.633098 179.481298,203.976044 C193.230947,197.913614 202.989382,214.531836 196.816817,203.976044 C188.274019,189.366881 218.300074,164.701058 286.894982,129.978574 Z" id="路径-copy-2" fill="#E1E4EB" fill-rule="nonzero" opacity="0.257463728"></path>
            <text id="智能化统一管理异构IT资源池：物理机，虚-Copy" font-family="PingFangSC-Medium, PingFang SC" font-size="14" font-weight="400" line-spacing="26" letter-spacing="0.09625" fill="#53627C">
                <tspan x="513" y="171">智能化统一管理异构IT资源池：物</tspan>
                <tspan x="513" y="197">理机，虚拟化平台，私有云，公有</tspan>
                <tspan x="513" y="223">云，Kubernetes</tspan>
            </text>
            <text id="帮助客户在多云环境下架构安全、稳定、弹性-copy" font-family="PingFangSC-Medium, PingFang SC" font-size="14" font-weight="400" line-spacing="26" letter-spacing="0.09625" fill="#53627C">
                <tspan x="0" y="397">帮助客户在多云环境下架构安全、</tspan>
                <tspan x="0" y="423">稳定、弹性、成本最优的基础设施</tspan>
            </text>
            <text id="多云时代的智能融合云管理平台-copy" font-family="PingFangSC-Medium, PingFang SC" font-size="14" font-weight="400" line-spacing="26" letter-spacing="0.09625" fill="#53627C">
                <tspan x="0" y="173">多云时代的智能融合云管理平台</tspan>
            </text>
            <text id="给客户极简上云体验，还客户选云用云自由权-copy" font-family="PingFangSC-Medium, PingFang SC" font-size="14" font-weight="400" line-spacing="26" letter-spacing="0.09625" fill="#53627C">
                <tspan x="511" y="396">给客户极简上云体验，还客户选云</tspan>
                <tspan x="511" y="422">用云自由权</tspan>
            </text>
            <path d="M167,340 L547.5,112.5" id="直线-6-copy" stroke="#DFE9FA" stroke-linecap="square" stroke-dasharray="2,4" fill-rule="nonzero"></path>
            <path d="M148.666698,337.662992 L546.682667,118.27911" id="直线-6-copy-2" stroke="#DFE9FA" stroke-linecap="square" stroke-dasharray="2,4" fill-rule="nonzero" transform="translate(347.445807, 228.022068) rotate(-120.000000) translate(-347.445807, -228.022068) "></path>
            <path d="M303.804126,188.403955 C314.683495,159.625659 344.11646,139 378.71875,139 C411.333859,139 439.356334,157.324655 451.577954,183.52884 C472.10493,189.800078 487,208.511335 487,230.619048 C487,257.865095 464.376389,279.952381 436.46875,279.952381 C430.270748,279.952381 424.333375,278.86295 418.846574,276.86953 C407.071506,283.308352 393.35774,287 378.71875,287 C363.748178,287 349.745217,283.139221 337.793783,276.427782 C329.192716,283.049011 318.334588,287 306.53125,287 C278.623611,287 256,264.912714 256,237.666667 C256,211.313854 277.164541,189.787098 303.804126,188.403955 Z" id="合并形状-copy-11" fill="#4DA1FF" fill-rule="nonzero"></path>
            <g id="分组-copy-3" filter="url(#filter-1)" transform="translate(333.000000, 195.000000)">
                <g id="Group-3" transform="translate(20.750000, 0.000000)">
                    <mask id="mask-3" fill="white">
                        <use xlink:href="#path-2"></use>
                    </mask>
                    <g id="Clip-2"></g>
                    <path d="M5.67297418,22.8359628 L23.0287285,39.0226822 C26.702474,42.1014623 31.5876102,43.8847763 36.8976125,43.6131037 C46.5815925,43.1162705 54.4979534,35.6220176 55.1547646,26.3180234 C55.9231512,15.4453049 46.9778777,6.39554126 35.835722,6.39554126 C35.515286,6.39554126 35.1970487,6.4029409 34.8804602,6.41826873 C32.9897234,6.50865009 31.3979869,5.08369023 31.3979869,3.26390656 L31.3979869,3.23007962 C31.3979869,1.54930352 32.764374,0.156584969 34.5100077,0.0688463426 C34.9491643,0.046647413 35.3905194,0.0350194023 35.835722,0.0350194023 C50.2075199,0.0350194023 61.8536889,11.2576354 61.8152146,25.0870399 C61.77729,38.3339868 50.7610001,49.3975105 36.9981953,49.9757397 C29.9700409,50.2706684 23.5305432,47.8742411 18.6866295,43.7753673 L18.6816828,43.7801242 L18.597589,43.7013709 C18.0342154,43.2198655 17.494476,42.7151041 16.9761723,42.1892009 L1.09398348,27.3761724 C-0.210295111,26.1605167 -0.242173812,24.1583847 1.02253122,22.9041452 C2.28723625,21.6504342 4.36924522,21.6197785 5.67297418,22.8359628" id="Fill-1" fill="#FFFFFF" mask="url(#mask-3)"></path>
                    <path d="M26.052863,27.8039775 L15.5971986,18.0914173 C14.586424,17.1527197 12.9759999,17.179147 11.9998521,18.151143 C11.0231546,19.1226104 11.0511859,20.6717785 12.0619606,21.6099476 L22.5181746,31.3230364 C23.5283997,32.2622625 25.1393734,32.2353066 26.1155212,31.2633107 C27.091669,30.2913147 27.0636377,28.7426751 26.052863,27.8039775" id="Fill-7" fill="#FFFFFF" mask="url(#mask-3)"></path>
                </g>
                <g id="Group-6">
                    <mask id="mask-5" fill="white">
                        <use xlink:href="#path-4"></use>
                    </mask>
                    <g id="Clip-5"></g>
                    <path d="M37.0400754,11.0123372 C33.531735,7.93355709 28.8665451,6.15024309 23.795618,6.4219157 C14.5476453,6.91874888 6.98770709,14.4130018 6.359943,23.716996 C5.62667676,34.5902431 14.1686773,43.6394781 24.8096984,43.6394781 C25.1157072,43.6394781 25.4196164,43.632607 25.721426,43.6167507 C27.52756,43.5268979 29.0476309,44.9513292 29.0476309,46.7711128 C29.0476309,48.4857159 27.7427634,49.8784344 26.0751994,49.9667016 C25.6563401,49.988372 25.2343315,50 24.8096984,50 C11.08497,50 -0.0373719086,38.777384 -0.000104977271,24.948508 C0.035587295,11.7010326 10.5558845,0.637508921 23.6995638,0.059279661 C30.4107607,-0.235648974 36.5603293,2.16077832 41.1866776,6.2596521 C41.8097177,6.81515388 42.3251561,7.31991525 42.820124,7.84581847 L57.9872401,22.658847 C59.2322706,23.8750312 59.262714,25.8771632 58.0549505,27.1308742 C56.8477119,28.3845852 54.8589174,28.4152409 53.613887,27.1990566 L37.0400754,11.0123372 Z" id="Fill-4" fill="#FFFFFF" mask="url(#mask-5)"></path>
                </g>
            </g>
            <circle id="椭圆形-copy-30" fill="#E0EFFF" fill-rule="nonzero" cx="542" cy="340" r="30"></circle>
            <circle id="椭圆形-copy-31" fill="#E0EFFF" fill-rule="nonzero" cx="167" cy="340" r="30"></circle>
            <circle id="椭圆形-copy-32" fill="#E0EFFF" fill-rule="nonzero" cx="541" cy="118" r="30"></circle>
            <g id="分组-18-copy" transform="translate(281.000000, 384.000000)" fill-rule="nonzero">
                <path d="M160.423176,45.5466797 L21,45.5466797 C22.9294951,37.1567249 30.4438218,30.9 39.4194848,30.9 C41.6360341,30.9 43.7634641,31.2815652 45.7396738,31.9825947 C45.5294156,30.8538078 45.4194848,29.6897417 45.4194848,28.5 C45.4194848,18.0618182 53.881303,9.6 64.3194848,9.6 C70.1355904,9.6 75.3381011,12.2271117 78.8050949,16.3594131 C81.9594925,13.9983674 85.8761856,12.6 90.1194848,12.6 C91.2705032,12.6 92.39749,12.7028913 93.4917494,12.8999779 C95.9997272,5.4029915 103.078638,5.75539616e-13 111.419485,5.75539616e-13 C121.857667,5.75539616e-13 130.319485,8.46181823 130.319485,18.9 C130.319485,19.957208 130.401459,21.2553986 130.520684,22.7140531 C133.075559,21.4256392 135.962781,20.7 139.019485,20.7 C146.523122,20.7 153.005441,25.0727795 156.057196,31.4090919 C159.319643,33.2674356 161.519485,36.7768175 161.519485,40.8 C161.519485,42.503049 161.125294,44.1140298 160.423176,45.5466797 Z" id="合并形状-copy" stroke="#D5DAE0" stroke-width="0.6" stroke-linecap="round"></path>
                <path d="M139.423176,45.5466797 L-2.26485497e-14,45.5466797 C1.92949511,37.1567249 9.44382176,30.9 18.4194848,30.9 C20.6360341,30.9 22.7634641,31.2815652 24.7396738,31.9825947 C24.5294156,30.8538078 24.4194848,29.6897417 24.4194848,28.5 C24.4194848,18.0618182 32.881303,9.6 43.3194848,9.6 C49.1355904,9.6 54.3381011,12.2271117 57.8050949,16.3594131 C60.9594925,13.9983674 64.8761856,12.6 69.1194848,12.6 C70.2705032,12.6 71.39749,12.7028913 72.4917494,12.8999779 C74.9997272,5.4029915 82.0786379,5.75539616e-13 90.4194848,5.75539616e-13 C100.857667,5.75539616e-13 109.319485,8.46181823 109.319485,18.9 C109.319485,19.957208 109.401459,21.2553986 109.520684,22.7140531 C112.075559,21.4256392 114.962781,20.7 118.019485,20.7 C125.523122,20.7 132.005441,25.0727795 135.057196,31.4090919 C138.319643,33.2674356 140.519485,36.7768175 140.519485,40.8 C140.519485,42.503049 140.125294,44.1140298 139.423176,45.5466797 Z" id="合并形状" fill="#F2F7FD"></path>
            </g>
            <g id="分组-25-copy" transform="translate(38.000000, 57.000000)" fill-rule="nonzero">
                <path d="M139.423176,45.5466797 L2.04725126e-13,45.5466797 C1.92949511,37.1567249 9.44382176,30.9 18.4194848,30.9 C20.6360341,30.9 22.7634641,31.2815652 24.7396738,31.9825947 C24.5294156,30.8538078 24.4194848,29.6897417 24.4194848,28.5 C24.4194848,18.0618182 32.881303,9.6 43.3194848,9.6 C49.1355904,9.6 54.3381011,12.2271117 57.8050949,16.3594131 C60.9594925,13.9983674 64.8761856,12.6 69.1194848,12.6 C70.2705032,12.6 71.39749,12.7028913 72.4917494,12.8999779 C74.9997272,5.4029915 82.0786379,5.75539616e-13 90.4194848,5.75539616e-13 C100.857667,5.75539616e-13 109.319485,8.46181823 109.319485,18.9 C109.319485,19.957208 109.401459,21.2553986 109.520684,22.7140531 C112.075559,21.4256392 114.962781,20.7 118.019485,20.7 C125.523122,20.7 132.005441,25.0727795 135.057196,31.4090919 C138.319643,33.2674356 140.519485,36.7768175 140.519485,40.8 C140.519485,42.503049 140.125294,44.1140298 139.423176,45.5466797 Z" id="合并形状-copy-2" stroke="#D5DAE0" stroke-width="0.6" stroke-linecap="round"></path>
                <path d="M162.423176,45.5466797 L23,45.5466797 C24.9294951,37.1567249 32.4438218,30.9 41.4194848,30.9 C43.6360341,30.9 45.7634641,31.2815652 47.7396738,31.9825947 C47.5294156,30.8538078 47.4194848,29.6897417 47.4194848,28.5 C47.4194848,18.0618182 55.881303,9.6 66.3194848,9.6 C72.1355904,9.6 77.3381011,12.2271117 80.8050949,16.3594131 C83.9594925,13.9983674 87.8761856,12.6 92.1194848,12.6 C93.2705032,12.6 94.39749,12.7028913 95.4917494,12.8999779 C97.9997272,5.4029915 105.078638,5.75539616e-13 113.419485,5.75539616e-13 C123.857667,5.75539616e-13 132.319485,8.46181823 132.319485,18.9 C132.319485,19.957208 132.401459,21.2553986 132.520684,22.7140531 C135.075559,21.4256392 137.962781,20.7 141.019485,20.7 C148.523122,20.7 155.005441,25.0727795 158.057196,31.4090919 C161.319643,33.2674356 163.519485,36.7768175 163.519485,40.8 C163.519485,42.503049 163.125294,44.1140298 162.423176,45.5466797 Z" id="合并形状-copy-3" fill="#EAF3FC"></path>
            </g>
            <circle id="椭圆形-copy-33" fill="#E0EFFF" fill-rule="nonzero" cx="167" cy="119" r="30"></circle>
            <g id="分组-26-copy" transform="translate(524.000000, 103.000000)" fill="#4DA1FF" fill-rule="nonzero">
                <path d="M15.0914826,14.6400049 L1.91837955,14.6400049 C0.860543226,14.6400049 -4.97379915e-14,15.494209 -4.97379915e-14,16.5441113 L-4.97379915e-14,24.6684131 C-4.97379915e-14,25.7183789 0.860607179,26.5725195 1.91837955,26.5725195 L6.47396339,26.5725195 L6.47396339,28.7305322 L5.58080445,28.7305322 C5.22759545,28.7305322 4.9413446,29.0147803 4.9413446,29.3652344 C4.9413446,29.7156885 5.2276594,30 5.58080445,30 L11.3787272,30 C11.7319362,30 12.0181871,29.715752 12.0181871,29.3652979 C12.0181871,29.0148437 11.7318723,28.7305957 11.3787272,28.7305957 L10.487231,28.7305957 L10.487231,26.572583 L15.0914187,26.572583 C16.149255,26.572583 17.0097982,25.7183789 17.0097982,24.6684766 L17.0097982,16.5441113 C17.0098622,15.494209 16.149255,14.6400049 15.0914826,14.6400049 Z M9.2083753,28.7305957 L7.75294704,28.7305957 L7.75294704,26.572583 L9.2083753,26.572583 L9.2083753,28.7305957 Z M15.0914826,25.3031152 L1.91837955,25.3031152 C1.56581007,25.3031152 1.2789197,25.0183594 1.2789197,24.6684131 L1.2789197,23.0181494 L11.5104052,23.0181494 C11.8636142,23.0181494 12.149865,22.7339014 12.149865,22.3834473 C12.149865,22.0329932 11.8635502,21.7487451 11.5104052,21.7487451 L1.2789197,21.7487451 L1.2789197,16.5441113 C1.2789197,16.194165 1.56581007,15.9094092 1.91837955,15.9094092 L15.0914187,15.9094092 C15.4440521,15.9094092 15.7308785,16.194165 15.7308785,16.5441113 L15.7308785,24.6684131 C15.7309425,25.0184229 15.4440521,25.3031152 15.0914826,25.3031152 Z M14.2876652,21.9347314 C14.1687138,21.8166016 14.0043561,21.7487451 13.8355858,21.7487451 C13.6673911,21.7487451 13.5030334,21.8166016 13.3835064,21.9347314 C13.264555,22.0527979 13.1967655,22.2165674 13.1967655,22.3834473 C13.1967655,22.5503271 13.264555,22.7141602 13.3835064,22.8320996 C13.5030974,22.950166 13.6680945,23.0181494 13.8355858,23.0181494 C14.0044201,23.0181494 14.1687777,22.9502295 14.2876652,22.8320996 C14.4072561,22.7140967 14.4756852,22.5503271 14.4756852,22.3834473 C14.4756852,22.2165674 14.4072561,22.0527979 14.2876652,21.9347314 Z M14.3878146,4.60874023 C14.7409597,4.60874023 15.0272745,4.89298828 15.0272745,5.24344238 C15.0272745,5.59389648 14.7410236,5.87814453 14.3878146,5.87814453 L10.5587298,5.87814453 C10.3473672,6.55848633 9.80556263,7.09625977 9.12012102,7.3060498 L9.12012102,12.9868848 C9.12012102,13.3373389 8.83380621,13.6215869 8.48066117,13.6215869 C8.12751613,13.6215869 7.84120132,13.3374023 7.84120132,12.9868848 L7.84120132,7.3060498 C6.95341438,7.03443359 6.3064721,6.21260254 6.3064721,5.24344238 C6.3064721,4.05351074 7.28180985,3.08542969 8.48066117,3.08542969 C9.4569582,3.08542969 10.2849497,3.72755859 10.5587298,4.60874023 L14.3878146,4.60874023 Z M8.48066117,6.13205078 C8.97430959,6.13205078 9.37586659,5.73348145 9.37593054,5.24344238 C9.37593054,4.75340332 8.97430959,4.35483398 8.48066117,4.35483398 C7.9869488,4.35483398 7.5853918,4.7534668 7.5853918,5.24344238 C7.5853918,5.73348145 7.98701275,6.13205078 8.48066117,6.13205078 Z M24.8353952,20.3208398 C25.7231182,20.5925195 26.3701244,21.4143506 26.3701244,22.3834473 C26.3701244,23.5733789 25.3947867,24.54146 24.1959353,24.54146 C23.2196383,24.54146 22.3916468,23.8993311 22.1178667,23.0181494 L18.2888458,23.0181494 C17.9357008,23.0181494 17.649386,22.7339014 17.649386,22.3834473 C17.649386,22.0329932 17.9356368,21.7487451 18.2888458,21.7487451 L22.1178667,21.7487451 C22.3292293,21.0684033 22.8710339,20.5306299 23.5564755,20.3208398 L23.5564755,14.6400049 C23.5564755,14.2895508 23.8427263,14.0053027 24.1959353,14.0053027 C24.5490804,14.0053027 24.8353952,14.2894873 24.8353952,14.6400049 L24.8353952,20.3208398 Z M24.1959353,23.2720557 C24.6895838,23.2720557 25.0912047,22.8734863 25.0912047,22.3834473 C25.0912047,21.8934082 24.6895838,21.4948389 24.1959353,21.4948389 C23.702223,21.4948389 23.300666,21.8934082 23.300666,22.3834473 C23.300666,22.8734863 23.7022869,23.2720557 24.1959353,23.2720557 Z" id="network-1"></path>
                <path d="M30.0377223,11.4331433 C30.1548451,11.5494049 30.2222222,11.7106711 30.2222222,11.875 C30.2222222,12.0393289 30.1547821,12.2005951 30.0377223,12.3168567 C29.9205995,12.4331183 29.7581388,12.5 29.5925926,12.5 C29.4270464,12.5 29.2645857,12.4331183 29.1474629,12.3168567 C29.0303401,12.2005951 28.962963,12.0393289 28.962963,11.875 C28.962963,11.7106711 29.030403,11.5494049 29.1474629,11.4331433 C29.2645857,11.3168817 29.4270464,11.25 29.5925926,11.25 C29.7581388,11.25 29.9205995,11.3168817 30.0377223,11.4331433 Z M32.5204782,7.14063016 C33.4286644,7.63594476 34,8.5883752 34,9.64734965 C34,11.2203216 32.7296177,12.5 31.1680773,12.5 C30.9507518,12.5 30.7745536,12.3224134 30.7745536,12.1033755 C30.7745536,11.8843375 30.9507912,11.7067509 31.1680773,11.7067509 C32.2956356,11.7067509 33.2129525,10.78292 33.2129525,9.64734965 C33.2129525,8.80479519 32.7118286,8.0556155 31.9361551,7.73864112 C31.7578317,7.66573424 31.657906,7.4734711 31.7000959,7.28418294 C31.7334307,7.1343232 31.7503933,6.98188514 31.7503933,6.83095441 C31.7503933,5.6953841 30.8330764,4.77155315 29.7055181,4.77155315 C29.6360149,4.77155315 29.5626941,4.77559912 29.4875629,4.78361174 C29.308413,4.80273095 29.1390234,4.69650428 29.0768011,4.52597833 C28.2627552,2.29331415 26.1294857,0.793249092 23.7685007,0.793249092 C21.2424553,0.793249092 19.0224052,2.50263385 18.3344569,4.91506626 C19.5530463,5.14096653 20.6052373,5.95896747 21.1194274,7.12587425 C21.2076249,7.32607068 21.1181287,7.56041989 20.9194974,7.64935201 C20.8676258,7.67259653 20.8133534,7.68358413 20.7600256,7.68358413 C20.6091729,7.68358413 20.4652862,7.59576267 20.4001122,7.44788626 C19.9415324,6.40719803 18.9430628,5.71692296 17.8235333,5.65091804 C17.7927173,5.64913305 17.7639084,5.64782406 17.7365164,5.64687206 C17.7070779,5.6459994 17.6776394,5.64524574 17.6480828,5.64524574 C15.9888208,5.64524574 14.6388993,7.00481233 14.6388993,8.67599832 C14.6388993,10.3471843 15.9888208,11.7067509 17.6480828,11.7067509 L27.8995354,11.7067509 C28.116861,11.7067509 28.2930592,11.8842978 28.2930592,12.1033755 C28.2930592,12.3224531 28.1168216,12.5 27.8995354,12.5 L17.6480828,12.5 C15.5547994,12.5 13.8518519,10.7845463 13.8518519,8.67599832 C13.8518519,6.60553013 15.4938365,4.91411426 17.5349728,4.85366264 C17.8749719,3.5391571 18.6264807,2.35067179 19.6748541,1.47979551 C20.8235467,0.525500749 22.2773688,0 23.7685007,0 C25.1131877,0 26.4014378,0.413482775 27.4941264,1.19574427 C28.4826782,1.90343289 29.2437506,2.86113897 29.7086273,3.97830405 C31.2687114,3.98000971 32.5374014,5.25905346 32.5374014,6.83095441 C32.5374014,6.93404743 32.5317341,7.03745779 32.5204782,7.14063016 Z" id="cloud-computing-2" stroke="#4DA1FF" stroke-width="0.2" transform="translate(23.925926, 6.250000) scale(-1, 1) translate(-23.925926, -6.250000) "></path>
            </g>
            <g id="分组-17-copy" transform="translate(152.000000, 104.000000)" fill="#4DA1FF" fill-rule="nonzero">
                <path d="M10.2397325,7.5 C10.9574424,7.5 11.5413736,8.08393118 11.5413302,8.80164106 L11.5413302,14.3553877 C11.5413302,15.0730976 10.9574424,15.6570287 10.2396891,15.6570287 L7.11569853,15.6570287 L7.11569853,17.1322393 L7.73764144,17.1322393 C7.97725413,17.1322393 8.17152179,17.3265503 8.17152179,17.5661196 C8.17152179,17.8056889 7.97729752,18 7.73764144,18 L3.80368877,18 C3.56407607,18 3.36980841,17.8057323 3.36980841,17.5661196 C3.36980841,17.3265503 3.56403268,17.1322393 3.80368877,17.1322393 L4.39265346,17.1322393 L4.39265346,15.6570287 L1.30164106,15.6570287 C0.583931184,15.6570287 6.83897383e-14,15.0731409 6.83897383e-14,14.3553877 L6.83897383e-14,8.80164106 C6.83897383e-14,8.08393118 0.583887791,7.5 1.30164106,7.5 L10.2397325,7.5 Z M6.24793783,17.1322827 L6.24793783,15.6570721 L5.26041417,15.6570721 L5.26041417,17.1322827 L6.24793783,17.1322827 Z M10.2397325,14.789268 C10.4789547,14.789268 10.6736129,14.5946098 10.6735695,14.3553877 L10.6735695,8.80164106 C10.6735695,8.5624189 10.4789113,8.36776071 10.2396891,8.36776071 L1.30164106,8.36776071 C1.0624189,8.36776071 0.867760706,8.56237551 0.867760706,8.80164106 L0.867760706,12.359512 L7.80993313,12.359512 C8.04954583,12.359512 8.24381349,12.5538231 8.24381349,12.7933924 C8.24381349,13.0329617 8.04958922,13.2272727 7.80993313,13.2272727 L0.867760706,13.2272727 L0.867760706,14.3553877 C0.867760706,14.5946098 1.06237551,14.789268 1.30164106,14.789268 L10.2397325,14.789268 Z M9.69476771,12.4868252 C9.77543413,12.5675351 9.82143005,12.6790101 9.82147344,12.7935659 C9.82147344,12.9076445 9.77547752,13.0195968 9.69476771,13.1003066 C9.61366736,13.1810165 9.50171503,13.2274463 9.38759309,13.2274463 C9.27351453,13.2274463 9.16199613,13.1809731 9.08085239,13.1003066 C9.00014257,13.0192063 8.95371273,12.9076879 8.95371273,12.7935659 C8.95371273,12.6790535 9.00014257,12.5675351 9.08085239,12.4868252 C9.16195274,12.4056815 9.27347114,12.3596856 9.38759309,12.3596856 C9.50210556,12.3596856 9.61362397,12.4056381 9.69476771,12.4868252 Z" id="network-1"></path>
                <path d="M17.6894531,10.9511719 C17.7949219,11.0625 17.859375,11.2089844 17.859375,11.3671875 C17.859375,11.5253906 17.8007813,11.671875 17.6894531,11.7832031 C17.578125,11.8886719 17.4316406,11.953125 17.2734375,11.953125 C17.1152344,11.953125 16.96875,11.8945312 16.8574219,11.7832031 C16.7519531,11.671875 16.6875,11.5253906 16.6875,11.3671875 C16.6875,11.2089844 16.7460938,11.0625 16.8574219,10.9511719 C16.96875,10.8457031 17.1152344,10.78125 17.2734375,10.78125 C17.4316406,10.78125 17.5839844,10.8398438 17.6894531,10.9511719 Z M17.2734375,5.73632812 C18.5039063,5.73632812 19.5,6.73242188 19.5,7.96289062 C19.5,9.19335937 18.5039063,10.1894531 17.2734375,10.1894531 C16.0429688,10.1894531 15.046875,9.19335937 15.046875,7.96289062 C15.046875,6.73242188 16.0429688,5.73632812 17.2734375,5.73632812 Z M17.2734375,9.01757812 C17.8535156,9.01757812 18.328125,8.54296875 18.328125,7.96289062 C18.328125,7.3828125 17.8535156,6.90820312 17.2734375,6.90820312 C16.6933594,6.90820312 16.21875,7.3828125 16.21875,7.96289062 C16.21875,8.54296875 16.6933594,9.01757812 17.2734375,9.01757812 Z M25.5703125,10.8808594 C26.3320313,11.6425781 26.3320313,12.8847656 25.5703125,13.6464844 C25.1894531,14.0273438 24.6855469,14.2207031 24.1875,14.2207031 C23.6894531,14.2207031 23.1855469,14.0273438 22.8046875,13.6464844 C22.7519531,13.5996094 22.7050781,13.5410156 22.6582031,13.4882813 L20.0859375,14.7890625 L20.0859375,21.4394531 C20.0859375,21.7617188 19.8222656,22.0253906 19.5,22.0253906 C19.1777344,22.0253906 18.9140625,21.7617188 18.9140625,21.4394531 L18.9140625,14.4257812 C18.9140625,14.203125 19.0371094,14.0039062 19.2421875,13.8984375 L22.2363281,12.3867188 C22.2011719,11.8476562 22.3945313,11.2910156 22.8046875,10.8808594 C23.5664063,10.1191406 24.8085938,10.1191406 25.5703125,10.8808594 Z M24.7441406,12.8203125 C25.0488281,12.515625 25.0488281,12.0175781 24.7441406,11.7128906 C24.5917969,11.5605469 24.3925781,11.484375 24.1875,11.484375 C23.9824219,11.484375 23.7832031,11.5605469 23.6308594,11.7128906 C23.3203125,12.0175781 23.3203125,12.515625 23.6367188,12.8203125 C23.9414063,13.125 24.4394531,13.125 24.7441406,12.8203125 Z M29.2382812,5.44335938 C29.4433594,5.53710938 29.578125,5.74804688 29.578125,5.9765625 L29.578125,14.7949219 C29.578125,14.7949219 29.578125,14.8007813 29.578125,14.8066406 C29.5136719,17.5253906 29.3378906,19.9746094 27.7734375,22.4121094 C26.0390625,25.125 22.7753906,27.5214844 17.5195312,29.9472656 C17.4433594,29.9824219 17.3554687,30 17.2734375,30 C17.1914062,30 17.1035156,29.9824219 17.0273437,29.9472656 C12.4570312,27.8378906 9.33984375,25.6992188 7.5,23.4199219 C7.29492187,23.1679688 7.3359375,22.7988281 7.58789062,22.59375 C7.83984375,22.3886719 8.20898437,22.4296875 8.4140625,22.6816406 C9.703125,24.2871094 11.6953125,25.8222656 14.4609375,27.3457031 L14.4609375,23.4375 L12.9726562,22.4648438 C12.6152344,22.7636719 12.1699219,22.9101563 11.7304687,22.9101563 C11.2324219,22.9101563 10.7285156,22.7167969 10.3476562,22.3359375 C9.5859375,21.5742188 9.5859375,20.3320313 10.3476562,19.5703125 C11.109375,18.8085938 12.3515625,18.8085938 13.1132812,19.5703125 C13.6289062,20.0859375 13.7929687,20.8242188 13.6113281,21.4804688 L15.3691406,22.6230469 C15.5332031,22.734375 15.6328125,22.9160156 15.6328125,23.1152344 L15.6328125,27.9667969 C15.9726562,28.1367188 16.3242187,28.3125 16.6875,28.4882813 L16.6875,13.3769531 C16.6875,13.0546875 16.9511719,12.7910156 17.2734375,12.7910156 C17.5957031,12.7910156 17.859375,13.0546875 17.859375,13.3769531 C17.859375,14.5642904 17.859375,15.4547933 17.859375,16.0484619 C17.859375,18.8128662 17.859375,22.9594727 17.859375,28.4882813 C22.4179687,26.296875 25.265625,24.1523438 26.7890625,21.7792969 C28.1894531,19.59375 28.3476562,17.4140625 28.40625,14.7890625 L28.40625,6.3515625 L17.2734375,1.23046875 L6.140625,6.3515625 L6.140625,7.78710938 C6.421875,7.734375 4.42382812,8.37890625 4.96875,8.13867188 L4.96875,5.9765625 C4.96875,5.74804688 5.10351562,5.53710938 5.30859375,5.44335938 L17.0273437,0.052734375 C17.1855469,-0.017578125 17.3613281,-0.017578125 17.5195312,0.052734375 L29.2382812,5.44335938 Z M12.2871094,21.5097656 C12.5917969,21.2050781 12.5917969,20.7070312 12.2871094,20.4023438 C12.1347656,20.25 11.9355469,20.1738281 11.7304688,20.1738281 C11.5253906,20.1738281 11.3261719,20.25 11.1738281,20.4023438 C10.8691406,20.7070312 10.8691406,21.2050781 11.1738281,21.5097656 C11.4785156,21.8144531 11.9765625,21.8144531 12.2871094,21.5097656 Z M5.96484375,19.03125 C6.0703125,19.1425781 6.13476563,19.2890625 6.13476563,19.4472656 C6.13476563,19.6054688 6.07617188,19.7519531 5.96484375,19.8632812 C5.85351563,19.96875 5.70117188,20.0332031 5.54882813,20.0332031 C5.390625,20.0332031 5.24414063,19.9746094 5.1328125,19.8632812 C5.02734375,19.7519531 4.96289063,19.6054688 4.96289063,19.4472656 C4.96289063,19.2890625 5.02148438,19.1367188 5.1328125,19.03125 C5.24414063,18.9257812 5.390625,18.8613281 5.54882813,18.8613281 C5.70703125,18.8613281 5.85351563,18.9199219 5.96484375,19.03125 Z M6.9375,26.6132812 C7.69921875,27.375 7.69921875,28.6171875 6.9375,29.3789062 C6.55664063,29.7597656 6.05273438,29.953125 5.5546875,29.953125 C5.05664063,29.953125 4.55273438,29.7597656 4.171875,29.3789062 C3.41015625,28.6171875 3.41015625,27.375 4.171875,26.6132812 C4.40039063,26.3847656 4.67578125,26.2265625 4.96289063,26.1328125 L4.96289063,21.7617188 C4.96289063,21.4394531 5.2265625,21.1757812 5.54882813,21.1757812 C5.87109375,21.1757812 6.13476563,21.4394531 6.13476563,21.7617188 L6.13476563,26.1328125 C6.42773438,26.2207031 6.703125,26.3847656 6.9375,26.6132812 Z M6.11132813,28.5585937 C6.41601563,28.2480469 6.41601563,27.75 6.1171875,27.4511719 C5.96484375,27.2988281 5.765625,27.2226562 5.56054688,27.2226562 C5.35546875,27.2226562 5.15625,27.2988281 5.00390625,27.4511719 C4.69921875,27.7558594 4.69921875,28.2539062 5.00390625,28.5585937 C5.30859375,28.8632812 5.80664063,28.8632812 6.11132813,28.5585937 Z" id="protection-copy"></path>
            </g>
            <g id="分组-41-copy" transform="translate(151.000000, 325.000000)" fill="#4DA1FF" fill-rule="nonzero">
                <path d="M31.2237017,27.1052967 L31.2220473,24.5935307 C31.2286513,24.5323906 31.2319647,24.4709495 31.2319738,24.4094648 L31.2319738,24.4094464 C31.2320299,24.3717671 31.2287071,24.3341565 31.2220441,24.2970527 L31.2187353,21.8162358 C31.2270073,21.7461931 31.2319706,21.6777792 31.2319706,21.6109942 C31.2319706,19.3468212 26.4589891,18.0355556 21.5073311,17.8417163 C22.6621113,15.5417074 23.1948323,13.5283853 22.6306775,12.4239901 C22.613539,12.2756487 22.5395783,12.1393295 22.4238759,12.0428272 L20.274796,10.2363933 C20.2173514,10.1894079 20.1517832,10.152991 20.0812297,10.1288858 C19.8330677,9.94970668 19.4326998,9.77541422 18.8338023,9.83568358 C16.7906023,10.0360385 13.2005261,12.9762056 9.90328106,17.1527089 C6.24537398,21.7885624 3.50897491,27.2975071 5.35860862,28.8596236 C5.38817945,28.8858005 5.4197017,28.9097581 5.45291017,28.9312952 L7.36541157,30.5325053 C7.39209384,30.5672034 7.42200253,30.5993778 7.45474982,30.6286105 C7.75916181,30.8892347 8.12644149,31 8.53011826,30.9983711 C9.50953074,30.9983711 10.7073257,30.3500683 11.757878,29.6040315 C13.7514456,30.4787515 16.9725877,31 20.3839872,31 C25.0031083,31 29.6702073,30.0487216 30.9143258,28.2178363 C31.1049933,28.1145652 31.2235201,27.9173625 31.2237011,27.7031035 L31.2237011,27.4196746 C31.2303187,27.3561475 31.235282,27.2926203 31.235282,27.2258353 L31.235282,27.2258344 C31.2355409,27.185374 31.2316609,27.1449907 31.2237009,27.1052957 L31.2237017,27.1052967 Z M8.05782683,30.0814798 L7.17069283,29.3562831 C9.29181022,28.6551526 12.4701512,25.9645445 15.4133683,22.3177035 L15.4133687,22.317703 C16.3257113,21.1951172 17.1719253,20.0241983 17.9480269,18.8104715 C18.1093569,18.5277405 18.0019232,18.172708 17.7080674,18.0174856 C17.4318516,17.8715809 17.0855285,17.9532997 16.9108141,18.2056064 L16.9108145,18.2056056 C16.1573916,19.3821876 15.3368135,20.5177141 14.452853,21.6069707 C11.0193777,25.8602564 7.74932168,28.2283766 6.29188725,28.3695654 C6.11846256,28.387214 5.98505895,28.3695654 5.89667906,28.318224 L5.86833079,28.298971 L5.85832552,28.2925533 C5.05790387,27.6299289 6.50866812,23.4295639 10.607494,18.3563958 C14.045972,14.1014806 17.316028,11.7349648 18.7717949,11.593776 C18.9719003,11.5761274 19.1169767,11.6001937 19.2036891,11.6723925 C19.4338103,11.8617137 19.6155727,12.8019024 18.6517316,15.0079764 C18.5225511,15.302723 18.6661702,15.6424183 18.9725126,15.766708 C18.9739732,15.7673006 18.9754363,15.7678876 18.9769018,15.7684691 C19.2836545,15.8941023 19.6381798,15.7566901 19.7687564,15.4615516 C19.7693951,15.460108 19.7700277,15.4586618 19.7706543,15.4572133 C20.2358993,14.3950889 20.5060417,13.4934062 20.5827487,12.7569786 L21.183065,13.2495348 C21.2176282,13.3099732 21.2634078,13.3638077 21.3181361,13.4083721 C22.1185578,14.0709965 20.6677935,18.2713615 16.5706352,23.3509473 C15.1515543,25.1045757 13.645761,26.6720916 12.2100047,27.8818224 C9.91379508,29.8295852 8.50471946,30.2579647 8.05781737,30.0814787 L8.05782683,30.0814798 Z M26.5187589,24.4743091 C26.6175804,24.7793038 26.9473356,24.9481784 27.2567159,24.8522325 C28.2417351,24.5492558 28.9522408,24.214387 29.4608983,23.8731396 L29.4608983,24.9144224 C29.2768127,25.7723246 26.6479417,27.0304748 21.861717,27.306343 C21.5388431,27.3295785 21.2961737,27.6068878 21.3197041,27.9257284 C21.3417893,28.225 21.5918005,28.457988 21.8956275,28.462438 L21.9311528,28.4608434 C24.8910549,28.2902197 27.8687197,27.6667257 29.4625131,26.5999291 L29.4641279,27.6826719 C29.2315987,28.7111977 25.6193232,30.1176471 20.0596162,30.1176471 C17.2111343,30.1176471 14.5273606,29.7349398 12.7058824,29.0827427 L12.7058826,29.0827425 C13.2699121,28.6090152 13.8150461,28.113778 14.3400457,27.5981571 C15.6738586,27.8788091 17.2192085,28.0590005 18.8291498,28.122785 L18.8533716,28.122785 C19.1762101,28.1289498 19.4429854,27.8755035 19.4492275,27.5566972 C19.4554702,27.2378915 19.1988179,26.9744489 18.8759786,26.9682847 L18.8759776,26.9682846 C17.679593,26.9251122 16.4874245,26.803656 15.3073013,26.6047152 L15.3073029,26.6047134 C15.6315746,26.2587171 15.9486756,25.9062352 16.2584117,25.5474845 L16.30847,25.5554576 C17.5098706,25.7037567 18.7677886,25.7771089 20.053158,25.7771089 C21.6404923,25.7771089 23.1616203,25.6670805 24.572943,25.4486185 C24.8927034,25.3995223 25.1121301,25.1044285 25.0638379,24.7884484 C25.010175,24.4740054 24.7114689,24.2598662 24.392087,24.306875 C22.162068,24.6513115 19.5445005,24.7135015 17.1481586,24.4822825 L17.1481589,24.4822821 C18.4142442,22.9242871 19.5509751,21.2679643 20.5472827,19.5294118 C25.9987991,19.6410347 29.4705882,21.1064848 29.4705882,22.0807938 C29.4705882,22.4858257 28.7972226,23.1683203 26.903079,23.7503544 C26.5947812,23.8449561 26.4225163,24.1684496 26.5183135,24.4728963 C26.5184618,24.4733674 26.5186106,24.4738384 26.5187601,24.4743091 L26.5187589,24.4743091 Z" id="形状-copy"></path>
                <path d="M27.7871258,10.0587616 C27.8038795,9.91342617 27.812315,9.76775553 27.812315,9.62253191 C27.812315,7.4082488 25.9239463,5.6065036 23.601855,5.6041009 C22.909914,4.03038863 21.7771037,2.68130083 20.3057039,1.68440407 C18.6793028,0.582459048 16.7618201,0 14.7603344,0 C12.5408744,0 10.3769478,0.740254937 8.66718805,2.08453734 C7.10674741,3.31131098 5.98817191,4.9854896 5.48210364,6.8371886 C2.44399519,6.92234474 0,9.30498445 0,12.2215822 C0,15.1918216 2.53473483,17.6083226 5.65046111,17.6083226 L6.82872912,17.6083226 C7.15214652,17.6083226 7.4144655,17.3582184 7.4144655,17.0496112 C7.4144655,16.741004 7.1522051,16.4908997 6.82872912,16.4908997 L5.65046111,16.4908997 C3.18074952,16.4908997 1.17147278,14.5757248 1.17147278,12.2215822 C1.17147278,9.86743962 3.18074952,7.95226466 5.65046111,7.95226466 C5.69445432,7.95226466 5.73827178,7.95332631 5.78208924,7.9545556 C5.82286057,7.95589664 5.86574077,7.95774058 5.91160851,7.96025503 C5.91160851,7.96025503 5.91231147,7.96025503 5.91272152,7.96025503 C7.57796088,8.05323391 9.06412272,9.02560079 9.74669102,10.4915827 C9.84369866,10.6998912 10.0578653,10.8236023 10.2824005,10.8236023 C10.3617757,10.8236023 10.4425569,10.8081244 10.5197646,10.7753806 C10.8154154,10.650105 10.9486251,10.3199853 10.8173485,10.0379754 C10.0520074,8.39419372 8.4858845,7.24190377 6.67208754,6.92368578 C7.69605715,3.52537474 11.000468,1.11742287 14.7603344,1.11742287 C18.2745184,1.11742287 21.4497615,3.23051322 22.6614198,6.37559093 C22.754034,6.61580499 23.0061601,6.76544288 23.272814,6.7385103 C23.3846423,6.7272232 23.4937759,6.72152377 23.5972273,6.72152377 C25.2755299,6.72152377 26.6409008,8.02289284 26.6409008,9.62253191 C26.6409008,9.83514287 26.615653,10.0498772 26.5660362,10.2609794 C26.503239,10.5276232 26.6519723,10.7984577 26.917396,10.9011592 C28.0719393,11.3476701 28.817832,12.4030139 28.817832,13.5898916 C28.817832,15.1895307 27.4524611,16.4908997 25.7741585,16.4908997 C25.4507411,16.4908997 25.1884221,16.7410599 25.1884221,17.0496112 C25.1884221,17.3581625 25.4506826,17.6083226 25.7741585,17.6083226 C28.0984172,17.6083226 29.9893048,15.8056834 29.9893048,13.5898916 C29.9893048,12.0981505 29.1389063,10.7564943 27.7871258,10.0587616 Z" id="Shape-Copy"></path>
            </g>
            <path d="M534.385529,337.682232 L524.129635,337.682232 C523.50961,337.682232 523,337.14658 523,336.486656 L523,334.90541 C523,334.42118 523.271792,333.988373 523.696467,333.804109 C526.291229,332.668526 526.987696,332.124303 527.166059,331.935753 L527.166059,331.76863 C526.843306,331.327252 526.584255,330.787314 526.414385,330.178813 C525.913269,329.621735 525.811347,328.777547 526.15958,328.091912 L526.15958,326.88348 C526.15958,324.907994 527.344422,323.678136 529.255459,323.678136 C531.191975,323.678136 532.351337,324.877997 532.351337,326.88348 L532.351337,328.091912 C532.703817,328.777547 532.601896,329.62602 532.096533,330.178813 C531.922416,330.787314 531.667611,331.327252 531.344858,331.764344 L531.344858,331.961465 C531.472261,332.077165 532.117766,332.617103 534.814451,333.799824 C535.234879,333.984088 535.510917,334.416895 535.510917,334.901125 L535.510917,336.486656 C535.515164,337.14658 535.005555,337.682232 534.385529,337.682232 Z M524.477868,336.190976 L534.037296,336.190976 L534.037296,335.085389 C530.835249,333.671267 530.075081,332.981347 529.896718,332.338564 C529.879731,332.274286 529.871237,332.205722 529.871237,332.141444 L529.871237,331.511517 C529.871237,331.331537 529.934938,331.160129 530.053847,331.023002 C530.346873,330.684469 530.584691,330.183099 530.724833,329.608879 C530.763054,329.450326 530.856482,329.304629 530.983885,329.201783 C531.077313,329.128935 531.132521,328.901818 531.017859,328.73898 C530.92443,328.610423 530.877716,328.46044 530.877716,328.301887 L530.877716,326.887765 C530.877716,325.366512 530.01138,325.173677 529.259705,325.173677 C528.168291,325.173677 527.641695,325.735041 527.641695,326.887765 L527.641695,328.301887 C527.641695,328.46044 527.590734,328.610423 527.501552,328.73898 C527.38689,328.901818 527.442098,329.128935 527.535526,329.201783 C527.662928,329.304629 527.75211,329.446041 527.794578,329.604594 C527.93472,330.174528 528.172538,330.675899 528.465564,331.018716 C528.584473,331.155843 528.648174,331.327252 528.648174,331.507231 L528.648174,332.137159 C528.648174,332.205722 528.63968,332.27 528.622693,332.338564 C528.448577,332.981347 527.684162,333.666982 524.482115,335.085389 L524.482115,336.190976 L524.477868,336.190976 Z M547.720316,357 L537.464421,357 C536.840149,357 536.334786,356.464348 536.334786,355.804424 L536.334786,354.223178 C536.334786,353.738948 536.606578,353.306141 537.031253,353.121877 C539.626016,351.986294 540.322482,351.442071 540.500845,351.253521 L540.500845,351.086398 C540.178093,350.64502 539.923288,350.105082 539.749171,349.500866 C539.248055,348.943788 539.141886,348.095315 539.494366,347.413965 L539.494366,346.205533 C539.494366,344.230047 540.679209,343.000189 542.590245,343.000189 C544.526762,343.000189 545.686124,344.20005 545.686124,346.205533 L545.686124,347.413965 C546.038604,348.0996 545.936682,348.943788 545.431319,349.500866 C545.257202,350.109368 545.002398,350.649305 544.679645,351.086398 L544.679645,351.283518 C544.807047,351.399219 545.452553,351.939156 548.149237,353.121877 C548.573912,353.306141 548.845704,353.738948 548.845704,354.223178 L548.845704,355.804424 C548.845704,356.464348 548.340341,357 547.720316,357 Z M537.812654,355.508744 L547.372083,355.508744 L547.372083,354.403157 C544.170035,352.98475 543.405621,352.294829 543.231504,351.656332 C543.214517,351.592053 543.206023,351.52349 543.206023,351.459212 L543.206023,350.824999 C543.206023,350.64502 543.269725,350.473611 543.388634,350.336484 C543.681659,349.997952 543.919477,349.496581 544.05962,348.922362 C544.09784,348.763809 544.191269,348.618111 544.318671,348.515266 C544.4121,348.442417 544.467307,348.215301 544.352645,348.052462 C544.259217,347.923906 544.212503,347.773923 544.212503,347.61537 L544.212503,346.201248 C544.212503,344.679995 543.346166,344.48716 542.594492,344.48716 C541.503078,344.48716 540.976481,345.048524 540.976481,346.201248 L540.976481,347.61537 C540.976481,347.773923 540.92552,347.923906 540.836338,348.052462 C540.721676,348.211016 540.776884,348.442417 540.870312,348.515266 C540.997715,348.618111 541.086897,348.759524 541.129364,348.918077 C541.273753,349.496581 541.503078,349.985096 541.80035,350.332199 C541.919259,350.465041 541.98296,350.640735 541.98296,350.820714 L541.98296,351.454926 C541.98296,351.52349 541.974467,351.587768 541.95748,351.652047 C541.783363,352.294829 541.018949,352.980464 537.816901,354.398872 L537.816901,355.508744 L537.812654,355.508744 Z M559.878753,337.54939 L549.622859,337.54939 C548.998587,337.54939 548.493224,337.013738 548.493224,336.353814 L548.493224,334.772568 C548.493224,334.288339 548.765016,333.855531 549.185444,333.671267 C551.784453,332.531399 552.476673,331.991461 552.659283,331.802911 L552.659283,331.635788 C552.33653,331.19441 552.077478,330.654473 551.907609,330.045972 C551.406492,329.488893 551.30457,328.644705 551.652804,327.95907 L551.652804,326.750638 C551.652804,324.775152 552.837646,323.545294 554.748683,323.545294 C556.685199,323.545294 557.844561,324.745155 557.844561,326.750638 L557.844561,327.95907 C558.197041,328.644705 558.095119,329.493178 557.589756,330.045972 C557.41564,330.654473 557.160835,331.19441 556.838082,331.635788 L556.838082,331.832908 C556.969731,331.952894 557.61099,332.488546 560.307675,333.671267 C560.728103,333.855531 560.999894,334.288339 560.999894,334.772568 L560.999894,336.353814 C561.008388,337.013738 560.503025,337.54939 559.878753,337.54939 Z M549.971092,336.062419 L559.53052,336.062419 L559.53052,334.956833 C556.328472,333.54271 555.568305,332.85279 555.389941,332.210007 C555.372954,332.145729 555.364461,332.077165 555.364461,332.008602 L555.364461,331.378675 C555.364461,331.198696 555.428162,331.027287 555.547071,330.89016 C555.840097,330.551627 556.077914,330.050257 556.218057,329.476037 C556.256278,329.317484 556.349706,329.171787 556.477109,329.068942 C556.570537,328.996093 556.625745,328.768976 556.511083,328.606138 C556.417654,328.477581 556.37094,328.327599 556.37094,328.169046 L556.37094,326.754923 C556.37094,325.23367 555.504604,325.040836 554.752929,325.040836 C553.661515,325.040836 553.134919,325.602199 553.134919,326.754923 L553.134919,328.169046 C553.134919,328.327599 553.083958,328.477581 552.994776,328.606138 C552.880114,328.768976 552.935321,328.996093 553.02875,329.068942 C553.156152,329.171787 553.249581,329.313199 553.287801,329.471752 C553.427944,330.041686 553.665762,330.543057 553.958788,330.885875 C554.077696,331.023002 554.141398,331.19441 554.141398,331.37439 L554.141398,332.004317 C554.141398,332.07288 554.132904,332.137159 554.115917,332.205722 C553.937554,332.848505 553.177386,333.53414 549.975339,334.952547 L549.975339,336.062419 L549.971092,336.062419 Z M548.633366,326.150707 C548.505964,326.150707 548.378562,326.116426 548.263899,326.047862 C544.722112,323.965246 540.114391,323.965246 536.572604,326.047862 C536.224371,326.257838 535.769969,326.133566 535.561878,325.777893 C535.358035,325.42222 535.476943,324.967987 535.829423,324.758011 C539.821366,322.413996 545.015138,322.413996 549.00708,324.758011 C549.35956,324.963702 549.478469,325.42222 549.274625,325.777893 C549.134483,326.017866 548.888171,326.150707 548.633366,326.150707 Z M550.374533,349.663705 C550.136715,349.663705 549.898897,349.548004 549.758754,349.329458 C549.67382,349.205186 549.635599,349.059489 549.635599,348.918077 C549.635599,348.678104 549.750261,348.438132 549.966845,348.29672 C552.850386,346.368371 554.727449,343.287299 555.113903,339.846268 C555.160617,339.439172 555.521591,339.139207 555.929278,339.190629 C556.307239,339.233481 556.583277,339.554873 556.583277,339.927687 C556.583277,339.957683 556.583277,339.983395 556.579031,340.013391 C556.141616,343.8958 554.026735,347.366827 550.782221,349.539433 C550.659065,349.625138 550.514675,349.663705 550.374533,349.663705 Z M534.457724,349.663705 C534.317581,349.663705 534.177439,349.625138 534.050036,349.539433 C530.801275,347.366827 528.690641,343.8958 528.253226,340.013391 C528.24898,339.983395 528.24898,339.957683 528.24898,339.927687 C528.24898,339.554873 528.525018,339.233481 528.902979,339.190629 C529.31916,339.143492 529.675887,339.439172 529.718354,339.846268 C530.104808,343.287299 531.98187,346.368371 534.865412,348.29672 C535.077749,348.438132 535.196658,348.678104 535.196658,348.918077 C535.196658,349.059489 535.158437,349.200901 535.073502,349.329458 C534.93336,349.548004 534.695542,349.663705 534.457724,349.663705 Z" id="形状-copy-2" fill="#4DA1FF" fill-rule="nonzero"></path>
        </g>
    </g>
</svg>