<svg t="1629358170359" class="icon" viewBox="0 0 1024 1024" version="1.1" xmlns="http://www.w3.org/2000/svg" p-id="14878" width="200" height="200"><path d="M512 1019.623c-279.9 0-507.623-227.725-507.624-507.624s227.725-507.623 507.624-507.624 507.623 227.725 507.624 507.624-227.725 507.623-507.624 507.624zM512 67.829c-244.921 0-444.171 199.251-444.171 444.171s199.251 444.171 444.171 444.171 444.171-199.251 444.171-444.171-199.251-444.171-444.171-444.171z" p-id="14879"></path><path d="M437.966 769.39c-8.118 0-16.235-3.099-22.432-9.295-12.393-12.393-12.393-32.471 0-44.863l177.222-177.222c12.363-12.363 12.363-32.501 0-44.863l-177.221-177.223c-12.393-12.393-12.393-32.471 0-44.865s32.471-12.393 44.863 0l177.222 177.222c37.117 37.102 37.117 97.487 0 134.591l-177.221 177.222c-6.196 6.197-14.314 9.295-22.432 9.295z" p-id="14880"></path></svg>
