<svg xmlns="http://www.w3.org/2000/svg" width="64" height="64" viewBox="0 0 64 64">
  <defs>
    <style>
      .cls-1 {
        fill: #e6e6e6;
        opacity: 0;
      }

      .cls-2 {
        fill: #a100ff;
        fill-rule: evenodd;
      }
    </style>
  </defs>
  <g id="Install" transform="translate(-441 -350)">
    <rect id="矩形_123" data-name="矩形 123" class="cls-1" width="64" height="64" transform="translate(441 350)"/>
    <path id="路径_94" data-name="路径 94" class="cls-2" d="M928.239,225.846a5.216,5.216,0,0,0-5.322,5.247,5.358,5.358,0,0,0,5.322,5.247,5.215,5.215,0,0,0,5.32-5.247A5.087,5.087,0,0,0,928.239,225.846Zm0,7.872a2.843,2.843,0,0,1-2.661-2.624,2.679,2.679,0,0,1,2.661-2.624,2.544,2.544,0,0,1,2.659,2.624A2.677,2.677,0,0,1,928.239,233.718Zm12.447-.219-1.785-1.094v-2.842l1.785-1.094c.445-.218.668-.437.668-.874a1.3,1.3,0,0,0-.223-.874l-2.675-4.592c0-.218-.447-.437-.669-.655a2.049,2.049,0,0,0-1.114.218l-1.785,1.094a9.2,9.2,0,0,0-2.453-1.531v-1.968a1.17,1.17,0,0,0-1.337-1.311h-5.351a1.274,1.274,0,0,0-1.338,1.311v1.968a16.656,16.656,0,0,0-2.675,1.531l-1.783-1.094a1.179,1.179,0,0,0-1.783.437l-2.675,4.592a1.291,1.291,0,0,0-.224.874c0,.437.224.656.669.874l1.783,1.094c0,.437-.222.874-.222,1.531,0,.437.222.874.222,1.311l-1.783,1.094c-.445.219-.669.437-.669.874-.223.219,0,.656,0,.876l2.675,4.591a1.468,1.468,0,0,0,2.007.437l1.783-1.092a16.9,16.9,0,0,0,2.675,1.531V242.9a1.424,1.424,0,0,0,1.338,1.311H931.1a1.271,1.271,0,0,0,1.337-1.311v-2.186a9.276,9.276,0,0,0,2.453-1.531l1.785,1.092a2.036,2.036,0,0,0,1.114.219,3.078,3.078,0,0,0,.892-.656l2.675-4.591A1.452,1.452,0,0,0,940.685,233.5Zm-4.46-2.405v1.75a1.041,1.041,0,0,0,.447,1.311l1.559.874-1.337,2.405-1.338-.874a1.09,1.09,0,0,0-1.561.218,8.771,8.771,0,0,1-3.12,1.75,1.393,1.393,0,0,0-1.116,1.311v1.75h-2.675v-1.75a1.2,1.2,0,0,0-.892-1.311,11.867,11.867,0,0,1-3.344-1.75,1.393,1.393,0,0,0-1.561-.218l-1.561.874-1.338-2.405,1.561-.874a1.041,1.041,0,0,0,.447-1.311c0-.657-.224-1.313-.224-1.75a6.293,6.293,0,0,1,.447-1.968,1.545,1.545,0,0,0-.669-1.311l-1.561-.874,1.338-2.407,1.561.876a1.117,1.117,0,0,0,1.561-.219,11.908,11.908,0,0,1,3.344-1.75,1.2,1.2,0,0,0,.892-1.311V220.6h2.675v1.531a1.476,1.476,0,0,0,.892,1.311A11.9,11.9,0,0,1,934,225.19a1.09,1.09,0,0,0,1.561.219l1.338-.876,1.337,2.407-1.559.874a1.546,1.546,0,0,0-.669,1.311A5.951,5.951,0,0,1,936.226,231.094Zm-4,15.6H888.8l1.553-4.97a1.233,1.233,0,0,0-.892-1.52,1.273,1.273,0,0,0-1.559.868l-2.037,5.957a1.256,1.256,0,0,0-.412.975v26.24a1.424,1.424,0,0,0,1.337,1.311h45.433a1.271,1.271,0,0,0,1.335-1.311V248A1.17,1.17,0,0,0,932.224,246.692Zm-1.337,26.24H888.126V249.315h42.761Zm-27.794-40.526a1.172,1.172,0,0,1,1.34-1.311h7.815a1.171,1.171,0,0,1,1.34,1.311,1.273,1.273,0,0,1-1.34,1.313h-7.815A1.274,1.274,0,0,1,903.093,232.405Zm-6.046,3.062,7.529,7.431a1.693,1.693,0,0,0,.892.44,1.161,1.161,0,0,0,.892-.44,1.224,1.224,0,0,0,0-1.981l-7.346-7.447a11.637,11.637,0,0,0,2.476-7.187,11.869,11.869,0,0,0-12.027-11.808,11.81,11.81,0,1,0,0,23.615A12.133,12.133,0,0,0,897.047,235.467Zm-16.938-9.183a9.326,9.326,0,0,1,9.354-9.185,9.18,9.18,0,0,1,7.1,15.2,1.1,1.1,0,0,0-.461.256,1.95,1.95,0,0,0-.2.426,9.42,9.42,0,0,1-15.792-6.7Zm30.731,44.024h15.993a1.271,1.271,0,0,0,1.333-1.313v-5.247a1.169,1.169,0,0,0-1.333-1.311H910.84a1.271,1.271,0,0,0-1.334,1.311v5.247A1.423,1.423,0,0,0,910.84,270.307Zm1.332-5.247H925.5v2.623H912.172Z" transform="translate(-436.437 136.524)"/>
  </g>
</svg>
