<svg xmlns="http://www.w3.org/2000/svg" width="64" height="64.499" viewBox="0 0 64 64.499">
  <defs>
    <style>
      .cls-1 {
        fill: #e6e6e6;
        opacity: 0;
      }

      .cls-2 {
        fill: #a100ff;
        fill-rule: evenodd;
      }
    </style>
  </defs>
  <g id="FAQ" transform="translate(-441 -350)">
    <rect id="矩形_123" data-name="矩形 123" class="cls-1" width="64" height="64" transform="translate(441 350)"/>
    <path id="路径_95" data-name="路径 95" class="cls-2" d="M273.131,73.084a9.388,9.388,0,0,1-8.093,9.162v2.012a1.349,1.349,0,0,1-2.7,0V80.905a1.447,1.447,0,0,1,1.349-1.341,6.595,6.595,0,1,0,0-13.186,6.939,6.939,0,0,0-6.742,6.929,1.349,1.349,0,0,1-2.7,0,9.442,9.442,0,1,1,18.882-.224Zm14.651,5.132a24.2,24.2,0,0,1-18.292,23.516l-4.461,15.9a1.448,1.448,0,0,1-2.678,0l-4.461-15.9a24.192,24.192,0,1,1,29.892-23.516Zm-2.676,0a21.416,21.416,0,1,0-25.877,21.052.962.962,0,0,1,.893.9l3.568,12.093,3.346-12.093a1.483,1.483,0,0,1,1.115-.9A21.555,21.555,0,0,0,285.105,78.216Zm-21.416,9.347a2.72,2.72,0,0,0,0,5.438,2.72,2.72,0,0,0,0-5.438Z" transform="translate(209.403 295.971)"/>
  </g>
</svg>
