<svg t="1663322130624" class="icon" viewBox="0 0 1024 1024" version="1.1" xmlns="http://www.w3.org/2000/svg" p-id="20128" width="200" height="200"><path d="M907.9 410.3v-21.1c0-20.5-10.6-38.6-26.8-50.4 1.1-2.7 1.7-5.6 1.7-8.6 0.1-191.2-152-324.7-369.7-324.7-211.8 0-365.9 140.8-369.5 335.6-15.4 12.8-25.4 31.8-25.4 53.3v16c-53 13.6-92.9 73-92.9 144.1 0 73.3 42.5 134.2 98.1 145.2 10.5 25.5 35.5 43.1 64.4 43.1 38.4 0 69.6-31.2 69.6-69.6V394.3c0-37.4-29.7-67.8-66.8-69.3C202.2 165.4 334 51.7 513.1 51.7c159.6 0 320.3 84.7 323.3 273.3-37.4 1-67.6 29.3-67.6 64.2v289.1c0 8.5 1.9 16.6 5.1 24.1-3 3.9-5.1 8.6-5.1 13.9v49.8c0 57.2-41.6 104.7-96.1 114.3-11.5-51.9-57.8-90.9-113.1-90.9-64 0-116 52.1-116 116s52 116 116 116c56.6 0 103.7-40.8 113.8-94.4 79.7-10.3 141.6-78.5 141.6-161v-27.4c7.3 2.4 15.1 4 23.4 4 30.4 0 56.3-18.1 65.7-43.3 54.8-11.7 96.8-72.2 96.8-145 0-71-40-130.5-93-144.1z m-696.7-16v278.8c0 12.9-10.5 23.4-23.4 23.4-11.9 0-21.9-8.9-23.2-20.8l-2.6-20.6h-20.7c-37.9 0-69.8-46.2-69.8-100.8s32-100.8 69.8-100.8h23.1v-59.2c0-12.9 10.5-23.4 23.4-23.4s23.4 10.5 23.4 23.4z m348.4 581c-38.5 0-69.8-31.3-69.8-69.8s31.3-69.8 69.8-69.8 69.8 31.3 69.8 69.8-31.3 69.8-69.8 69.8z m325.2-320.1h-23.1v23.1c0 9.9-10.7 18.2-23.4 18.2s-23.4-8.3-23.4-18.2V389.2c0-9.9 10.7-18.2 23.4-18.2s23.4 8.3 23.4 18.2v64.4h23.1c37.9 0 69.8 46.2 69.8 100.8s-31.9 100.8-69.8 100.8z" fill="#999999" p-id="20129"></path></svg>