<svg xmlns="http://www.w3.org/2000/svg" width="66.948" height="64" viewBox="0 0 66.948 64">
  <defs>
    <style>
      .cls-1 {
        fill: #e6e6e6;
        opacity: 0;
      }

      .cls-2 {
        fill: #a100ff;
        fill-rule: evenodd;
      }
    </style>
  </defs>
  <g id="Glossary" transform="translate(-441 -350)">
    <rect id="矩形_123" data-name="矩形 123" class="cls-1" width="64" height="64" transform="translate(441 350)"/>
    <path id="路径_100" data-name="路径 100" class="cls-2" d="M648.516,430.35a1.4,1.4,0,0,1-1.39.694h-.463a63.059,63.059,0,0,0-21.773-3.7,1.493,1.493,0,0,1-1.39-1.39V380.1a1.493,1.493,0,0,1,1.39-1.39c12.972,0,26.4,3.011,30.575,7.873,4.4-4.862,17.6-7.873,30.575-7.873a1.335,1.335,0,0,1,1.39,1.39V425.95a1.335,1.335,0,0,1-1.39,1.39h-2.547l-.233-2.778h1.39V381.49c-15.679.229-27.679,4.59-27.785,8.284,0,.021.01.039.01.06v1.411a1.357,1.357,0,0,1-1.411,1.411,1.517,1.517,0,0,1-1.411-1.411v-1.411c0-.017.013-.033.013-.052-.091-3.7-12.1-8.064-27.787-8.293v43.071A56.71,56.71,0,0,1,647.82,428.5C648.516,428.73,648.747,429.424,648.516,430.35Zm.006-32.836a1.476,1.476,0,0,0,.692-2.786,74.745,74.745,0,0,0-18.459-3.482,1.687,1.687,0,0,0-1.615,1.392,1.493,1.493,0,0,0,1.384,1.394c6.921.463,13.153,1.625,17.535,3.482Zm-5.259,6.736a1.717,1.717,0,0,0,1.39-1.174,1.765,1.765,0,0,0-1.159-1.646,66.2,66.2,0,0,0-12.733-1.88,1.7,1.7,0,0,0-1.621,1.411,1.5,1.5,0,0,0,1.388,1.409,61.392,61.392,0,0,1,12.272,1.88Zm-12.731,6.368a63.179,63.179,0,0,1,9.519,1.153h.231a1.47,1.47,0,0,0,1.394-1.153,1.736,1.736,0,0,0-1.162-1.612c-3.017-.461-6.267-.923-9.749-1.153a1.746,1.746,0,0,0-1.625,1.153A1.544,1.544,0,0,0,630.532,410.619Zm0,8.305c3.485.231,6.736.692,9.755,1.153h.463a1.24,1.24,0,0,0,1.162-1.153,1.309,1.309,0,0,0-.929-1.612c-3.252-.461-6.734-.923-10.219-1.153a1.394,1.394,0,1,0-.233,2.766ZM681.87,392.6a1.319,1.319,0,0,0-1.386-1.359,77.989,77.989,0,0,0-11.1,1.359,1.4,1.4,0,0,0-1.155,1.81,1.561,1.561,0,0,0,1.388.906h.231a74.619,74.619,0,0,1,10.865-1.359C681.408,393.961,682.1,393.282,681.87,392.6Zm-4.349,9.924h.231c.914,0,2.061-.231,2.975-.231a1.144,1.144,0,0,0,1.145-1.373,1.318,1.318,0,0,0-1.373-1.373c-.916,0-2.061.229-2.978.229a1.249,1.249,0,0,0-1.145,1.6A1.083,1.083,0,0,0,677.521,402.528ZM690.1,442.1a1.767,1.767,0,0,1-1.166.231A1.412,1.412,0,0,1,688,442.1l-15.177-14.985a18.09,18.09,0,1,1,1.972-1.978c15.266,14.856,15.3,14.892,15.3,14.892A1.7,1.7,0,0,1,690.1,442.1Zm-29.071-13.365a15.314,15.314,0,1,0-15.314-15.314A15.3,15.3,0,0,0,661.027,428.732Zm5.579-22.287H655.448a1.5,1.5,0,0,0-1.394,1.384v5.537a1.5,1.5,0,0,0,1.394,1.384,1.334,1.334,0,0,0,1.394-1.384v-4.154h2.853v11.177h-2.84a1.346,1.346,0,0,0-1.39,1.411,1.508,1.508,0,0,0,1.39,1.411H665.2a1.347,1.347,0,0,0,1.39-1.411,1.239,1.239,0,0,0-1.39-1.411h-2.685V409.213h2.695v4.154a1.5,1.5,0,0,0,1.4,1.384A1.336,1.336,0,0,0,668,413.366v-5.537A1.335,1.335,0,0,0,666.606,406.445Z" transform="translate(-182.499 -28.71)"/>
  </g>
</svg>
