<svg t="1663321920715" class="icon" viewBox="0 0 1024 1024" version="1.1" xmlns="http://www.w3.org/2000/svg" p-id="18488" width="200" height="200"><path d="M842.642 761.814H181.357c-46.407 0-84.163-37.756-84.163-84.162V196.72c0-46.408 37.756-84.164 84.163-84.164h661.284c46.407 0 84.164 37.756 84.164 84.164v480.933c0.001 46.406-37.756 84.161-84.163 84.161zM181.357 160.649c-19.889 0-36.069 16.18-36.069 36.07v480.933c0 19.888 16.181 36.07 36.069 36.07h661.284c19.89 0 36.071-16.183 36.071-36.07V196.72c0-19.891-16.182-36.07-36.071-36.07H181.357zM902.758 911.444H121.241c-13.281 0-24.047-10.766-24.047-24.046 0-13.282 10.766-24.047 24.047-24.047h781.517c13.281 0 24.048 10.765 24.048 24.047 0 13.281-10.767 24.046-24.048 24.046z" p-id="18489"></path><path d="M705.836 396.826l-39.967-4.902a157.85 157.85 0 0 0-12.546-31.215l24.811-31.747c5.993-7.669 4.408-19.745-3.223-27.377l-25.837-25.838c-7.633-7.632-19.711-9.216-27.379-3.223l-30.844 24.104a158.107 158.107 0 0 0-31.969-13.67l-4.764-38.833c-1.185-9.659-10.844-17.079-21.637-17.079H495.94c-10.793 0-20.452 7.42-21.638 17.079l-4.652 37.936a158.072 158.072 0 0 0-32.959 13.411L406.44 271.83c-7.668-5.993-19.746-4.41-27.378 3.223l-25.837 25.838c-7.631 7.632-9.216 19.708-3.224 27.377l23.464 30.022a158.151 158.151 0 0 0-13.635 32.865l-38.227 4.688c-9.661 1.186-17.079 10.845-17.079 21.638v36.541c-0.001 10.792 7.418 20.452 17.079 21.636l38.529 4.727a158.035 158.035 0 0 0 13.458 32.067l-24.283 31.071c-5.993 7.668-4.409 19.746 3.222 27.376l25.838 25.838c7.633 7.635 19.709 9.217 27.378 3.223l31.497-24.614a158.19 158.19 0 0 0 31.142 12.749l4.938 40.263c1.186 9.66 10.845 17.082 21.638 17.081h36.54c10.792 0.001 20.452-7.421 21.638-17.081l4.975-40.566a158.253 158.253 0 0 0 30.35-12.564l32.539 25.43c7.67 5.993 19.747 4.408 27.376-3.226l25.839-25.835c7.634-7.635 9.216-19.711 3.223-27.379l-25.249-32.308a158.06 158.06 0 0 0 12.777-30.256l40.869-5.012c9.662-1.185 17.08-10.846 17.078-21.639l0.001-36.539c0-10.793-7.418-20.454-17.08-21.638zM513.723 521.689c-47.192 0-85.448-38.256-85.448-85.446 0-47.191 38.256-85.446 85.448-85.446 47.19 0 85.444 38.255 85.444 85.446 0 47.191-38.254 85.446-85.444 85.446z" p-id="18490"></path></svg>