<?xml version="1.0" standalone="no"?><!DOCTYPE svg PUBLIC "-//W3C//DTD SVG 1.1//EN" "http://www.w3.org/Graphics/SVG/1.1/DTD/svg11.dtd"><svg t="1689327261816" class="icon" viewBox="0 0 1024 1024" version="1.1" xmlns="http://www.w3.org/2000/svg" p-id="7382" xmlns:xlink="http://www.w3.org/1999/xlink" width="200" height="200"><path d="M458.091 927.64H140.025c-24.262 0-44-19.738-44-44V438.593c0-24.262 19.738-44 44-44h318.066c24.262 0 44 19.738 44 44V883.64c0 24.261-19.738 44-44 44z m-298.066-64h278.066V458.593H160.025V863.64z" p-id="7383"></path><path d="M138.608 543.979h309.479v64H138.608zM884.174 842.574H473.092v-64h391.082V220.106H619v-64h265.174c24.262 0 44 19.738 44 44v598.468c0 24.262-19.738 44-44 44zM311.602 426.595h-64V200.106c0-24.262 19.738-44 44-44H554v64H311.602v206.489z" p-id="7384"></path><path d="M753.078 332.1H410.091V156.284h93v64h-29V268.1h214.987v-79.816h64z" p-id="7385"></path><path d="M553.599 211.273h-64v-69.62c0-24.629 20.037-44.667 44.666-44.667h106.068c24.63 0 44.667 20.038 44.667 44.667v63.287h-64v-43.954h-67.401v50.287zM695.33 736.078c-54.724 0-99.245-44.521-99.245-99.246 0-54.724 44.521-99.245 99.245-99.245s99.245 44.521 99.245 99.245c0 54.725-44.521 99.246-99.245 99.246z m0-144.491c-24.948 0-45.245 20.297-45.245 45.245 0 24.949 20.297 45.246 45.245 45.246s45.245-20.297 45.245-45.246c0-24.948-20.297-45.245-45.245-45.245zM638.795 512.554c-14.912 0-27-12.088-27-27v-38.871c0-14.912 12.088-27 27-27s27 12.088 27 27v38.871c0 14.911-12.088 27-27 27zM749.58 510.336c-14.912 0-27-12.088-27-27v-68.739c0-14.912 12.088-27 27-27s27 12.088 27 27v68.739c0 14.912-12.088 27-27 27z" p-id="7386"></path></svg>