<svg xmlns="http://www.w3.org/2000/svg" width="64" height="64" viewBox="0 0 64 64">
  <defs>
    <style>
      .cls-1 {
        fill: #e6e6e6;
        opacity: 0;
      }

      .cls-2 {
        fill: #a100ff;
        fill-rule: evenodd;
      }
    </style>
  </defs>
  <g id="UserManual" transform="translate(-441 -350)">
    <rect id="矩形_123" data-name="矩形 123" class="cls-1" width="64" height="64" transform="translate(441 350)"/>
    <path id="路径_97" data-name="路径 97" class="cls-2" d="M251.16,426.567h23.932a1.277,1.277,0,0,0,1.331-1.327c0-8.217-4.246-12.078-8.389-13.658a8.1,8.1,0,0,0,3.129-6.273,8,8,0,0,0-8.037-8.039,7.93,7.93,0,0,0-4.814,14.312c-4.13,1.581-8.481,5.443-8.481,13.658A1.427,1.427,0,0,0,251.16,426.567Zm6.607-21.258a5.291,5.291,0,0,1,5.359-5.359,5.159,5.159,0,0,1,5.358,5.359,5.277,5.277,0,0,1-5.176,5.339c-.058,0-.123-.007-.181-.007s-.116.007-.172.007A5.427,5.427,0,0,1,257.767,405.309Zm5.028,8c.111.005.219.036.332.036s.23-.031.348-.036c3.6.136,9.645,2.46,10.289,10.6H252.711C253.14,415.772,259.381,413.448,262.795,413.31ZM289.812,386.6H244.479a4,4,0,1,1,0-8h45.333a1.281,1.281,0,0,0,1.333-1.334,1.178,1.178,0,0,0-1.333-1.333H244.479a6.686,6.686,0,0,0-6.668,6.667c0,.221.223.444.223.888a.778.778,0,0,0-.223.444v49.334a6.836,6.836,0,0,0,6.668,6.667h45.333a1.281,1.281,0,0,0,1.333-1.334V387.937A1.178,1.178,0,0,0,289.812,386.6Zm-1.334,50.667h-44a4.132,4.132,0,0,1-4-4V387.937a8.562,8.562,0,0,0,4,1.334h44ZM287.107,381.2a1.188,1.188,0,0,1,1.334,1.353,1.292,1.292,0,0,1-1.334,1.352H244.4a1.445,1.445,0,0,1-1.334-1.352A1.289,1.289,0,0,1,244.4,381.2Z" transform="translate(208.189 -25.938)"/>
  </g>
</svg>
