<svg xmlns="http://www.w3.org/2000/svg" width="64" height="64" viewBox="0 0 64 64">
  <defs>
    <style>
      .cls-1 {
        fill: #e6e6e6;
        opacity: 0;
      }

      .cls-2 {
        fill: #a100ff;
        fill-rule: evenodd;
      }
    </style>
  </defs>
  <g id="QuickStart" transform="translate(-441 -350)">
    <rect id="矩形_123" data-name="矩形 123" class="cls-1" width="64" height="64" transform="translate(441 350)"/>
    <path id="路径_98" data-name="路径 98" class="cls-2" d="M943.874,383.035h-4.1v-4.255a1.336,1.336,0,0,0-1.391-1.391H921.69c-3.941,0-6.724,1.391-8.346,3.943-1.391-2.552-4.174-3.943-8.348-3.943H888.3a1.5,1.5,0,0,0-1.391,1.391v4.255h-4.255a1.5,1.5,0,0,0-1.391,1.391v44.55a1.5,1.5,0,0,0,1.391,1.391h16.694c2.552,0,8.348.7,8.348,6.961a1.5,1.5,0,0,0,1.391,1.393h8.348a1.337,1.337,0,0,0,1.391-1.393c0-6.264,6.029-6.961,8.348-6.961h16.7a1.337,1.337,0,0,0,1.391-1.391v-44.55A1.337,1.337,0,0,0,943.874,383.035Zm-22.184-2.862h15.3V384.1a1.219,1.219,0,0,0-.074.322,1.2,1.2,0,0,0,.074.322v37.188h-15.3c-3.093,0-5.459.869-7.014,2.472V387.472a1.593,1.593,0,0,0,.059-.339C914.735,382.261,917.052,380.173,921.69,380.173Zm-32,0H905c4.738,0,6.824,2,6.936,6.593a1.134,1.134,0,0,0-.08.327V424A10.873,10.873,0,0,0,905,421.936h-15.3Zm52.788,47.41h-15.3c-6.029,0-10.2,3.248-10.9,8.354h-5.8c-.695-5.105-4.869-8.354-11.131-8.354h-15.3V385.819h2.864v37.508a1.5,1.5,0,0,0,1.391,1.393H905c3.85,0,6.082,1.333,6.856,4.289v1.259a1.289,1.289,0,0,0,.29.744c.011.225.042.428.042.668a1.338,1.338,0,0,0,1.391,1.393,1.5,1.5,0,0,0,1.391-1.393c0-4.873,2.086-6.961,6.724-6.961h16.692a1.338,1.338,0,0,0,1.391-1.393V385.819h2.709Z" transform="translate(-440.265 -26.388)"/>
  </g>
</svg>
