<svg xmlns="http://www.w3.org/2000/svg" width="64" height="64" viewBox="0 0 64 64">
  <defs>
    <style>
      .cls-1 {
        fill: #e6e6e6;
        opacity: 0;
      }

      .cls-2 {
        fill: #a100ff;
        fill-rule: evenodd;
      }
    </style>
  </defs>
  <g id="API" transform="translate(-441 -350)">
    <rect id="矩形_123" data-name="矩形 123" class="cls-1" width="64" height="64" transform="translate(441 350)"/>
    <path id="路径_99" data-name="路径 99" class="cls-2" d="M902.247,245.271a1.356,1.356,0,0,1,0,1.769l-6.567,6.631a1.31,1.31,0,0,1-1.97,0,1.352,1.352,0,0,1,0-1.769l5.691-5.746-5.691-5.747a1.352,1.352,0,0,1,0-1.769,1.225,1.225,0,0,1,1.97,0Zm18.829.924H910.438a1.345,1.345,0,0,0,0,2.689h10.638a1.345,1.345,0,0,0,0-2.689Zm-6.664-18.526a2.689,2.689,0,0,0,2.615-2.689,2.554,2.554,0,0,0-2.615-2.689,2.687,2.687,0,0,0-2.615,2.689A2.853,2.853,0,0,0,914.412,227.669Zm7.994,0a2.725,2.725,0,0,0,2.689-2.689,2.59,2.59,0,0,0-2.689-2.689,2.725,2.725,0,0,0-2.689,2.689A2.892,2.892,0,0,0,922.406,227.669Zm7.917,0a2.725,2.725,0,0,0,2.689-2.689,2.59,2.59,0,0,0-2.689-2.689,2.725,2.725,0,0,0-2.689,2.689A2.892,2.892,0,0,0,930.323,227.669Zm10.607-9.282v50.385A1.273,1.273,0,0,1,939.6,270.1H878.613a1.427,1.427,0,0,1-1.327-1.325V218.387a1.427,1.427,0,0,1,1.327-1.325H939.6A1.273,1.273,0,0,1,940.93,218.387Zm-60.992,1.325v10.646h58.34V219.713Zm58.34,47.734V232.9h-58.34v34.549Z" transform="translate(-436.286 137.938)"/>
  </g>
</svg>
