<svg xmlns="http://www.w3.org/2000/svg" width="64" height="64" viewBox="0 0 64 64">
  <defs>
    <style>
      .cls-1 {
        fill: #e6e6e6;
        opacity: 0;
      }

      .cls-2 {
        fill: #a100ff;
        fill-rule: evenodd;
      }
    </style>
  </defs>
  <g id="Management" transform="translate(-441 -350)">
    <rect id="矩形_123" data-name="矩形 123" class="cls-1" width="64" height="64" transform="translate(441 350)"/>
    <path id="路径_96" data-name="路径 96" class="cls-2" d="M942.821,83.92v7.991a1.279,1.279,0,0,1-1.332,1.332h-7.546a29.122,29.122,0,0,1-2,6.216l5.328,5.326a1.04,1.04,0,0,1,0,1.777l-7.548,7.548a1.038,1.038,0,0,1-1.775,0l-6.215-5.994a1.413,1.413,0,0,1,2-2l5.106,5.328,5.771-5.771-5.328-5.106a1.37,1.37,0,0,1-.223-1.554c1.332-2,2.22-5.994,2.665-7.548,0-.443.666-.887,1.109-.887h7.325V85.252h-7.325a1.188,1.188,0,0,1-1.109-1.109c-.445-1.554-1.333-5.328-2.665-7.325a1.68,1.68,0,0,1,.223-1.777l5.328-5.106-5.771-5.549-5.106,5.106a1.677,1.677,0,0,1-1.776.221,31.469,31.469,0,0,0-7.325-2.663,1.188,1.188,0,0,1-1.109-1.109V58.613h-5.328V65.94c0,.443-.221,1.109-.887,1.109a31.5,31.5,0,0,0-7.325,2.663,1.677,1.677,0,0,1-1.776-.221l-5.1-5.106-5.771,5.549,5.326,5.106a1.673,1.673,0,0,1,.222,1.777c-1.332,2-2.22,5.771-2.663,7.325a1.242,1.242,0,0,1-1.332,1.109h-7.325V90.58h7.325c.666,0,1.332.443,1.332.887.443,1.554,1.332,5.55,2.663,7.548a1.365,1.365,0,0,1-.222,1.554l-5.326,5.106,5.771,5.771,5.1-5.328a1.413,1.413,0,0,1,2,2l-6.216,5.994a.885.885,0,0,1-.887.443c-.445,0-.666,0-.888-.443l-7.548-7.325a1.246,1.246,0,0,1,0-2l5.328-5.326a29.023,29.023,0,0,1-2-6.216h-7.769a1.432,1.432,0,0,1-1.332-1.332V83.92a1.279,1.279,0,0,1,1.332-1.332H888a25.489,25.489,0,0,1,2-6.216l-5.328-5.549a1.112,1.112,0,0,1,0-1.777l7.548-7.546a1.347,1.347,0,0,1,1.775,0l5.328,5.326a29.1,29.1,0,0,1,6.215-2V57.282a1.28,1.28,0,0,1,1.332-1.332h7.991a1.177,1.177,0,0,1,1.332,1.332v7.548a25.559,25.559,0,0,1,6.216,2l5.549-5.326a1.038,1.038,0,0,1,1.775,0l7.548,7.546a1.112,1.112,0,0,1,0,1.777l-5.328,5.549a25.563,25.563,0,0,1,2,6.216h7.546A1.177,1.177,0,0,1,942.821,83.92Zm-27.892,25.3h-7.991a1.289,1.289,0,0,0-1.332,1.352,1.443,1.443,0,0,0,1.332,1.35h7.991a1.289,1.289,0,0,0,1.332-1.35A1.186,1.186,0,0,0,914.929,109.222Zm0,5.4h-7.991a1.254,1.254,0,0,0-1.332,1.274,1.4,1.4,0,0,0,1.332,1.276h2.569v1.389a1.434,1.434,0,0,0,1.352,1.313,1.279,1.279,0,0,0,1.35-1.313v-1.389h2.72a1.251,1.251,0,0,0,1.332-1.276Q916.26,114.626,914.929,114.626Zm-9.351-9.437v-2.222c-6.872-2.223-11.526-8.222-11.526-15.111,0-8.888,7.536-16,16.845-16,9.532,0,17.068,7.111,17.068,16,0,6.889-4.656,12.888-11.748,15.111v2.222a1.28,1.28,0,0,1-1.33,1.333h-7.979A1.432,1.432,0,0,1,905.577,105.188Zm1.773-4.445a1.22,1.22,0,0,1,.887,1.333v1.778h5.32v-1.778a1.408,1.408,0,0,1,1.109-1.333c6.206-1.554,10.639-6.887,10.639-12.888,0-7.332-6.429-13.333-14.408-13.333-7.758,0-14.185,6-14.185,13.333C896.711,93.856,901.144,99.189,907.35,100.743Z" transform="translate(-437.895 294.05)"/>
  </g>
</svg>
