<?xml version="1.0" encoding="UTF-8"?>
<svg width="280px" height="80px" viewBox="0 0 280 80" version="1.1" xmlns="http://www.w3.org/2000/svg" xmlns:xlink="http://www.w3.org/1999/xlink">
    <title>logo彩-横版</title>
    <defs>
        <linearGradient x1="-43.5054224%" y1="50%" x2="85.2659862%" y2="50%" id="linearGradient-1">
            <stop stop-color="#01FFFA" offset="0%"></stop>
            <stop stop-color="#0AFFDA" offset="100%"></stop>
        </linearGradient>
        <linearGradient x1="114.501355%" y1="50%" x2="-33.1298382%" y2="50%" id="linearGradient-2">
            <stop stop-color="#0083FF" offset="0%"></stop>
            <stop stop-color="#1910FF" offset="100%"></stop>
        </linearGradient>
        <path d="M64.0303758,25.3244265 L64.0092384,25.3355663 C63.9423938,25.3709586 63.8760836,25.407225 63.8103229,25.4443503 L63.7404104,25.4842683 L63.7404104,25.4842683 L63.719014,25.4966557 C63.6666737,25.5270751 63.6146916,25.5580428 63.5630757,25.589551 C63.3320211,25.7305909 63.1082272,25.8825173 62.8924814,26.0445811 C61.6983727,26.8196875 60.5704551,27.4035293 59.4971997,27.790183 C59.0268112,27.9283804 58.5118924,28.0698049 57.9651701,28.2146087 C57.6012969,28.283456 57.2434359,28.3271254 56.8910302,28.3453626 L56.62774,28.354268 C53.8300365,28.3983092 51.3725545,26.8106133 48.9700757,23.4608851 L49.1266696,23.6750008 C46.0209526,19.0057988 40.7114753,15.9286689 34.6832959,15.9286689 L34.6832959,15.9286689 C25.1099149,15.9286689 17.3491562,23.6894275 17.3491562,33.2628085 C17.3491562,42.8361895 25.1099149,50.5969482 34.6832959,50.5969482 L35.1003353,50.5920298 C40.2291473,50.4709357 44.8066442,48.1221723 47.9025497,44.4760161 L47.9025497,44.4760161 L47.9060217,44.5089767 L48.1048748,44.2727654 C48.8149023,43.4262866 49.3148247,42.7957307 49.6046421,42.3810976 C52.0957841,38.8170945 54.7782942,38.195643 56.2800564,38.0111906 C58.0374224,37.795344 60.5030042,38.4973335 63.6765696,40.1191404 C63.9266098,40.2719445 64.188811,40.4086859 64.4609835,40.5295241 L64.4609835,40.5295241 L64.485613,40.5415642 C65.294892,40.8960515 66.1911799,41.1117451 67.1174594,41.1917064 L67.1207787,41.1759705 C63.7329064,56.2226434 50.286472,67.4625975 34.2148056,67.4625975 C15.5855237,67.4625975 0.483506851,52.3605807 0.483506851,33.7312988 C0.483506851,15.1020169 15.5855237,-3.51514207e-11 34.2148056,-3.51514207e-11 C49.6287171,-3.51514207e-11 62.6278819,10.3387598 66.655953,24.4599324 L66.6130991,24.4662715 C66.5352963,24.4786296 66.4578484,24.4920524 66.3807709,24.5065243 L66.655953,24.4599324 C66.5309878,24.4790904 66.4069281,24.5009956 66.2838375,24.5255845 C66.2036923,24.5413418 66.1238685,24.5585251 66.0444741,24.5768302 C66.0072706,24.5856212 65.9700273,24.5944706 65.9328807,24.6035664 C65.8736196,24.6178888 65.8148062,24.6329845 65.7562448,24.6486955 C65.7016083,24.6635123 65.6467402,24.678825 65.5921014,24.6946765 C65.5254209,24.7138907 65.4596395,24.7338753 65.3942046,24.7546374 C65.356851,24.766603 65.3195763,24.778715 65.2824168,24.7910791 C65.1041167,24.8503157 64.9282471,24.9155456 64.7552611,24.9863654 C64.7117313,25.0042368 64.6685561,25.0223359 64.6255656,25.0407827 C64.5791605,25.0606525 64.5326595,25.0811108 64.4863812,25.1019751 C64.4328747,25.1261328 64.3800848,25.1505998 64.3275947,25.1755945 C64.2276266,25.2231686 64.1282515,25.2729413 64.030023,25.3245987 L64.0303758,25.3244265 Z" id="path-3"></path>
        <linearGradient x1="7.28118013%" y1="54.8946896%" x2="109.447877%" y2="50%" id="linearGradient-5">
            <stop stop-color="#27FFDF" offset="0%"></stop>
            <stop stop-color="#01FFFA" offset="100%"></stop>
        </linearGradient>
        <circle id="path-6" cx="88.6299166" cy="33.0534574" r="5.58045384"></circle>
        <filter x="-22.4%" y="-22.4%" width="144.8%" height="144.8%" filterUnits="objectBoundingBox" id="filter-7">
            <feGaussianBlur stdDeviation="2" in="SourceAlpha" result="shadowBlurInner1"></feGaussianBlur>
            <feOffset dx="0" dy="1" in="shadowBlurInner1" result="shadowOffsetInner1"></feOffset>
            <feComposite in="shadowOffsetInner1" in2="SourceAlpha" operator="arithmetic" k2="-1" k3="1" result="shadowInnerInner1"></feComposite>
            <feColorMatrix values="0 0 0 0 0.40152439   0 0 0 0 1   0 0 0 0 0.92451659  0 0 0 1 0" type="matrix" in="shadowInnerInner1"></feColorMatrix>
        </filter>
        <linearGradient x1="18.4280146%" y1="50%" x2="185.398843%" y2="50%" id="linearGradient-8">
            <stop stop-color="#0AFFDA" offset="0%"></stop>
            <stop stop-color="#01FFFA" offset="100%"></stop>
        </linearGradient>
    </defs>
    <g id="logo彩-横版" stroke="none" stroke-width="1" fill="none" fill-rule="evenodd">
        <g id="编组-4备份-2" transform="translate(5.000000, 7.000000)">
            <g id="编组-2" transform="translate(105.545455, 11.454545)">
                <g id="编组">
                    <g id="编组-4备份">
                        <g id="编组-3" transform="translate(0.277992, 0.303264)">
                            <g id="编组-3备份-3">
                                <g id="编组-23备份">
                                    <rect id="矩形备份-23" fill="#1E3149" x="129.943473" y="3.24148541" width="32.0095417" height="4.2679389" rx="2.13396945"></rect>
                                    <rect id="矩形备份-24" fill="#1E3149" x="129.943473" y="15.0330345" width="32.0095417" height="4.2679389" rx="2.13396945"></rect>
                                    <path d="M113.395832,25.7028818 C116.047589,25.7028818 118.197263,27.8525558 118.197263,30.504313 C118.197263,33.1560703 116.047589,35.3057443 113.395832,35.3057443 L110.728068,35.3055312 L110.72837,37.3849966 L119.264248,37.3849966 C120.442806,37.3849966 121.398217,38.3404073 121.398217,39.518966 C121.398217,40.6975248 120.442806,41.6529355 119.264248,41.6529355 L91.5226448,41.6529355 C90.344086,41.6529355 89.3886754,40.6975248 89.3886754,39.518966 C89.3886754,38.3404073 90.344086,37.3849966 91.5226448,37.3849966 L98.9915379,37.3849966 L98.9915379,37.3849966 L98.9910684,35.3055312 L97.3910608,35.3057443 C94.7393035,35.3057443 92.5896295,33.1560703 92.5896295,30.504313 C92.5896295,27.8525558 94.7393035,25.7028818 97.3910608,25.7028818 L113.395832,25.7028818 Z M106.460068,35.3055312 L103.259068,35.3055312 L103.259477,37.3849966 L106.460431,37.3849966 L106.460431,37.3849966 L106.460068,35.3055312 Z M113.395832,28.903836 L97.3910608,28.903836 C96.5071417,28.903836 95.7905837,29.620394 95.7905837,30.504313 C95.7905837,31.3391255 96.4297357,32.024656 97.2453848,32.0982495 L97.3910608,32.1047901 L113.395832,32.1047901 C114.279751,32.1047901 114.996309,31.3882321 114.996309,30.504313 C114.996309,29.620394 114.279751,28.903836 113.395832,28.903836 Z M117.835558,15.4688148 C120.397619,15.4688148 122.47458,17.5457757 122.47458,20.1078367 L122.47458,20.1078367 L122.47458,23.0070169 C122.47458,23.9679049 121.695626,24.7468585 120.734738,24.7468585 C119.77385,24.7468585 118.994896,23.9679049 118.994896,23.0070169 L118.994896,23.0070169 L118.994896,20.0515518 C118.994896,19.6370188 118.658851,19.3009734 118.244318,19.3009734 L118.244318,19.3009734 L92.7631342,19.3009734 C92.3486012,19.3009734 92.0125558,19.6370188 92.0125558,20.0515518 L92.0125558,20.0515518 L92.0125558,23.2309337 C92.0125558,24.2475483 91.1884268,25.0716773 90.1718121,25.0716773 C89.1551974,25.0716773 88.3310684,24.2475483 88.3310684,23.2309337 L88.3310684,23.2309337 L88.3310684,20.2702461 C88.3310684,17.6184888 90.4807424,15.4688148 93.1324997,15.4688148 L93.1324997,15.4688148 Z M113.357759,20.6087351 C114.41544,20.6087351 115.27286,21.4661549 115.27286,22.5238359 C115.27286,23.5815168 114.41544,24.4389366 113.357759,24.4389366 L97.4897815,24.4389366 C96.4321005,24.4389366 95.5746807,23.5815168 95.5746807,22.5238359 C95.5746807,21.4661549 96.4321005,20.6087351 97.4897815,20.6087351 L113.357759,20.6087351 Z M105.393446,0.0405312336 C106.572005,0.0405312336 107.527416,0.995941899 107.527416,2.17450068 L107.527068,3.24053123 L119.264248,3.24148541 C120.442806,3.24148541 121.398217,4.19689607 121.398217,5.37545486 C121.398217,6.55401364 120.442806,7.50942431 119.264248,7.50942431 L107.527068,7.50853123 L107.527068,9.58853123 L119.264248,9.58867659 C120.442806,9.58867659 121.398217,10.5440873 121.398217,11.722646 C121.398217,12.9012048 120.442806,13.8566155 119.264248,13.8566155 L91.5226448,13.8566155 C90.344086,13.8566155 89.3886754,12.9012048 89.3886754,11.722646 C89.3886754,10.5440873 90.344086,9.58867659 91.5226448,9.58867659 L103.259068,9.58853123 L103.259068,7.50853123 L91.5226448,7.50942431 C90.344086,7.50942431 89.3886754,6.55401364 89.3886754,5.37545486 C89.3886754,4.19689607 90.344086,3.24148541 91.5226448,3.24148541 L103.259068,3.24053123 L103.259477,2.17450068 C103.259477,0.995941899 104.214887,0.0405312336 105.393446,0.0405312336 Z" id="形状结合备份-2" fill="#1E3149"></path>
                                    <rect id="矩形备份-25" fill="#1E3149" x="1.35813409" y="3.24148541" width="32.0095417" height="4.2679389" rx="2.13396945"></rect>
                                    <rect id="矩形备份-26" fill="#1E3149" x="1.35813409" y="15.5802062" width="32.0095417" height="4.2679389" rx="2.13396945"></rect>
                                    <path d="M16.9525262,17.930484 L3.9680055,34.6392592 C3.04085601,35.8323362 3.25643281,37.5511193 4.44950977,38.4782688 C4.92958974,38.8513427 5.52026494,39.0538701 6.12826242,39.0538701 L27.5693807,39.0538701 C29.0803535,39.0538701 30.3052389,37.8289847 30.3052389,36.3180119 C30.3052389,35.6833263 30.0845707,35.0683858 29.6810275,34.5785097 L27.0556057,31.3914118 L27.0556057,31.3914118" id="路径-15备份" stroke="#1E3149" stroke-width="4.32265606" stroke-linecap="round"></path>
                                    <rect id="矩形备份-27" fill="#1E3149" x="41.2743062" y="3.87073281" width="17.5094929" height="4.2679389" rx="2.13396945"></rect>
                                    <rect id="矩形备份-28" fill="#1E3149" x="57.6894558" y="8.24810604" width="21.3396945" height="4.2679389" rx="2.13396945"></rect>
                                    <rect id="矩形备份-29" fill="#1E3149" x="57.1422842" y="20.8330541" width="23.5283811" height="4.2679389" rx="2.13396945"></rect>
                                    <rect id="矩形备份-30" fill="#1E3149" transform="translate(63.904795, 6.855597) rotate(58.000000) translate(-63.904795, -6.855597) " x="58.4330789" y="4.72162726" width="10.9434331" height="4.2679389" rx="2.13396945"></rect>
                                    <rect id="矩形备份-31" fill="#1E3149" transform="translate(73.631174, 6.785651) scale(-1, 1) rotate(58.000000) translate(-73.631174, -6.785651) " x="68.1594572" y="4.65168141" width="10.9434331" height="4.2679389" rx="2.13396945"></rect>
                                    <rect id="矩形备份-32" fill="#1E3149" x="44.5573361" y="13.1726509" width="11.4906047" height="4.2679389" rx="2.13396945"></rect>
                                    <rect id="矩形备份-33" fill="#1E3149" x="44.5573361" y="21.9273974" width="11.4906047" height="4.2679389" rx="2.13396945"></rect>
                                    <rect id="矩形备份-34" fill="#1E3149" x="40.1799629" y="32.8708304" width="15.867978" height="4.2679389" rx="2.13396945"></rect>
                                    <rect id="矩形备份-35" fill="#1E3149" transform="translate(46.711557, 21.327913) rotate(-270.000000) translate(-46.711557, -21.327913) " x="31.1171652" y="19.1939437" width="31.1887843" height="4.2679389" rx="2.13396945"></rect>
                                    <rect id="矩形备份-36" fill="#1E3149" transform="translate(54.132840, 24.337357) rotate(-270.000000) translate(-54.132840, -24.337357) " x="35.5290039" y="22.2033878" width="37.2076724" height="4.2679389" rx="2.13396945"></rect>
                                    <path d="M48.6337115,18.4528039 L66.9639619,18.4528039 L66.9639619,18.4528039 L78.9830592,28.7432677 C79.8065523,29.4483229 79.9025653,30.6874561 79.1975101,31.5109493 C79.1960923,31.5126053 79.1946717,31.5142589 79.1932484,31.5159102 C78.4885685,32.3334357 77.2545772,32.4249151 76.4370517,31.7202352 C76.4332313,31.7169422 76.4294237,31.7136344 76.4256289,31.7103118 L66.1583265,22.7207428 L66.1583265,22.7207428 L48.6337115,22.7207428 C47.4551527,22.7207428 46.4997421,21.7653322 46.4997421,20.5867734 C46.4997421,19.4082146 47.4551527,18.4528039 48.6337115,18.4528039 Z" id="矩形备份-37" fill="#1E3149" transform="translate(63.489422, 25.730240) rotate(-270.000000) translate(-63.489422, -25.730240) "></path>
                                    <path d="M59.0446141,18.4223461 L77.3748645,18.4223461 L77.3748645,18.4223461 L89.4025902,28.7201974 C90.2246364,29.4240137 90.3219121,30.6604031 89.6200477,31.4841165 C88.9270218,32.297457 87.7058706,32.3949913 86.8925301,31.7019654 C86.8866497,31.6969549 86.8807994,31.6919093 86.8749796,31.6868287 L76.569229,22.690285 L76.569229,22.690285 L59.0446141,22.690285 C57.8660553,22.690285 56.9106446,21.7348744 56.9106446,20.5563156 C56.9106446,19.3777568 57.8660553,18.4223461 59.0446141,18.4223461 Z" id="矩形备份-38" fill="#1E3149" transform="translate(73.900324, 25.698447) scale(-1, 1) rotate(-270.000000) translate(-73.900324, -25.698447) "></path>
                                </g>
                            </g>
                        </g>
                    </g>
                    <path d="M146.64078,18.650736 L133.824677,35.0816379 C132.89538,36.2730434 133.107862,37.992212 134.299267,38.9215083 C134.780006,39.2964842 135.372222,39.500136 135.981907,39.500136 L157.09129,39.500136 C158.602263,39.500136 159.827149,38.2752505 159.827149,36.7642777 C159.827149,36.1278786 159.605289,35.5113876 159.199762,35.0209275 L156.649928,31.9370655 L156.649928,31.9370655" id="路径-15备份" stroke="#1E3149" stroke-width="4.32265606" stroke-linecap="round"></path>
                </g>
            </g>
            <g id="编组备份">
                <path d="M30.8503267,23.0545853 C30.9174326,28.1331893 31.142535,30.6927955 31.5256339,30.7334038 C32.4476904,30.8311415 32.1727259,35.1375737 30.7007405,43.6527005 C28.3105281,40.9284052 25.7303227,38.5416405 22.9601245,36.4924063 C21.2658011,35.2390428 21.3260914,36.4124783 21.0580527,36.2078684 C19.7660719,35.2216222 20.4389366,35.8551988 19.8174395,35.933184 C19.0529804,36.0291081 17.6874717,36.3522925 16.4193773,38.205744 C16.2584366,38.4409756 15.9702139,38.8098419 15.5547093,39.3123427 L15.5544783,39.2933524 C13.9359327,41.2418424 11.5212117,42.4783782 8.82379453,42.4783782 C3.95054738,42.4783782 -1.67146363e-12,38.4424135 -1.67146363e-12,33.4637989 C-1.67146363e-12,28.4851842 3.95054738,24.4492196 8.82379453,24.4492196 C11.8920407,24.4492196 14.5945203,26.0491123 16.1755336,28.4768586 L16.0963568,28.3663312 C17.0459167,29.7189097 18.6492394,31.4389073 21.2799053,30.7334038 C21.5852815,30.6515067 19.7058981,30.8282712 23.1481934,29.4838589 C24.9455201,28.7819005 27.5128978,26.6388093 30.8503267,23.0545853 Z" id="形状结合备份-8" fill="url(#linearGradient-1)"></path>
                <g id="形状结合备份-8" transform="translate(6.640172, 0.000000)">
                    <g transform="translate(0.065637, -0.000000)">
                        <mask id="mask-4" fill="white">
                            <use xlink:href="#path-3"></use>
                        </mask>
                        <use id="蒙版" fill="url(#linearGradient-2)" xlink:href="#path-3"></use>
                        <path d="M2.11237864,24.4463376 C5.18437873,24.4463376 7.88971676,26.0501476 9.46991578,28.4828912 L9.38494087,28.3634492 C10.3345008,29.7160277 11.9378235,31.4360252 14.5684894,30.7305218 C14.6207248,30.7165131 14.6254123,30.7304848 14.6097683,30.755747 C14.7472242,30.717846 14.877849,30.6800928 15.0009708,30.6427314 C15.234622,30.5064541 15.5715919,30.3060313 16.0474575,30.018968 C17.709649,29.0162602 18.8927062,27.8527881 19.5966291,26.5285519 C19.5502407,27.2403026 19.5199609,27.8693003 19.5057897,28.4155452 C21.8166298,28.484955 23.3371817,30.8324175 23.3371817,33.2172796 C23.3371817,35.3896781 21.9560973,37.5528258 19.9607258,37.9756455 C19.8550169,38.605417 19.7335721,39.281233 19.5966291,40.0007535 C18.4880288,38.2485045 17.4105041,37.1053849 16.3640548,36.5713945 C14.9092524,35.8290265 13.7275207,35.8523168 13.1060236,35.930302 C12.3415645,36.026226 10.9760558,36.3494105 9.70796143,38.202862 C9.54702068,38.4380936 9.258798,38.8069598 8.84329338,39.3094606 L8.84235883,39.2913173 C7.22381707,41.2393186 4.80940493,42.4754961 2.11237864,42.4754961 C-2.76086852,42.4754961 -6.7114159,38.4395315 -6.7114159,33.4609168 C-6.7114159,28.4823022 -2.76086852,24.4463376 2.11237864,24.4463376 Z" fill="#0A30D2" mask="url(#mask-4)"></path>
                    </g>
                </g>
                <g id="椭圆形备份-14">
                    <use fill="url(#linearGradient-5)" fill-rule="evenodd" xlink:href="#path-6"></use>
                    <use fill="black" fill-opacity="1" filter="url(#filter-7)" xlink:href="#path-6"></use>
                </g>
                <path d="M41.3458083,18.4091849 C45.0431237,18.4091849 48.4179081,19.8370321 50.9825347,22.1885285 L51.0272809,22.1655917 C55.5662997,27.1634907 59.6437647,29.6624401 63.2596759,29.6624401 C65.0819074,29.6624401 67.4164113,28.8369936 70.2631875,27.1861005 C71.4475137,26.2316922 72.9330882,25.6649035 74.545847,25.6649035 C78.4179535,25.6649035 81.5569159,28.9321129 81.5569159,32.9624201 C81.5569159,36.9927272 78.4179535,40.2599366 74.545847,40.2599366 C73.2316435,40.2599366 72.0018939,39.883573 70.9506591,39.2287495 L70.9444678,39.2468584 C67.9409197,37.2372245 65.1606373,36.34695 62.6036205,36.576035 C58.5911342,36.9355166 56.4226062,39.6869909 52.1865958,43.4370852 C49.5255492,46.5184984 45.6547075,48.4577825 41.3458083,48.4577825 C33.3208338,48.4577825 26.8153065,41.7311748 26.8153065,33.4334837 C26.8153065,25.1357926 33.3208338,18.4091849 41.3458083,18.4091849 Z" id="形状结合" fill="url(#linearGradient-8)"></path>
            </g>
        </g>
    </g>
</svg>